<?xml version="1.0" encoding="UTF-8"?><svg id="Layer_1" xmlns="http://www.w3.org/2000/svg" xmlns:xlink="http://www.w3.org/1999/xlink" viewBox="0 0 1152 648"><defs><style>.cls-1,.cls-2{fill:none;}.cls-3{fill:#c2d9d9;}.cls-4{fill:#419599;}.cls-5{fill:#297075;}.cls-2{clip-path:url(#clippath);}</style><clipPath id="clippath"><rect class="cls-1" x="-1210.66" y="-757.33" width="1152" height="648"/></clipPath></defs><rect class="cls-5" x="372.5" width="779.5" height="648"/><rect class="cls-3" width="372.93" height="648"/><g class="cls-2"><path class="cls-4" d="m365.89,47.93c-3.95.03-6.65-2.64-6.75-6.66-.1-4.18,2.71-7.11,6.82-7.09,3.72.01,6.82,3,6.95,6.69.13,3.88-3,7.03-7.02,7.06Z"/><path class="cls-4" d="m106.84,40.84c-.05,4.13-2.9,7.01-6.95,7.02-3.88.01-7.12-3.23-7.02-7,.11-3.92,3.29-6.89,7.25-6.76,3.86.12,6.77,3.04,6.72,6.75Z"/><path class="cls-4" d="m308.67,34.09c4.19-.09,6.81,2.56,6.82,6.9,0,3.92-2.64,6.72-6.49,6.86-3.68.13-6.79-2.75-7-6.5-.22-3.9,2.79-7.18,6.67-7.26Z"/><path class="cls-4" d="m384.79,47.86c-3.7-.05-6.86-3.1-6.93-6.69-.07-3.74,3.25-7.03,7.07-7,3.87.03,6.88,3.21,6.82,7.2-.06,3.71-3.1,6.54-6.96,6.49Z"/><path class="cls-4" d="m182.65,59.83c-.06,3.72-3.1,6.82-6.7,6.82-3.75,0-7.22-3.42-7.13-7.03.08-3.44,3.46-6.8,6.88-6.86,3.8-.07,7.01,3.21,6.95,7.07Z"/><path class="cls-4" d="m366.15-3.6c3.67.13,6.96,3.76,6.73,7.41-.24,3.67-3.33,6.37-7.16,6.25-4.2-.13-6.77-2.93-6.57-7.17.17-3.69,3.33-6.61,7-6.49Z"/><path class="cls-4" d="m460.7,28.68c-4.05-.08-6.63-2.69-6.6-6.66.04-3.86,3.37-7.17,7.07-7.02,3.25.14,6.7,3.76,6.7,7.02,0,3.99-2.96,6.74-7.17,6.66Z"/><path class="cls-4" d="m429.78,22.08c-.02,3.86-2.85,6.61-6.81,6.61-3.68,0-7.04-3.12-7.05-6.55,0-3.6,3.69-7.28,7.18-7.13,3.49.15,6.69,3.53,6.68,7.07Z"/><path class="cls-4" d="m106.29,3.45c-.02,3.28-2.9,6.04-6.34,6.08-3.52.04-6.28-2.55-6.37-5.96-.1-3.84,2.45-6.48,6.26-6.5,3.78-.02,6.47,2.64,6.45,6.38Z"/><path class="cls-4" d="m536.88,28.58c-3.41,0-6.51-3.2-6.39-6.61.11-3.17,3.29-6.18,6.45-6.1,3.24.09,6.29,3.06,6.35,6.18.06,3.57-2.83,6.52-6.4,6.52Z"/><path class="cls-4" d="m182.3,22.43c-.18,3.22-3.31,6.05-6.54,5.91-3.67-.16-6.41-3.11-6.19-6.67.19-3.11,3.47-6.15,6.48-6.01,3.38.15,6.44,3.47,6.25,6.77Z"/><path class="cls-4" d="m87.04,60.15c0,3.73-2.82,6.57-6.38,6.44-3.29-.13-5.91-3-5.93-6.49-.02-3.56,2.55-6.31,5.94-6.37,3.69-.07,6.37,2.63,6.36,6.43Z"/><path class="cls-4" d="m308.98-2.98c3.74.05,6.4,2.78,6.28,6.46-.11,3.39-2.79,5.78-6.46,5.76-3.65-.02-6.25-2.47-6.27-5.9-.02-3.61,2.79-6.36,6.45-6.32Z"/><path class="cls-4" d="m201.21,22.08c.02,3.65-2.84,6.51-6.39,6.4-3.44-.1-6.07-2.77-6.15-6.23-.08-3.48,3.02-6.62,6.4-6.48,3.21.13,6.13,3.13,6.15,6.31Z"/><path class="cls-4" d="m347,28.55c-3.31.1-6.15-2.57-6.35-5.96-.2-3.39,2.81-6.7,6.13-6.76,3.17-.06,6.29,2.84,6.46,6.02.18,3.34-2.85,6.6-6.24,6.7Z"/><path class="cls-4" d="m68.26,3.19c0,3.42-2.62,6.01-6.14,6.06-3.78.05-6.78-2.69-6.64-6.09.14-3.57,2.64-6.04,6.19-6.13,3.7-.1,6.59,2.6,6.59,6.17Z"/><path class="cls-4" d="m138.09,53.62c3.39.07,6.35,3.25,6.19,6.66-.15,3.27-2.93,5.57-6.66,5.51-3.67-.06-6.18-2.52-6.11-5.98.07-3.6,2.9-6.26,6.57-6.18Z"/><path class="cls-4" d="m334.21,59.72c.02,3.67-2.28,5.99-6.03,6.07-3.97.08-6.78-2.38-6.8-5.96-.02-3.25,3.3-6.34,6.73-6.27,3.55.08,6.08,2.63,6.1,6.16Z"/><path class="cls-4" d="m48.98,41.24c-.09,3.63-2.52,5.94-6.2,5.91-3.79-.04-6.32-2.68-6.18-6.45.13-3.58,3.05-6.13,6.78-5.92,3.6.2,5.7,2.63,5.6,6.46Z"/><path class="cls-4" d="m87.02,22.17c.07,3.56-2.4,6.25-5.87,6.41-3.63.16-6.43-2.6-6.42-6.34,0-3.32,2.9-6.28,6.13-6.28,3.38,0,6.09,2.74,6.16,6.22Z"/><path class="cls-4" d="m239.14,3.09c.08,3.46-2.5,6.01-6.12,6.05-3.57.04-6.28-2.48-6.34-5.91-.06-3.41,2.66-6.14,6.13-6.16,3.42-.02,6.24,2.66,6.32,6.01Z"/><path class="cls-4" d="m257.99,3.26c-.07,3.62-2.55,6.01-6.17,5.96-3.68-.05-6.08-2.43-6.09-6.03-.01-3.85,2.53-6.31,6.4-6.19,3.6.11,5.93,2.6,5.86,6.27Z"/><path class="cls-4" d="m543.03,3.43c-.12,3.56-2.73,5.92-6.4,5.8-3.63-.11-6.18-2.78-5.99-6.26.18-3.22,3.3-5.86,6.72-5.69,3.15.16,5.78,3.01,5.67,6.15Z"/><path class="cls-4" d="m410.05,22.02c.07,3.36-2.74,6.09-6.23,6.06-3.23-.03-6.05-2.57-6.25-5.66-.21-3.12,3.21-6.47,6.6-6.46,2.93.01,5.82,2.98,5.89,6.06Z"/><path class="cls-4" d="m543.07,41.07c.04,3.46-2.63,6.05-6.24,6.06-3.35.01-6.3-2.93-6.2-6.18.09-3.05,2.93-5.78,6.09-5.85,3.55-.08,6.31,2.51,6.35,5.96Z"/><path class="cls-4" d="m328.05,34.97c3.46.05,6.12,2.82,6,6.26-.12,3.28-3.15,5.98-6.53,5.83-3.38-.15-5.6-2.58-5.58-6.1.03-3.76,2.35-6.04,6.12-5.98Z"/><path class="cls-4" d="m523.82,41.15c-.1,3.63-2.71,6.1-6.26,5.9-3.24-.18-5.86-2.83-5.91-5.99-.06-3.3,2.8-6.1,6.21-6.08,3.65.02,6.05,2.5,5.95,6.17Z"/><path class="cls-4" d="m239.14,59.7c.02,3.4-2.73,6.01-6.31,5.98-3.39-.03-6.26-2.92-6.14-6.2.11-3.07,2.95-5.81,6.08-5.86,3.26-.05,6.35,2.9,6.37,6.07Z"/><path class="cls-4" d="m352.86,41.01c.07,3.37-2.25,5.93-5.54,6.11-3.54.19-6.32-2.23-6.53-5.69-.21-3.42,2.38-6.22,5.85-6.36,3.49-.14,6.14,2.4,6.22,5.94Z"/><path class="cls-4" d="m505.07,59.63c.08,3.41-2.58,6.08-6.1,6.1-3.44.03-5.9-2.25-6.04-5.59-.15-3.48,2.39-6.34,5.76-6.49,3.3-.14,6.3,2.67,6.38,5.98Z"/><path class="cls-4" d="m403.78,65.69c-3.32-.06-6.15-2.65-6.19-5.65-.03-3.1,3.03-6.05,6.36-6.12,3.14-.06,6.21,3.13,6.08,6.32-.13,3.16-2.83,5.51-6.26,5.45Z"/><path class="cls-4" d="m467.05,41.25c-.09,3.04-2.99,5.79-6.11,5.79-3.43,0-6.03-2.75-5.96-6.32.07-3.34,2.61-5.78,5.97-5.73,3.38.05,6.19,2.94,6.09,6.26Z"/><path class="cls-4" d="m485.92,3.07c.13,3.81-2.07,6.13-5.84,6.17-3.49.04-6.13-2.19-6.37-5.36-.24-3.18,2.75-6.34,6.01-6.36,3.47-.02,6.09,2.33,6.19,5.56Z"/><path class="cls-4" d="m270.8,27.78c-3.6-.02-6.14-2.59-6.03-6.11.08-2.71,2.98-5.6,5.72-5.71,3.3-.13,6.37,2.67,6.48,5.92.12,3.52-2.4,5.92-6.18,5.9Z"/><path class="cls-4" d="m422.75,47.03c-3.26-.11-5.73-2.69-5.72-5.98,0-3.62,2.54-6.15,6.05-6.05,3.3.09,6.07,3.13,5.81,6.39-.26,3.24-2.99,5.76-6.14,5.65Z"/><path class="cls-4" d="m366.01,65.68c-3.78,0-5.88-1.9-5.97-5.43-.09-3.6,2.41-6.35,5.78-6.35,3.19,0,6.25,3.05,6.23,6.2-.02,3.16-2.63,5.58-6.04,5.58Z"/><path class="cls-4" d="m328.13,9.14c-3.3.11-5.95-2.29-6.13-5.55-.2-3.57,2.24-6.29,5.75-6.41,3.34-.12,6.33,2.74,6.3,6.04-.02,3.1-2.73,5.82-5.92,5.93Z"/><path class="cls-4" d="m352.84,3.28c.02,3.65-2.29,5.93-6.05,5.95-3.34.02-5.89-2.35-6-5.6-.11-3.21,2.82-6.38,5.92-6.4,3.44-.02,6.11,2.6,6.13,6.05Z"/><path class="cls-4" d="m194.96,65.68c-3.43.04-5.81-2.25-5.92-5.67-.11-3.57,2.48-6.33,5.89-6.26,2.9.06,6.07,3.04,6.19,5.83.14,3.31-2.63,6.06-6.16,6.1Z"/><path class="cls-4" d="m4.96,65.68c-3.47,0-6.31-2.73-6.24-5.99.06-2.87,3.05-5.81,6.02-5.93,3.2-.13,6.09,2.81,6.04,6.16-.05,3.34-2.49,5.76-5.82,5.76Z"/><path class="cls-4" d="m156.79,27.79c-3.64-.06-5.7-2.13-5.73-5.73-.03-3.6,2.61-6.39,5.92-6.27,3.1.11,6.13,3.41,5.97,6.49-.17,3.23-2.79,5.57-6.16,5.52Z"/><path class="cls-4" d="m480.12,65.68c-3.46.1-6.17-2.18-6.4-5.37-.23-3.19,2.73-6.17,6.16-6.21,3.39-.04,6.02,2.45,6.04,5.71.01,3.46-2.27,5.77-5.8,5.87Z"/><path class="cls-4" d="m498.98-2.48c3.51.12,6.26,2.93,6.03,6.17-.23,3.22-2.83,5.56-6.14,5.53-3.57-.04-6.01-2.58-5.9-6.15.1-3.29,2.67-5.66,6.01-5.55Z"/><path class="cls-4" d="m390.83,60.12c-.06,3.36-2.43,5.57-5.96,5.56-3.55,0-6.2-2.66-6.06-6.06.13-3.18,2.72-5.33,6.31-5.24,3.64.09,5.78,2.23,5.72,5.73Z"/><path class="cls-4" d="m80.77-2.22c3.49-.05,6.04,2.23,6.15,5.49.12,3.47-2.47,5.98-6.15,5.96-3.32-.01-5.87-2.49-5.94-5.75-.07-3.22,2.48-5.65,5.95-5.7Z"/><path class="cls-4" d="m517.97,65.66c-2.92.02-6.13-2.94-6.19-5.71-.06-3.08,2.57-5.51,6.03-5.56,3.83-.06,5.9,1.83,5.92,5.4.02,3.27-2.5,5.84-5.76,5.86Z"/><path class="cls-4" d="m29.64,3.01c.06,3.08-2.84,6.08-5.83,6.04-3.03-.04-5.61-2.6-5.65-5.61-.05-3.39,2.39-5.94,5.74-5.98,3.01-.04,5.68,2.54,5.74,5.55Z"/><path class="cls-4" d="m48.59,3.54c-.21,3.08-2.88,5.53-5.81,5.35-3.04-.19-6.03-3.36-5.77-6.1.27-2.8,3.21-5.34,6.07-5.24,3.45.13,5.73,2.61,5.5,5.99Z"/><path class="cls-4" d="m143.61,40.69c.1,3.21-2.47,5.96-5.71,6.1-2.94.13-5.46-2.41-5.57-5.6-.11-3.31,2.01-5.81,5.1-6,3.31-.21,6.08,2.25,6.19,5.5Z"/><path class="cls-4" d="m289.97,54.39c3.38.04,5.72,2.2,5.71,5.27-.01,2.93-3.06,5.88-6.03,5.84-3.1-.05-5.68-2.91-5.53-6.14.14-3.29,2.17-5.01,5.85-4.96Z"/><path class="cls-4" d="m213.88,16.43c3.32,0,5.84,2.57,5.72,5.8-.12,3.05-2.6,5.33-5.77,5.3-3.32-.03-5.87-2.61-5.77-5.84.09-2.88,2.74-5.27,5.83-5.26Z"/><path class="cls-4" d="m194.79,9.06c-3.33-.11-5.85-2.79-5.67-6.03.19-3.4,2.59-5.35,6.34-5.16,3.2.16,5.47,2.67,5.26,5.8-.19,2.88-3.06,5.49-5.94,5.39Z"/><path class="cls-4" d="m80.72,47.04c-2.8-.06-5.48-2.87-5.48-5.74,0-3.24,2.75-6.01,5.82-5.86,2.87.13,5.51,2.9,5.49,5.76-.02,3.25-2.67,5.91-5.83,5.84Z"/><path class="cls-4" d="m10.59,22.33c-.09,3.09-2.48,5.24-5.79,5.22-3.37-.03-5.67-2.19-5.67-5.32,0-3.03,3.05-5.87,6.05-5.66,3.09.22,5.49,2.78,5.4,5.76Z"/><path class="cls-4" d="m309.04,27.54c-3.08.06-5.88-2.36-6.03-5.2-.15-2.96,2.81-5.84,5.95-5.81,3.18.04,5.61,2.41,5.62,5.49,0,3.21-2.25,5.46-5.55,5.53Z"/><path class="cls-4" d="m447.56,3.55c-.04,3.11-2.43,5.53-5.52,5.59-3.23.06-5.84-2.55-5.8-5.81.04-3.38,2.5-5.62,6.01-5.46,3.29.14,5.35,2.35,5.3,5.68Z"/><path class="cls-4" d="m295.22,3.02c.05,3.27-2.17,5.72-5.22,5.74-2.88.02-5.7-2.59-5.86-5.41-.18-3.22,2.36-5.87,5.65-5.89,3.1-.02,5.37,2.31,5.42,5.56Z"/><path class="cls-4" d="m67.46,40.79c.03,3.29-2.04,5.43-5.37,5.54-3.47.11-5.91-2.2-5.89-5.56.02-3.08,2.4-5.57,5.43-5.68,3.25-.12,5.79,2.37,5.82,5.7Z"/><path class="cls-4" d="m238.42,40.95c-.07,3.29-2.2,5.31-5.59,5.3-3.6,0-5.7-2.23-5.51-5.81.17-3.08,2.67-5.33,5.82-5.25,3.03.08,5.34,2.6,5.27,5.75Z"/><path class="cls-4" d="m219.49,3.14c-.03,2.94-2.81,5.76-5.65,5.72-2.75-.04-5.77-3.02-5.78-5.72,0-2.8,2.8-5.52,5.79-5.6,2.99-.08,5.67,2.58,5.64,5.6Z"/><path class="cls-4" d="m162.28,59.71c.02,3.14-2.33,5.66-5.36,5.74-2.9.07-5.6-2.52-5.73-5.51-.13-3.02,2.27-5.38,5.54-5.45,3.57-.08,5.53,1.76,5.55,5.22Z"/><path class="cls-4" d="m276.49,59.67c0,3.02-2.55,5.78-5.44,5.88-3.12.11-5.85-2.73-5.75-5.97.1-3.06,2.16-5,5.41-5.08,3.49-.09,5.78,1.96,5.78,5.17Z"/><path class="cls-4" d="m276.53,40.76c.06,3.13-2.19,5.38-5.47,5.48-3.42.11-5.65-1.85-5.79-5.08-.15-3.26,2.39-5.91,5.65-5.89,3.08.02,5.55,2.44,5.61,5.48Z"/><path class="cls-4" d="m341.56,59.93c.03-3.26,2.32-5.44,5.59-5.33,2.94.1,5.21,2.37,5.29,5.29.08,2.95-2.49,5.62-5.48,5.68-2.96.07-5.43-2.52-5.4-5.64Z"/><path class="cls-4" d="m485.39,22.39c0,3.13-2.39,5.34-5.69,5.24-3.09-.09-5.15-2.15-5.23-5.22-.07-3.07,2.39-5.63,5.42-5.64,3.02-.01,5.48,2.51,5.49,5.62Z"/><path class="cls-4" d="m441.84,54.6c3.21-.09,5.63,2.25,5.6,5.43-.02,2.84-2.39,5.37-5.17,5.55-2.87.18-5.86-2.49-5.94-5.3-.09-2.93,2.49-5.59,5.51-5.68Z"/><path class="cls-4" d="m156.72,46.24c-3.05-.06-5.55-2.67-5.44-5.68.1-2.78,2.64-5.24,5.42-5.27,3-.03,5.57,2.52,5.57,5.54,0,3.24-2.29,5.47-5.55,5.4Z"/><path class="cls-4" d="m460.94,54.51c3.08,0,5.39,2.1,5.5,5.02.11,2.92-2.52,5.8-5.38,5.88-2.73.08-5.84-2.85-5.85-5.51,0-3.01,2.52-5.38,5.73-5.38Z"/><path class="cls-4" d="m523.37,3.35c.07,3.02-2.51,5.64-5.49,5.57-2.9-.06-5.21-2.35-5.32-5.26-.13-3.33,1.96-5.62,5.19-5.7,3.14-.07,5.54,2.23,5.62,5.38Z"/><path class="cls-4" d="m542.29,59.95c.05,3.11-2.46,5.71-5.44,5.62-2.99-.09-5.65-2.8-5.56-5.67.09-2.86,2.47-5.23,5.34-5.31,3.18-.09,5.61,2.22,5.66,5.36Z"/><path class="cls-4" d="m498.61,27.54c-3.04-.07-5.24-2.23-5.29-5.19-.05-2.87,2.66-5.67,5.51-5.69,2.82-.02,5.52,2.76,5.49,5.65-.03,3.08-2.46,5.31-5.71,5.23Z"/><path class="cls-4" d="m417.64,59.62c.05-3.24,1.91-5.08,5.16-5.11,3.16-.03,5.81,2.39,5.78,5.28-.03,2.73-2.99,5.65-5.7,5.64-2.92-.02-5.29-2.63-5.23-5.8Z"/><path class="cls-4" d="m200.34,41.34c-.12,3.15-2.54,5.16-5.92,4.94-2.97-.19-5.29-2.59-5.18-5.35.11-2.84,3-5.52,5.83-5.42,3,.11,5.4,2.75,5.28,5.82Z"/><path class="cls-4" d="m208.64,59.61c.1-3.49,2.1-5.3,5.64-5.11,3.09.17,5.1,2.31,5.08,5.39-.01,2.79-2.53,5.27-5.35,5.27-3.28,0-5.46-2.25-5.37-5.56Z"/><path class="cls-4" d="m132.61,3.16c.05-2.87,2.45-5.19,5.33-5.17,3.03.02,5.62,2.7,5.44,5.63-.16,2.55-3.09,5.13-5.7,5.03-2.83-.11-5.12-2.59-5.07-5.49Z"/><path class="cls-4" d="m18.66,22.22c-.05-2.94,2.25-5.49,5.02-5.56,2.77-.07,5.25,2.36,5.35,5.26.1,2.9-2.17,5.36-5.07,5.47-2.95.12-5.25-2.12-5.3-5.17Z"/><path class="cls-4" d="m441.84,46.24c-2.92-.03-5.38-2.44-5.31-5.23.07-2.83,2.58-5.1,5.53-4.99,3,.11,5.36,2.44,5.31,5.24-.05,2.77-2.53,5-5.53,4.98Z"/><path class="cls-4" d="m213.9,44.97c-2.2.04-4.24-1.9-4.25-4.05-.01-2.24,1.85-4.05,4.17-4.06,2.43-.02,4.18,1.63,4.18,3.95,0,2.24-1.85,4.12-4.11,4.16Z"/><path class="cls-4" d="m251.93,45.01c-2.28.02-4.13-1.81-4.12-4.09,0-2.42,1.64-4.06,4.05-4.07,2.38,0,4.15,1.68,4.16,3.99.02,2.23-1.87,4.15-4.09,4.17Z"/><path class="cls-4" d="m179.88,3.45c-.11,2.25-1.98,3.85-4.31,3.7-2.33-.15-4.08-2.07-3.85-4.22.23-2.13,2.31-3.94,4.41-3.82,2.2.13,3.86,2.04,3.75,4.33Z"/><path class="cls-4" d="m389.02,3.49c-.02,2.26-1.8,3.84-4.27,3.79-2.35-.05-4.12-1.88-3.99-4.12.13-2.18,2.22-4.12,4.27-3.97,2.21.17,4.01,2.1,3.99,4.3Z"/><path class="cls-4" d="m123.09,41.02c-.03,2.2-1.91,3.76-4.45,3.72-2.26-.04-3.77-1.57-3.75-3.8.02-2.4,1.74-4.12,4.08-4.07,2.27.05,4.15,1.95,4.12,4.15Z"/><path class="cls-4" d="m408.24,40.93c.07,1.7-2.29,4.11-4.16,4.24-2.06.14-4.16-1.85-4.21-3.97-.05-2.08,1.95-4.21,3.98-4.24,1.96-.02,4.31,2.1,4.39,3.97Z"/><path class="cls-4" d="m118.96,63.64c-2.27.04-4.1-1.77-4.05-4.01.04-1.96,1.84-3.75,3.83-3.82,1.98-.07,4.2,2.14,4.11,4.08-.09,2-1.87,3.71-3.89,3.75Z"/><path class="cls-4" d="m255.83,59.84c.02,2.07-1.58,3.69-3.75,3.79-2.28.1-4.26-1.74-4.17-3.87.07-1.78,2.07-3.85,3.83-3.98,2.03-.14,4.07,1.87,4.09,4.05Z"/><path class="cls-4" d="m65.88,59.68c.06,2.37-1.68,4.19-3.96,4.13-2.29-.06-4.02-1.88-3.97-4.18.04-2.09,1.7-3.85,3.71-3.96,2.14-.11,4.17,1.81,4.22,4.01Z"/><path class="cls-4" d="m327.75,25.89c-2.37-.05-3.95-1.72-3.87-4.11.07-2.2,1.53-3.52,3.91-3.54,2.37-.02,4.24,1.69,4.23,3.86,0,2.18-1.88,3.84-4.27,3.79Z"/><path class="cls-4" d="m252.07,18.12c2.13.02,3.76,1.7,3.76,3.87,0,2.13-1.66,3.78-3.81,3.8-2.16.02-3.98-1.58-4.09-3.59-.11-2.12,1.9-4.11,4.14-4.08Z"/><path class="cls-4" d="m305.31,60.07c-.08-2.3,1.33-4.1,3.28-4.19,2.19-.1,4.23,1.81,4.21,3.95-.02,1.98-1.72,3.73-3.78,3.88-2.25.16-3.62-1.18-3.71-3.64Z"/><path class="cls-4" d="m8.7,3.25c.05,2.09-1.71,3.86-3.82,3.82-2.09-.04-4.02-1.87-3.96-3.77.06-1.93,1.99-3.85,3.94-3.92,1.92-.08,3.79,1.8,3.84,3.87Z"/><path class="cls-4" d="m39.36,21.76c.14-2.41,1.59-3.67,3.91-3.41,2.13.24,3.79,2.1,3.59,4.03-.2,1.95-2.1,3.49-4.22,3.42-2.25-.08-3.43-1.52-3.28-4.04Z"/><path class="cls-4" d="m441.86,25.89c-2.38-.03-3.76-1.44-3.66-3.74.09-2.14,1.8-3.81,3.85-3.75,2.03.06,3.69,1.83,3.68,3.93,0,2.25-1.47,3.59-3.86,3.56Z"/><path class="cls-4" d="m292.07,40.68c0,1.25-.57,2.16-1.79,2.34-1.45.22-2.38-.57-2.56-2.02-.15-1.26.53-2.1,1.75-2.34,1.57-.31,2.19.75,2.6,2.01Z"/><path class="cls-4" d="m119.11,19.61c1.29.42,2.17,1.22,1.85,2.65-.25,1.13-1.07,1.8-2.34,1.67-1.25-.13-1.99-.85-1.9-2.09.1-1.36.93-2.17,2.38-2.24Z"/><path class="cls-4" d="m26.01,59.85c-.29,1.44-1.01,2.12-2.3,2.05-1.36-.07-1.92-.91-1.85-2.16.08-1.46.88-2.34,2.4-2.13,1.32.19,1.46,1.4,1.75,2.23Z"/><path class="cls-4" d="m182.65,77.3c-.06,3.72-3.1,6.82-6.7,6.82-3.75,0-7.22-3.42-7.13-7.03.08-3.44,3.46-6.8,6.88-6.86,3.8-.07,7.01,3.21,6.95,7.07Z"/><path class="cls-4" d="m87.04,77.63c0,3.73-2.82,6.57-6.38,6.44-3.29-.13-5.91-3-5.93-6.49-.02-3.56,2.55-6.31,5.94-6.37,3.69-.07,6.37,2.63,6.36,6.43Z"/><path class="cls-4" d="m138.09,71.09c3.39.07,6.35,3.25,6.19,6.66-.15,3.27-2.93,5.57-6.66,5.51-3.67-.06-6.18-2.52-6.11-5.98.07-3.6,2.9-6.26,6.57-6.18Z"/><path class="cls-4" d="m334.21,77.19c.02,3.67-2.28,5.99-6.03,6.07-3.97.08-6.78-2.38-6.8-5.96-.02-3.25,3.3-6.34,6.73-6.27,3.55.08,6.08,2.63,6.1,6.16Z"/><path class="cls-4" d="m239.14,77.17c.02,3.4-2.73,6.01-6.31,5.98-3.39-.03-6.26-2.92-6.14-6.2.11-3.07,2.95-5.81,6.08-5.86,3.26-.05,6.35,2.9,6.37,6.07Z"/><path class="cls-4" d="m505.07,77.11c.08,3.41-2.58,6.08-6.1,6.1-3.44.03-5.9-2.25-6.04-5.59-.15-3.48,2.39-6.34,5.76-6.49,3.3-.14,6.3,2.67,6.38,5.98Z"/><path class="cls-4" d="m403.78,83.17c-3.32-.06-6.15-2.65-6.19-5.65-.03-3.1,3.03-6.05,6.36-6.12,3.14-.06,6.21,3.13,6.08,6.32-.13,3.16-2.83,5.51-6.26,5.45Z"/><path class="cls-4" d="m366.01,83.15c-3.78,0-5.88-1.9-5.97-5.43-.09-3.6,2.41-6.35,5.78-6.35,3.19,0,6.25,3.05,6.23,6.2-.02,3.16-2.63,5.58-6.04,5.58Z"/><path class="cls-4" d="m194.96,83.15c-3.43.04-5.81-2.25-5.92-5.67-.11-3.57,2.48-6.33,5.89-6.26,2.9.06,6.07,3.04,6.19,5.83.14,3.31-2.63,6.06-6.16,6.1Z"/><path class="cls-4" d="m4.96,83.15c-3.47,0-6.31-2.73-6.24-5.99.06-2.87,3.05-5.81,6.02-5.93,3.2-.13,6.09,2.81,6.04,6.16-.05,3.34-2.49,5.76-5.82,5.76Z"/><path class="cls-4" d="m480.12,83.15c-3.46.1-6.17-2.18-6.4-5.37-.23-3.19,2.73-6.17,6.16-6.21,3.39-.04,6.02,2.45,6.04,5.71.01,3.46-2.27,5.77-5.8,5.87Z"/><path class="cls-4" d="m390.83,77.59c-.06,3.36-2.43,5.57-5.96,5.56-3.55,0-6.2-2.66-6.06-6.06.13-3.18,2.72-5.33,6.31-5.24,3.64.09,5.78,2.23,5.72,5.73Z"/><path class="cls-4" d="m517.97,83.13c-2.92.02-6.13-2.94-6.19-5.71-.06-3.08,2.57-5.51,6.03-5.56,3.83-.06,5.9,1.83,5.92,5.4.02,3.27-2.5,5.84-5.76,5.86Z"/><path class="cls-4" d="m289.97,71.86c3.38.04,5.72,2.2,5.71,5.27-.01,2.93-3.06,5.88-6.03,5.84-3.1-.05-5.68-2.91-5.53-6.14.14-3.29,2.17-5.01,5.85-4.96Z"/><path class="cls-4" d="m162.28,77.19c.02,3.14-2.33,5.66-5.36,5.74-2.9.07-5.6-2.52-5.73-5.51-.13-3.02,2.27-5.38,5.54-5.45,3.57-.08,5.53,1.76,5.55,5.22Z"/><path class="cls-4" d="m276.49,77.15c0,3.02-2.55,5.78-5.44,5.88-3.12.11-5.85-2.73-5.75-5.97.1-3.06,2.16-5,5.41-5.08,3.49-.09,5.78,1.96,5.78,5.17Z"/><path class="cls-4" d="m341.56,77.4c.03-3.26,2.32-5.44,5.59-5.33,2.94.1,5.21,2.37,5.29,5.29.08,2.95-2.49,5.62-5.48,5.68-2.96.07-5.43-2.52-5.4-5.64Z"/><path class="cls-4" d="m441.84,72.07c3.21-.09,5.63,2.25,5.6,5.43-.02,2.84-2.39,5.37-5.17,5.55-2.87.18-5.86-2.49-5.94-5.3-.09-2.93,2.49-5.59,5.51-5.68Z"/><path class="cls-4" d="m460.94,71.99c3.08,0,5.39,2.1,5.5,5.02.11,2.92-2.52,5.8-5.38,5.88-2.73.08-5.84-2.85-5.85-5.51,0-3.01,2.52-5.38,5.73-5.38Z"/><path class="cls-4" d="m542.29,77.43c.05,3.11-2.46,5.71-5.44,5.62-2.99-.09-5.65-2.8-5.56-5.67.09-2.86,2.47-5.23,5.34-5.31,3.18-.09,5.61,2.22,5.66,5.36Z"/><path class="cls-4" d="m555.06,28.58c-3.41,0-6.51-3.2-6.39-6.61.11-3.17,3.29-6.18,6.45-6.1,3.24.09,6.29,3.06,6.35,6.18.06,3.57-2.83,6.52-6.4,6.52Z"/><path class="cls-4" d="m561.21,3.43c-.12,3.56-2.73,5.92-6.4,5.8-3.63-.11-6.18-2.78-5.99-6.26.18-3.22,3.3-5.86,6.72-5.69,3.15.16,5.78,3.01,5.67,6.15Z"/><path class="cls-4" d="m561.24,41.07c.04,3.46-2.63,6.05-6.24,6.06-3.35.01-6.3-2.93-6.2-6.18.09-3.05,2.93-5.78,6.09-5.85,3.55-.08,6.31,2.51,6.35,5.96Z"/><path class="cls-4" d="m560.46,59.95c.05,3.11-2.46,5.71-5.44,5.62-2.99-.09-5.65-2.8-5.56-5.67.09-2.86,2.47-5.23,5.34-5.31,3.18-.09,5.61,2.22,5.66,5.36Z"/><path class="cls-4" d="m560.46,77.43c.05,3.11-2.46,5.71-5.44,5.62-2.99-.09-5.65-2.8-5.56-5.67.09-2.86,2.47-5.23,5.34-5.31,3.18-.09,5.61,2.22,5.66,5.36Z"/><path class="cls-4" d="m417.64,77.1c.05-3.24,1.91-5.08,5.16-5.11,3.16-.03,5.81,2.39,5.78,5.28-.03,2.73-2.99,5.65-5.7,5.64-2.92-.02-5.29-2.63-5.23-5.8Z"/><path class="cls-4" d="m208.64,77.09c.1-3.49,2.1-5.3,5.64-5.11,3.09.17,5.1,2.31,5.08,5.39-.01,2.79-2.53,5.27-5.35,5.27-3.28,0-5.46-2.25-5.37-5.56Z"/><path class="cls-4" d="m118.96,81.11c-2.27.04-4.1-1.77-4.05-4.01.04-1.96,1.84-3.75,3.83-3.82,1.98-.07,4.2,2.14,4.11,4.08-.09,2-1.87,3.71-3.89,3.75Z"/><path class="cls-4" d="m255.83,77.32c.02,2.07-1.58,3.69-3.75,3.79-2.28.1-4.26-1.74-4.17-3.87.07-1.78,2.07-3.85,3.83-3.98,2.03-.14,4.07,1.87,4.09,4.05Z"/><path class="cls-4" d="m65.88,77.16c.06,2.37-1.68,4.19-3.96,4.13-2.29-.06-4.02-1.88-3.97-4.18.04-2.09,1.7-3.85,3.71-3.96,2.14-.11,4.17,1.81,4.22,4.01Z"/><path class="cls-4" d="m305.31,77.54c-.08-2.3,1.33-4.1,3.28-4.19,2.19-.1,4.23,1.81,4.21,3.95-.02,1.98-1.72,3.73-3.78,3.88-2.25.16-3.62-1.18-3.71-3.64Z"/><path class="cls-4" d="m26.01,77.33c-.29,1.44-1.01,2.12-2.3,2.05-1.36-.07-1.92-.91-1.85-2.16.08-1.46.88-2.34,2.4-2.13,1.32.19,1.46,1.4,1.75,2.23Z"/></g></svg>