<?xml version="1.0" encoding="UTF-8"?><svg id="Layer_1" xmlns="http://www.w3.org/2000/svg" xmlns:xlink="http://www.w3.org/1999/xlink" viewBox="0 0 1152 648"><defs><style>.cls-1,.cls-2{fill:none;}.cls-3{fill:#419599;}.cls-4{fill:#297075;}.cls-2{clip-path:url(#clippath);}</style><clipPath id="clippath"><rect class="cls-1" y="0" width="1152" height="648"/></clipPath></defs><rect class="cls-4" x="-42.58" y="-17.45" width="1214.32" height="682.53"/><g class="cls-2"><path class="cls-3" d="m675.21,534.36c.05,4.06-2.45,6.7-6.47,6.82-3.96.11-7.31-2.89-7.4-6.63-.07-3.24,3.44-6.95,6.71-7.09,3.79-.16,7.11,3.04,7.16,6.9Z"/><path class="cls-3" d="m846.24,647.49c0,3.87-2.76,6.69-6.63,6.77-3.97.08-7.2-2.97-7.22-6.81-.02-3.5,3.24-6.83,6.75-6.92,3.78-.09,7.11,3.17,7.11,6.96Z"/><path class="cls-3" d="m820.33,597.8c-4.14-.03-6.82-2.86-6.7-7.09.1-3.66,3.2-6.66,6.88-6.65,3.64.01,6.79,3.12,6.84,6.76.05,3.85-3.12,7-7.02,6.98Z"/><path class="cls-3" d="m50.52,609.94c-.05,3.67-3.19,6.8-6.79,6.78-3.99-.03-7.03-3.12-6.95-7.08.07-3.64,3.66-7,7.3-6.82,3.64.18,6.5,3.34,6.45,7.12Z"/><path class="cls-3" d="m183.45,591.08c-.07,4.15-2.92,6.86-7.07,6.73-3.67-.12-6.7-3.27-6.61-6.86.09-3.74,3.6-7.06,7.22-6.84,3.78.23,6.52,3.2,6.46,6.98Z"/><path class="cls-3" d="m687.29,616.71c-3.67,0-6.64-3.03-6.65-6.77-.02-4,3.09-7.23,6.85-7.13,3.48.09,6.77,3.37,6.86,6.83.1,3.65-3.32,7.07-7.05,7.07Z"/><path class="cls-3" d="m195.84,654.26c-3.93.09-6.72-2.52-6.89-6.44-.17-3.9,2.93-7.29,6.66-7.29,3.58,0,7.15,3.54,7.17,7.09.01,3.44-3.25,6.55-6.94,6.63Z"/><path class="cls-3" d="m24.74,527.47c3.62.1,7.09,3.67,7.01,7.23-.08,3.75-3.45,6.68-7.45,6.48-3.94-.2-6.52-3.01-6.37-6.95.14-3.66,3.34-6.85,6.81-6.75Z"/><path class="cls-3" d="m782.64,616.14c-3.56.12-6.68-2.6-6.92-6.02-.24-3.39,3.02-6.91,6.47-6.99,3.56-.08,6.9,3.07,6.93,6.54.04,3.37-2.95,6.35-6.49,6.47Z"/><path class="cls-3" d="m314.15,647.43c-.01,3.54-2.84,6.37-6.47,6.48-3.75.11-7.07-2.88-7.09-6.39-.02-3.49,3.27-6.53,6.99-6.46,3.5.06,6.59,3.05,6.57,6.37Z"/><path class="cls-3" d="m145.23,609.75c0,3.82-2.56,6.36-6.42,6.39-3.91.03-6.49-2.43-6.51-6.22-.02-4.02,2.71-6.84,6.58-6.79,3.44.05,6.36,3.09,6.35,6.62Z"/><path class="cls-3" d="m62.69,640.81c3.57.03,6.62,3.2,6.59,6.84-.03,3.64-2.83,6.36-6.47,6.27-3.83-.1-6.53-2.64-6.59-6.22-.06-3.85,2.82-6.93,6.47-6.89Z"/><path class="cls-3" d="m706.81,653.95c-3.98.13-6.59-2.19-6.74-5.98-.17-4.04,2.51-7.08,6.22-7.09,3.25,0,6.61,3.13,6.86,6.39.25,3.29-2.86,6.56-6.33,6.67Z"/><path class="cls-3" d="m389.77,609.78c-.05,3.2-3.02,6.15-6.29,6.22-3.4.08-6.58-3.06-6.58-6.48,0-3.14,3.08-6.16,6.33-6.21,3.39-.05,6.58,3.1,6.53,6.46Z"/><path class="cls-3" d="m630.24,653.33c-3.74-.11-6.34-2.85-6.21-6.53.11-3.15,3.19-6.01,6.43-5.96,3.38.05,6.41,3.29,6.22,6.67-.19,3.49-2.88,5.93-6.44,5.83Z"/><path class="cls-3" d="m801.27,641.27c3.27-.05,6.32,2.77,6.48,5.97.17,3.51-2.74,6.54-6.3,6.57-3.45.02-6.27-2.6-6.39-5.96-.13-3.65,2.59-6.53,6.21-6.58Z"/><path class="cls-3" d="m31.02,629.48c-.4,3.48-3.76,6.12-7.15,5.61-3.2-.48-5.81-3.81-5.42-6.93.46-3.7,3.32-5.88,7.18-5.47,3.26.35,5.77,3.51,5.4,6.79Z"/><path class="cls-3" d="m668.38,634.91c-3.56,0-6.12-2.44-6.24-5.94-.12-3.67,2.58-6.38,6.3-6.31,3.55.07,6.22,2.57,6.36,5.96.15,3.61-2.58,6.28-6.42,6.29Z"/><path class="cls-3" d="m163.95,647.64c-.03,3.39-2.76,6.08-6.24,6.15-3.68.08-5.94-2.24-5.97-6.12-.03-3.82,2.23-6.34,5.75-6.4,3.72-.07,6.49,2.66,6.46,6.37Z"/><path class="cls-3" d="m807.53,553.03c.09,3.32-2.79,6.43-5.99,6.45-3.16.02-6.35-3.1-6.33-6.2.02-3.13,2.67-5.88,5.86-6.08,3.48-.22,6.37,2.39,6.46,5.83Z"/><path class="cls-3" d="m100.34,634.67c-3.05-.07-5.93-3.31-5.81-6.54.13-3.47,2.71-5.67,6.52-5.55,3.54.12,6.08,2.82,5.87,6.24-.19,3.16-3.29,5.92-6.58,5.85Z"/><path class="cls-3" d="m807.54,609.8c0,3.3-2.89,6.13-6.28,6.16-3.13.03-6.22-3.21-6.06-6.38.15-3.05,3.09-5.94,6.05-5.93,3.27.01,6.29,2.96,6.29,6.15Z"/><path class="cls-3" d="m151.78,553.49c-.11-3.52,2.08-6.08,5.38-6.29,3.35-.22,6.6,2.49,6.75,5.63.15,3.09-2.87,6.55-5.83,6.68-3.37.15-6.19-2.54-6.29-6.01Z"/><path class="cls-3" d="m750.42,628.41c.03,3.47-2.62,6.21-6.06,6.28-3.37.07-5.95-2.67-5.96-6.3,0-3.61,2.06-5.7,5.73-5.79,3.75-.1,6.26,2.22,6.29,5.82Z"/><path class="cls-3" d="m541.34,647.12c.07,3.7-2.25,6.14-5.9,6.21-3.58.06-6.22-2.47-6.22-5.96,0-3.17,2.59-5.89,5.78-6.08,3.48-.2,6.28,2.36,6.34,5.82Z"/><path class="cls-3" d="m24.84,653.44c-4.03.07-6.02-1.85-5.99-5.81.02-3.35,2.43-6.08,5.5-6.24,3.12-.16,6.62,3.29,6.56,6.47-.06,3.18-2.6,5.51-6.07,5.57Z"/><path class="cls-3" d="m24.5,616.01c-3.43-.1-5.83-2.84-5.65-6.44.17-3.32,2.77-5.9,5.87-5.84,3.18.07,6.27,3.2,6.18,6.26-.09,3.16-3.24,6.11-6.41,6.02Z"/><path class="cls-3" d="m151.81,609.88c-.03-3.38,2.35-6.04,5.53-6.19,3.24-.15,6.49,2.73,6.57,5.83.08,3.33-3.13,6.52-6.5,6.46-3.2-.06-5.56-2.64-5.59-6.1Z"/><path class="cls-3" d="m674.32,610.21c-.1,3.28-2.64,5.8-5.87,5.81-3.24.01-6.26-2.98-6.19-6.14.07-3.28,3.04-6.2,6.23-6.14,3.09.06,5.92,3.21,5.83,6.47Z"/><path class="cls-3" d="m18.93,553.66c-.08-3.81,1.77-5.97,5.26-6.12,3.64-.16,6.4,2.18,6.57,5.56.16,3.08-2.86,6.25-6.06,6.39-3.14.13-5.7-2.45-5.77-5.83Z"/><path class="cls-3" d="m389.58,647.23c.01,3.33-2.88,6.1-6.32,6.08-3.36-.02-5.67-2.44-5.69-5.96-.02-3.47,2.29-5.98,5.6-6.09,3.41-.12,6.39,2.66,6.41,5.97Z"/><path class="cls-3" d="m37.64,628.03c.41-3.24,3.63-5.66,6.98-5.25,3.15.39,5.36,3.32,4.96,6.6-.41,3.37-3.56,5.82-6.85,5.31-3.06-.47-5.48-3.64-5.09-6.65Z"/><path class="cls-3" d="m339.56,628.38c.06-3.55,2.26-5.73,5.8-5.73,3.31,0,6.06,2.52,6.13,5.61.07,3.13-3.07,6.49-6.02,6.44-3.41-.05-5.97-2.79-5.91-6.32Z"/><path class="cls-3" d="m617.45,647.51c-.11,3.18-2.77,5.67-6.07,5.66-3.63,0-6.01-2.5-5.89-6.16.11-3.34,2.6-5.76,5.91-5.74,3.32.01,6.17,2.95,6.05,6.24Z"/><path class="cls-3" d="m611.49,584.67c3.35.12,6.14,3.08,5.97,6.33-.16,3.11-2.97,5.69-6.13,5.66-3.44-.04-6.04-2.86-5.82-6.31.21-3.36,2.78-5.79,5.99-5.68Z"/><path class="cls-3" d="m402.5,604.08c3.33.08,5.88,2.58,5.9,5.77.02,3.3-2.9,6.18-6.2,6.11-3.16-.06-5.85-2.75-5.9-5.9-.05-3.34,2.77-6.06,6.2-5.98Z"/><path class="cls-3" d="m674.33,647.69c.05,3.51-2.12,5.65-5.81,5.75-3.47.09-6.07-2.17-6.25-5.43-.18-3.14,2.83-6.48,5.94-6.6,3.22-.13,6.07,2.79,6.12,6.29Z"/><path class="cls-3" d="m182.64,609.98c0,3.39-2.87,6.14-6.21,5.99-2.96-.14-5.89-3.18-5.84-6.06.06-3.13,2.7-5.74,5.89-5.82,3.6-.09,6.17,2.38,6.16,5.89Z"/><path class="cls-3" d="m814.47,609.44c.26-3.4,3.12-5.68,6.7-5.34,3.12.3,5.6,3.25,5.32,6.34-.26,2.89-3.5,5.68-6.39,5.5-3.47-.22-5.91-3.03-5.64-6.5Z"/><path class="cls-3" d="m687.23,634.72c-3.28-.04-5.66-2.51-5.71-5.91-.05-3.55,2.55-6.15,6.03-6.07,3.01.07,6,3.02,5.97,5.88-.04,3.1-3.18,6.15-6.29,6.11Z"/><path class="cls-3" d="m782.16,634.64c-3.35-.14-5.87-3.09-5.62-6.59.23-3.19,2.6-5.35,5.81-5.31,3.33.04,6.31,3.09,6.09,6.22-.19,2.81-3.49,5.79-6.28,5.67Z"/><path class="cls-3" d="m636.24,628.08c.04,3.45-2.71,6.36-6.01,6.37-2.86,0-5.93-3.11-5.97-6.05-.05-3.16,2.62-5.75,5.94-5.78,3.74-.04,6,2.01,6.04,5.47Z"/><path class="cls-3" d="m674.24,553.39c-.01,3.15-2.76,6.03-5.82,6.09-3.13.07-6.27-3.19-6.13-6.35.14-3.29,2.76-5.68,6.13-5.61,3.44.07,5.82,2.48,5.81,5.87Z"/><path class="cls-3" d="m144.51,628.76c-.05,3.13-2.72,5.82-5.84,5.88-2.86.06-5.94-2.96-6.01-5.88-.07-3.17,3.01-6.13,6.26-6.02,3.3.11,5.63,2.63,5.58,6.01Z"/><path class="cls-3" d="m383.5,566.02c3.19,0,5.78,2.61,5.79,5.84.01,3.29-2.57,5.95-5.76,5.94-3.57-.01-5.85-2.18-5.93-5.63-.08-3.64,2.33-6.15,5.9-6.16Z"/><path class="cls-3" d="m807.17,572.19c0,3.37-2.51,5.9-5.84,5.89-2.93-.01-6.13-3.14-6.08-5.95.05-2.79,3.36-6.01,6.13-5.96,3.2.06,5.79,2.75,5.79,6.02Z"/><path class="cls-3" d="m649.56,520.87c-3.71.04-5.94-1.95-6.07-5.42-.14-3.71,2.18-6,6.02-5.94,3.37.05,6.03,2.54,6.03,5.67,0,3.21-2.56,5.65-5.97,5.69Z"/><path class="cls-3" d="m157.71,578.08c-3.24-.04-5.87-2.7-5.86-5.93.02-3.19,2.73-5.97,5.84-5.99,2.85-.01,5.97,3.13,5.97,6.01,0,3.13-2.84,5.95-5.95,5.91Z"/><path class="cls-3" d="m138.75,585.08c3.24-.03,5.67,2.52,5.66,5.92-.01,3.01-2.49,5.52-5.52,5.59-3.02.07-6.07-2.77-6.12-5.7-.05-2.96,2.85-5.78,5.99-5.8Z"/><path class="cls-3" d="m852.68,590.98c-.02-3.4,2.43-5.95,5.66-5.9,3.21.05,5.89,2.69,5.92,5.84.03,2.91-3.04,5.76-6.09,5.66-3.08-.1-5.47-2.55-5.49-5.6Z"/><path class="cls-3" d="m301.64,628.46c.09-3.3,2.75-5.81,5.95-5.62,3,.18,5.82,3.25,5.64,6.16-.17,2.78-3.04,5.47-5.87,5.5-2.95.03-5.81-2.99-5.72-6.04Z"/><path class="cls-3" d="m548.81,627.97c.29-3.32,3.04-5.53,6.35-5.11,2.82.36,5.35,3.38,5.12,6.09-.27,3.12-3.21,5.62-6.34,5.38-3.31-.26-5.44-2.89-5.13-6.36Z"/><path class="cls-3" d="m706.29,622.78c3.13-.03,5.97,2.81,5.93,5.92-.04,2.79-2.86,5.6-5.73,5.72-2.81.11-5.77-2.64-5.91-5.5-.15-3.12,2.64-6.12,5.71-6.15Z"/><path class="cls-3" d="m57.07,628.82c-.06-3.37,2.46-6.06,5.65-6.05,2.99.01,5.53,2.53,5.66,5.6.13,3.23-2.59,6.13-5.66,6.05-3.16-.08-5.59-2.49-5.65-5.6Z"/><path class="cls-3" d="m220.49,590.81c.02,3.21-2.7,5.87-5.93,5.79-2.89-.07-5.56-2.76-5.62-5.69-.06-2.93,2.53-5.68,5.48-5.8,3.16-.13,6.05,2.58,6.07,5.7Z"/><path class="cls-3" d="m776.57,590.82c-.02-3.06,2.92-5.82,6.07-5.71,2.94.1,5.54,2.85,5.5,5.79-.05,2.93-2.7,5.63-5.61,5.7-3.21.08-5.94-2.57-5.96-5.78Z"/><path class="cls-3" d="m649.19,622.74c3.22-.03,5.93,2.56,6.02,5.76.08,2.97-2.44,5.43-5.62,5.5-3.22.07-5.81-2.19-5.94-5.18-.15-3.3,2.35-6.05,5.55-6.08Z"/><path class="cls-3" d="m326.46,615.21c-3.38.01-5.81-2.08-5.96-5.14-.14-3.01,2.69-5.94,5.78-5.97,3.22-.03,5.93,2.63,5.88,5.78-.05,3.08-2.44,5.32-5.71,5.33Z"/><path class="cls-3" d="m744.39,615.19c-3.13,0-5.58-2.43-5.6-5.54-.02-3.25,2.2-5.51,5.47-5.57,3.33-.06,6.1,2.57,5.98,5.66-.11,2.92-2.83,5.45-5.85,5.44Z"/><path class="cls-3" d="m649.28,566.12c3.03-.02,5.96,2.92,5.87,5.89-.1,3.18-2.42,5.37-5.68,5.38-3.24.01-5.73-2.22-5.82-5.24-.1-3.25,2.48-6.01,5.63-6.03Z"/><path class="cls-3" d="m345.55,566.12c2.74.1,5.66,3.01,5.66,5.67,0,3.16-2.72,5.69-6.01,5.59-3.21-.1-5.61-2.47-5.57-5.49.05-3.21,2.79-5.88,5.91-5.77Z"/><path class="cls-3" d="m30.13,572.1c.07,3.22-2.15,5.68-5.26,5.85-2.93.16-5.57-2.35-5.73-5.46-.15-2.96,2.4-5.72,5.37-5.83,3.12-.11,5.55,2.24,5.62,5.43Z"/><path class="cls-3" d="m668.59,566.67c2.92.11,5.58,2.95,5.45,5.82-.14,3.06-2.79,5.58-5.76,5.46-3.06-.12-5.36-2.65-5.31-5.85.05-3.25,2.43-5.55,5.62-5.43Z"/><path class="cls-3" d="m345.27,520.75c-3.21-.04-5.6-2.37-5.63-5.5-.03-3.17,2.76-5.77,6.05-5.64,2.89.12,5.66,3.04,5.51,5.82-.16,3.02-2.76,5.35-5.93,5.32Z"/><path class="cls-3" d="m106.37,610.07c-.25,3.03-2.91,5.31-5.99,5.12-3.29-.2-5.54-2.93-5.18-6.32.33-3.14,2.83-5.07,6.15-4.77,3.19.29,5.28,2.78,5.01,5.97Z"/><path class="cls-3" d="m616.69,628.46c.02,3.5-1.9,5.48-5.3,5.45-3.12-.02-5.67-2.39-5.76-5.34-.09-3.12,2.65-5.85,5.86-5.82,3.14.03,5.19,2.27,5.2,5.71Z"/><path class="cls-3" d="m616.69,609.44c.03,3.46-1.95,5.66-5.16,5.73-3.2.07-6.01-2.64-5.91-5.73.09-3.07,2.5-5.34,5.69-5.37,3.47-.03,5.35,1.84,5.38,5.37Z"/><path class="cls-3" d="m397.01,628.83c-.05-3.17,2.29-5.75,5.25-5.81,3.02-.06,5.74,2.84,5.67,6.03-.07,2.88-2.81,5.58-5.66,5.58-2.88,0-5.22-2.58-5.26-5.8Z"/><path class="cls-3" d="m350.85,610.08c-.21,3.12-2.88,5.41-5.96,5.1-3.09-.3-5.34-2.94-5.14-6.04.19-3,2.91-5.26,6.06-5.04,3.16.22,5.27,2.71,5.05,5.97Z"/><path class="cls-3" d="m806.87,590.92c0,3.21-2.34,5.64-5.48,5.68-3,.04-5.57-2.61-5.48-5.66.1-3.29,2.37-5.4,5.73-5.31,3.1.08,5.23,2.23,5.24,5.28Z"/><path class="cls-3" d="m157.72,585.63c3.44-.04,5.4,1.99,5.33,5.53-.05,3.01-2.32,5.39-5.17,5.44-3.04.06-5.8-2.54-5.79-5.46,0-3.1,2.43-5.48,5.63-5.51Z"/><path class="cls-3" d="m692.82,647.6c.02,3.05-2.52,5.53-5.61,5.48-3.03-.05-5.51-2.68-5.42-5.74.08-2.86,2.41-5.03,5.46-5.09,3.36-.06,5.55,2.05,5.57,5.35Z"/><path class="cls-3" d="m858.31,633.91c-3.18,0-5.66-2.45-5.54-5.49.11-2.82,2.55-5.33,5.31-5.46,2.99-.14,5.63,2.38,5.7,5.44.07,3.2-2.21,5.5-5.47,5.51Z"/><path class="cls-3" d="m384.05,585.29c3.05.38,5.28,3.25,4.83,6.22-.4,2.64-3.41,5.05-5.97,4.79-2.86-.3-5.42-3.39-5.1-6.16.35-2.97,3.25-5.22,6.24-4.85Z"/><path class="cls-3" d="m350.76,552.88c.1,3.09-2.31,5.64-5.38,5.69-2.79.04-5.32-2.34-5.5-5.17-.2-3.14,2.11-5.74,5.19-5.86,3.13-.12,5.59,2.18,5.69,5.34Z"/><path class="cls-3" d="m214.71,633.91c-3.42,0-5.46-2.04-5.4-5.42.05-2.87,2.42-5.39,5.15-5.5,2.81-.11,5.66,2.61,5.79,5.5.13,3.06-2.28,5.42-5.54,5.42Z"/><path class="cls-3" d="m176.77,634.01c-3.27.07-5.31-1.77-5.43-4.87-.12-3.09,2.29-5.96,5.09-6.04,2.88-.09,5.96,3.02,5.89,5.95-.06,2.74-2.48,4.9-5.55,4.96Z"/><path class="cls-3" d="m43.54,642.25c3.2-.07,5.68,2.21,5.75,5.28.07,3.03-2.4,5.49-5.55,5.52-2.85.02-5.31-2.3-5.42-5.12-.13-3.26,2.03-5.61,5.22-5.68Z"/><path class="cls-3" d="m825.84,628.91c0,3.06-2.1,5.06-5.34,5.1-3.28.04-5.78-2.31-5.68-5.36.09-2.67,2.86-5.48,5.4-5.48,2.7,0,5.62,2.99,5.62,5.73Z"/><path class="cls-3" d="m644.32,590.93c-.1-3.34,1.72-5.32,4.91-5.34,2.93-.02,5.44,2.28,5.5,5.05.06,2.7-2.48,5.44-5.16,5.54-2.84.11-5.16-2.2-5.25-5.24Z"/><path class="cls-3" d="m100.52,652.19c-2.89-.1-5.05-2.28-4.97-5.01.08-2.68,2.56-5.01,5.19-4.89,2.91.13,4.79,2.18,4.74,5.17-.05,3.17-1.81,4.85-4.97,4.74Z"/><path class="cls-3" d="m744.61,652.19c-3.01.11-5.13-1.77-5.25-4.65-.12-2.83,1.95-5.13,4.73-5.26,2.65-.12,5.14,2.14,5.28,4.8.16,2.93-1.78,5.01-4.76,5.11Z"/><path class="cls-3" d="m558.92,647.62c-.05,2.58-2.23,4.67-4.73,4.53-2.37-.13-4.61-2.59-4.47-4.91.14-2.33,2.1-4.1,4.6-4.14,2.73-.05,4.66,1.85,4.6,4.53Z"/><path class="cls-3" d="m858.31,614.32c-2.37-.09-4.72-2.62-4.55-4.91.17-2.34,2.24-4.16,4.73-4.15,2.53.01,4.39,1.85,4.39,4.32,0,2.71-2.04,4.83-4.56,4.73Z"/><path class="cls-3" d="m210.39,609.8c-.07-2.66,1.53-4.44,4.06-4.54,2.55-.09,4.79,1.96,4.89,4.48.09,2.32-2.33,4.65-4.77,4.59-2.41-.06-4.12-1.91-4.18-4.53Z"/><path class="cls-3" d="m345.11,595.03c-2.57-.09-4.41-1.86-4.43-4.27-.02-2.45,2.26-4.63,4.77-4.55,2.6.08,4.54,2.27,4.34,4.89-.19,2.51-2,4.03-4.67,3.93Z"/><path class="cls-3" d="m649.36,643c2.68.01,4.38,1.64,4.41,4.21.03,2.69-2.03,4.9-4.47,4.79-2.36-.11-4.71-2.6-4.6-4.89.11-2.36,2.11-4.12,4.67-4.11Z"/><path class="cls-3" d="m214.84,651.49c-2.49.05-4.09-1.39-4.24-3.8-.15-2.42,1.35-4.14,3.74-4.28,2.6-.16,4.47,1.54,4.46,4.07,0,2.51-1.44,3.97-3.97,4.02Z"/><path class="cls-3" d="m858.28,651.48c-2.63-.01-3.89-1.38-3.82-4.11.07-2.48,1.72-4.08,4.11-3.97,2.3.11,4.19,2.05,4.08,4.21-.11,2.26-1.95,3.88-4.37,3.86Z"/><path class="cls-3" d="m349.52,534.33c-.11,2.07-2.31,4-4.39,3.86-2.06-.14-4.08-2.34-3.99-4.35.09-1.93,2.39-3.88,4.48-3.8,2.19.09,4.02,2.1,3.9,4.29Z"/><path class="cls-3" d="m157.86,624.62c2.2.1,4.05,2.1,3.96,4.27-.09,2.31-1.96,4.07-4.2,3.98-2.22-.09-4.03-2.02-3.98-4.24.05-2.13,2.13-4.11,4.22-4.01Z"/><path class="cls-3" d="m653.53,533.87c.05,2.1-1.83,4.16-3.95,4.32-2.17.16-4.14-1.65-4.22-3.88-.08-2.24,1.63-4.14,3.86-4.27,2.2-.14,4.25,1.7,4.31,3.84Z"/><path class="cls-3" d="m535.15,624.51c2.22-.11,4.13,1.63,4.25,3.86.12,2.23-1.63,4.13-3.9,4.25-2.09.11-4.25-1.83-4.3-3.88-.06-2.15,1.78-4.12,3.95-4.23Z"/><path class="cls-3" d="m645.42,552.99c-.04-2.3,1.72-4.22,3.89-4.24,2.09-.02,4.08,1.91,4.2,4.06.12,2.2-1.68,4.07-3.97,4.12-2.34.05-4.07-1.61-4.12-3.94Z"/><path class="cls-3" d="m801.22,632.86c-2.06-.12-4.16-2.28-4.1-4.22.06-1.97,2.27-4.03,4.31-4.01,2.16.02,3.97,1.97,3.92,4.22-.06,2.25-1.99,4.13-4.12,4.01Z"/><path class="cls-3" d="m786.3,647.23c.12,1.98-1.57,3.95-3.54,4.13-2.11.2-4-1.28-4.25-3.34-.26-2.15,1.58-4.36,3.71-4.46,1.9-.09,3.97,1.77,4.08,3.66Z"/><path class="cls-3" d="m142.5,647.45c-.03,2.26-1.9,4.05-4.12,3.93-2.05-.11-3.41-1.79-3.31-4.11.09-2.23,1.72-3.84,3.75-3.71,2.11.13,3.71,1.82,3.69,3.89Z"/><path class="cls-3" d="m326.12,645.19c1.37.15,2.24.87,2.26,2.3.02,1.21-.58,2.02-1.89,2.06-1.48.04-2.31-.82-2.34-2.19-.03-1.18.8-1.89,1.98-2.17Z"/><path class="cls-3" d="m613.56,572.08c-.26,1.21-.97,2.01-2.19,1.99-1.17-.02-2.17-.72-2.1-1.97.07-1.35.92-2.29,2.41-2.18,1.27.09,1.81.98,1.88,2.16Z"/><path class="cls-3" d="m364.33,645.02c1.42.31,2.18,1.07,2.13,2.22-.06,1.4-1.09,2.16-2.42,2.1-1.19-.05-1.94-.98-1.88-2.12.07-1.37,1.07-2.02,2.16-2.2Z"/><path class="cls-3" d="m6.77,640.81c3.57.03,6.62,3.2,6.59,6.84-.03,3.64-2.83,6.36-6.47,6.27-3.83-.1-6.53-2.64-6.59-6.22-.06-3.85,2.82-6.93,6.47-6.89Z"/><path class="cls-3" d="m1.15,628.82c-.06-3.37,2.46-6.06,5.65-6.05,2.99.01,5.53,2.53,5.66,5.6.13,3.23-2.59,6.13-5.66,6.05-3.16-.08-5.59-2.49-5.65-5.6Z"/><path class="cls-3" d="m876.45,651.48c-2.63-.01-3.89-1.38-3.82-4.11.07-2.48,1.72-4.08,4.11-3.97,2.3.11,4.19,2.05,4.08,4.21-.11,2.26-1.95,3.88-4.37,3.86Z"/><path class="cls-3" d="m939.7,609.94c-.05,3.67-3.19,6.8-6.79,6.78-3.99-.03-7.03-3.12-6.95-7.08.07-3.64,3.66-7,7.3-6.82,3.64.18,6.5,3.34,6.45,7.12Z"/><path class="cls-3" d="m1072.62,591.08c-.07,4.15-2.92,6.86-7.07,6.73-3.67-.12-6.7-3.27-6.61-6.86.09-3.74,3.6-7.06,7.22-6.84,3.78.23,6.52,3.2,6.46,6.98Z"/><path class="cls-3" d="m1085.02,654.26c-3.93.09-6.72-2.52-6.89-6.44-.17-3.9,2.93-7.29,6.66-7.29,3.58,0,7.15,3.54,7.17,7.09.01,3.44-3.25,6.55-6.94,6.63Z"/><path class="cls-3" d="m913.92,527.47c3.62.1,7.09,3.67,7.01,7.23-.08,3.75-3.45,6.68-7.45,6.48-3.94-.2-6.52-3.01-6.37-6.95.14-3.66,3.34-6.85,6.81-6.75Z"/><path class="cls-3" d="m1034.41,609.75c0,3.82-2.56,6.36-6.42,6.39-3.91.03-6.49-2.43-6.51-6.22-.02-4.02,2.71-6.84,6.58-6.79,3.44.05,6.36,3.09,6.35,6.62Z"/><path class="cls-3" d="m951.86,640.81c3.57.03,6.62,3.2,6.59,6.84-.03,3.64-2.83,6.36-6.47,6.27-3.83-.1-6.53-2.64-6.59-6.22-.06-3.85,2.82-6.93,6.47-6.89Z"/><path class="cls-3" d="m920.19,629.48c-.4,3.48-3.76,6.12-7.15,5.61-3.2-.48-5.81-3.81-5.42-6.93.46-3.7,3.32-5.88,7.18-5.47,3.26.35,5.77,3.51,5.4,6.79Z"/><path class="cls-3" d="m1053.12,647.64c-.03,3.39-2.76,6.08-6.24,6.15-3.68.08-5.94-2.24-5.97-6.12-.03-3.82,2.23-6.34,5.75-6.4,3.72-.07,6.49,2.66,6.46,6.37Z"/><path class="cls-3" d="m989.52,634.67c-3.05-.07-5.93-3.31-5.81-6.54.13-3.47,2.71-5.67,6.52-5.55,3.54.12,6.08,2.82,5.87,6.24-.19,3.16-3.29,5.92-6.58,5.85Z"/><path class="cls-3" d="m1040.96,553.49c-.11-3.52,2.08-6.08,5.38-6.29,3.35-.22,6.6,2.49,6.75,5.63.15,3.09-2.87,6.55-5.83,6.68-3.37.15-6.19-2.54-6.29-6.01Z"/><path class="cls-3" d="m914.02,653.44c-4.03.07-6.02-1.85-5.99-5.81.02-3.35,2.43-6.08,5.5-6.24,3.12-.16,6.62,3.29,6.56,6.47-.06,3.18-2.6,5.51-6.07,5.57Z"/><path class="cls-3" d="m913.68,616.01c-3.43-.1-5.83-2.84-5.65-6.44.17-3.32,2.77-5.9,5.87-5.84,3.18.07,6.27,3.2,6.18,6.26-.09,3.16-3.24,6.11-6.41,6.02Z"/><path class="cls-3" d="m1040.99,609.88c-.03-3.38,2.35-6.04,5.53-6.19,3.24-.15,6.49,2.73,6.57,5.83.08,3.33-3.13,6.52-6.5,6.46-3.2-.06-5.56-2.64-5.59-6.1Z"/><path class="cls-3" d="m908.11,553.66c-.08-3.81,1.77-5.97,5.26-6.12,3.64-.16,6.4,2.18,6.57,5.56.16,3.08-2.86,6.25-6.06,6.39-3.14.13-5.7-2.45-5.77-5.83Z"/><path class="cls-3" d="m926.82,628.03c.41-3.24,3.63-5.66,6.98-5.25,3.15.39,5.36,3.32,4.96,6.6-.41,3.37-3.56,5.82-6.85,5.31-3.06-.47-5.48-3.64-5.09-6.65Z"/><path class="cls-3" d="m1071.81,609.98c0,3.39-2.87,6.14-6.21,5.99-2.96-.14-5.89-3.18-5.84-6.06.06-3.13,2.7-5.74,5.89-5.82,3.6-.09,6.17,2.38,6.16,5.89Z"/><path class="cls-3" d="m1033.69,628.76c-.05,3.13-2.72,5.82-5.84,5.88-2.86.06-5.94-2.96-6.01-5.88-.07-3.17,3.01-6.13,6.26-6.02,3.3.11,5.63,2.63,5.58,6.01Z"/><path class="cls-3" d="m1046.89,578.08c-3.24-.04-5.87-2.7-5.86-5.93.02-3.19,2.73-5.97,5.84-5.99,2.85-.01,5.97,3.13,5.97,6.01,0,3.13-2.84,5.95-5.95,5.91Z"/><path class="cls-3" d="m1027.92,585.08c3.24-.03,5.67,2.52,5.66,5.92-.01,3.01-2.49,5.52-5.52,5.59-3.02.07-6.07-2.77-6.12-5.7-.05-2.96,2.85-5.78,5.99-5.8Z"/><path class="cls-3" d="m946.25,628.82c-.06-3.37,2.46-6.06,5.65-6.05,2.99.01,5.53,2.53,5.66,5.6.13,3.23-2.59,6.13-5.66,6.05-3.16-.08-5.59-2.49-5.65-5.6Z"/><path class="cls-3" d="m1109.66,590.81c.02,3.21-2.7,5.87-5.93,5.79-2.89-.07-5.56-2.76-5.62-5.69-.06-2.93,2.53-5.68,5.48-5.8,3.16-.13,6.05,2.58,6.07,5.7Z"/><path class="cls-3" d="m919.31,572.1c.07,3.22-2.15,5.68-5.26,5.85-2.93.16-5.57-2.35-5.73-5.46-.15-2.96,2.4-5.72,5.37-5.83,3.12-.11,5.55,2.24,5.62,5.43Z"/><path class="cls-3" d="m995.55,610.07c-.25,3.03-2.91,5.31-5.99,5.12-3.29-.2-5.54-2.93-5.18-6.32.33-3.14,2.83-5.07,6.15-4.77,3.19.29,5.28,2.78,5.01,5.97Z"/><path class="cls-3" d="m1046.89,585.63c3.44-.04,5.4,1.99,5.33,5.53-.05,3.01-2.32,5.39-5.17,5.44-3.04.06-5.8-2.54-5.79-5.46,0-3.1,2.43-5.48,5.63-5.51Z"/><path class="cls-3" d="m1103.88,633.91c-3.42,0-5.46-2.04-5.4-5.42.05-2.87,2.42-5.39,5.15-5.5,2.81-.11,5.66,2.61,5.79,5.5.13,3.06-2.28,5.42-5.54,5.42Z"/><path class="cls-3" d="m1065.95,634.01c-3.27.07-5.31-1.77-5.43-4.87-.12-3.09,2.29-5.96,5.09-6.04,2.88-.09,5.96,3.02,5.89,5.95-.06,2.74-2.48,4.9-5.55,4.96Z"/><path class="cls-3" d="m932.72,642.25c3.2-.07,5.68,2.21,5.75,5.28.07,3.03-2.4,5.49-5.55,5.52-2.85.02-5.31-2.3-5.42-5.12-.13-3.26,2.03-5.61,5.22-5.68Z"/><path class="cls-3" d="m989.69,652.19c-2.89-.1-5.05-2.28-4.97-5.01.08-2.68,2.56-5.01,5.19-4.89,2.91.13,4.79,2.18,4.74,5.17-.05,3.17-1.81,4.85-4.97,4.74Z"/><path class="cls-3" d="m1099.56,609.8c-.07-2.66,1.53-4.44,4.06-4.54,2.55-.09,4.79,1.96,4.89,4.48.09,2.32-2.33,4.65-4.77,4.59-2.41-.06-4.12-1.91-4.18-4.53Z"/><path class="cls-3" d="m1104.02,651.49c-2.49.05-4.09-1.39-4.24-3.8-.15-2.42,1.35-4.14,3.74-4.28,2.6-.16,4.47,1.54,4.46,4.07,0,2.51-1.44,3.97-3.97,4.02Z"/><path class="cls-3" d="m1047.03,624.62c2.2.1,4.05,2.1,3.96,4.27-.09,2.31-1.96,4.07-4.2,3.98-2.22-.09-4.03-2.02-3.98-4.24.05-2.13,2.13-4.11,4.22-4.01Z"/><path class="cls-3" d="m1031.67,647.45c-.03,2.26-1.9,4.05-4.12,3.93-2.05-.11-3.41-1.79-3.31-4.11.09-2.23,1.72-3.84,3.75-3.71,2.11.13,3.71,1.82,3.69,3.89Z"/><path class="cls-3" d="m895.94,640.81c3.57.03,6.62,3.2,6.59,6.84-.03,3.64-2.83,6.36-6.47,6.27-3.83-.1-6.53-2.64-6.59-6.22-.06-3.85,2.82-6.93,6.47-6.89Z"/><path class="cls-3" d="m890.33,628.82c-.06-3.37,2.46-6.06,5.65-6.05,2.99.01,5.53,2.53,5.66,5.6.13,3.23-2.59,6.13-5.66,6.05-3.16-.08-5.59-2.49-5.65-5.6Z"/></g></svg>