<?xml version="1.0" encoding="UTF-8"?><svg id="Layer_1" xmlns="http://www.w3.org/2000/svg" xmlns:xlink="http://www.w3.org/1999/xlink" viewBox="0 0 1152 648"><defs><style>.cls-1,.cls-2,.cls-3{fill:none;}.cls-2{clip-path:url(#clippath-1);}.cls-4{fill:#419599;}.cls-5{fill:#9a4665;}.cls-3{clip-path:url(#clippath);}</style><clipPath id="clippath"><rect class="cls-1" y="-668.44" width="1152" height="648"/></clipPath><clipPath id="clippath-1"><rect class="cls-1" width="1152" height="648"/></clipPath></defs><g class="cls-3"><path class="cls-5" d="m24.79,28.5c4.16,0,7.23,3.2,7.12,7.42-.1,3.89-3.19,7.04-7.07,7.19-3.58.14-7.63-3.8-7.59-7.38.04-3.96,3.45-7.23,7.54-7.23Z"/><path class="cls-5" d="m661.15,35.49c.08-4.08,3.36-7.11,7.57-6.98,3.87.12,7.04,3.39,6.97,7.2-.06,3.85-3.79,7.56-7.45,7.44-3.95-.13-7.16-3.6-7.09-7.66Z"/><path class="cls-5" d="m687.38,136.82c-3.95.03-6.65-2.64-6.75-6.66-.1-4.18,2.71-7.11,6.82-7.09,3.72.01,6.82,3,6.95,6.69.13,3.88-3,7.03-7.02,7.06Z"/><path class="cls-5" d="m428.32,129.73c-.05,4.13-2.9,7.01-6.95,7.02-3.88.01-7.12-3.23-7.02-7,.11-3.92,3.29-6.89,7.25-6.76,3.86.12,6.77,3.04,6.72,6.75Z"/><path class="cls-5" d="m50.52,130.01c0,3.8-2.93,6.8-6.66,6.82-4,.02-7.14-3.06-7.09-6.95.05-3.85,3.28-6.88,7.27-6.8,3.84.07,6.48,2.89,6.47,6.93Z"/><path class="cls-5" d="m43.99,85.27c3.6.1,6.6,3.31,6.54,7-.07,4.22-2.84,6.82-7.12,6.68-3.83-.13-6.7-3.07-6.63-6.81.07-3.95,3.26-6.99,7.21-6.88Z"/><path class="cls-5" d="m62.47,123.07c3.9-.09,7.18,3.03,7.25,6.89.07,3.72-2.87,6.69-6.72,6.8-4.14.12-7.09-2.71-7.09-6.8,0-3.92,2.75-6.81,6.55-6.9Z"/><path class="cls-5" d="m402.27,61.58c-3.84-.07-6.99-3.38-6.85-7.2.13-3.59,3.31-6.5,7.05-6.45,3.91.06,7.04,3.32,6.83,7.13-.2,3.67-3.35,6.6-7.03,6.53Z"/><path class="cls-5" d="m88.57,35.77c.02,3.63-3.05,6.61-6.8,6.62-3.8,0-6.89-2.87-6.97-6.46-.08-3.82,3.1-7.22,6.81-7.28,3.7-.06,6.94,3.26,6.96,7.13Z"/><path class="cls-5" d="m656.44,35.48c-.02,3.79-3.33,6.89-7.27,6.81-3.67-.07-6.58-3.17-6.55-6.96.03-3.81,2.98-6.82,6.67-6.81,3.91.01,7.18,3.18,7.16,6.96Z"/><path class="cls-5" d="m827.34,73.42c-.04,3.58-3.19,6.77-6.76,6.85-3.76.08-7.02-3.22-6.95-7.04.07-3.81,2.91-6.66,6.69-6.71,3.91-.06,7.06,3.04,7.02,6.91Z"/><path class="cls-5" d="m176.83,66.52c3.88.02,6.57,2.74,6.62,6.7.05,3.85-3.16,7.12-6.92,7.05-3.55-.07-6.73-3.27-6.78-6.83-.05-3.83,3.13-6.94,7.08-6.92Z"/><path class="cls-5" d="m164.68,74.14c-.43,3.78-4.05,6.59-7.9,6.12-3.62-.43-6.25-3.8-5.87-7.53.38-3.81,4.02-6.69,7.77-6.16,3.55.5,6.4,4.1,6,7.57Z"/><path class="cls-5" d="m808.12,73.7c-.1,4.11-3.09,6.82-7.27,6.59-3.69-.2-6.6-3.42-6.43-7.09.18-3.69,3.25-6.64,6.93-6.66,3.89-.02,6.86,3.13,6.76,7.17Z"/><path class="cls-5" d="m630.16,122.98c4.19-.09,6.81,2.56,6.82,6.9,0,3.92-2.64,6.72-6.49,6.86-3.68.13-6.79-2.75-7-6.5-.22-3.9,2.79-7.18,6.67-7.26Z"/><path class="cls-5" d="m706.28,136.75c-3.7-.05-6.86-3.1-6.93-6.69-.07-3.74,3.25-7.03,7.07-7,3.87.03,6.88,3.21,6.82,7.2-.06,3.71-3.1,6.54-6.96,6.49Z"/><path class="cls-5" d="m504.13,148.72c-.06,3.72-3.1,6.82-6.7,6.82-3.75,0-7.22-3.42-7.13-7.03.08-3.44,3.46-6.8,6.88-6.86,3.8-.07,7.01,3.21,6.95,7.07Z"/><path class="cls-5" d="m231.57,141.65c3.8.14,6.9,3.61,6.64,7.43-.25,3.66-3.43,6.53-7.1,6.41-3.72-.12-6.72-3.2-6.66-6.84.06-3.8,3.46-7.14,7.13-7Z"/><path class="cls-5" d="m326.24,66.44c3.92-.03,6.93,3.07,6.86,7.05-.07,3.72-3.14,6.73-6.79,6.65-3.8-.08-6.85-2.98-6.94-6.6-.1-3.82,3.04-7.07,6.87-7.1Z"/><path class="cls-5" d="m808.14-2.01c.04,3.91-3.09,7.02-7,6.94-3.41-.07-6.71-3.44-6.75-6.91-.04-3.54,3.04-6.61,6.74-6.72,4.3-.12,6.96,2.42,7.01,6.68Z"/><path class="cls-5" d="m257.39,16.68c.11,3.52-3.44,7.03-7.13,7.05-3.59.02-6.51-3.05-6.54-6.89-.03-4.03,2.53-6.83,6.38-6.98,3.8-.15,7.17,3,7.29,6.82Z"/><path class="cls-5" d="m126.75-1.87c0,3.51-3.21,6.68-6.85,6.78-3.95.11-7.1-2.96-7.09-6.9.01-3.65,3.02-6.64,6.75-6.72,3.89-.08,7.2,3.06,7.19,6.83Z"/><path class="cls-5" d="m352.48,73.22c.02,3.35-3.47,6.8-6.96,6.87-3.74.08-6.72-2.85-6.84-6.76-.13-4.05,2.45-6.81,6.45-6.89,3.89-.08,7.32,3.09,7.35,6.77Z"/><path class="cls-5" d="m763.34-8.69c4.11-.03,6.66,2.4,6.76,6.44.1,3.8-2.72,7.04-6.25,7.18-3.74.15-7.48-3.15-7.55-6.66-.07-3.81,3.09-6.94,7.04-6.96Z"/><path class="cls-5" d="m687.64,85.29c3.67.13,6.96,3.76,6.73,7.41-.24,3.67-3.33,6.37-7.16,6.25-4.2-.13-6.77-2.93-6.57-7.17.17-3.69,3.33-6.61,7-6.49Z"/><path class="cls-5" d="m782.19,117.57c-4.05-.08-6.63-2.69-6.6-6.66.04-3.86,3.37-7.17,7.07-7.02,3.25.14,6.7,3.76,6.7,7.02,0,3.99-2.96,6.74-7.17,6.66Z"/><path class="cls-5" d="m157.83,4.93c-3.74.05-6.79-2.91-6.91-6.69-.12-3.84,2.66-6.8,6.51-6.94,3.98-.14,7.22,2.87,7.26,6.76.04,3.41-3.37,6.83-6.86,6.87Z"/><path class="cls-5" d="m195.59,61.4c-3.69,0-6.69-3.11-6.64-6.88.05-4.06,2.69-6.7,6.68-6.69,3.84.01,7.05,2.91,7.16,6.45.11,3.53-3.52,7.12-7.2,7.11Z"/><path class="cls-5" d="m725.72,28.65c3.48.11,6.27,3.37,6.24,7.27-.04,4.02-2.72,6.58-6.78,6.47-3.91-.1-6.87-3.07-6.77-6.77.11-3.71,3.64-7.09,7.31-6.98Z"/><path class="cls-5" d="m846.23,54.58c-.05,3.65-3.16,6.79-6.8,6.88-3.56.08-7.23-3.68-7.04-7.22.2-3.68,3.36-6.51,7.15-6.41,3.98.11,6.74,2.9,6.68,6.75Z"/><path class="cls-5" d="m100.75,103.86c3.53,0,6.57,3.16,6.63,6.92.07,4.19-2.33,6.73-6.43,6.79-4.4.07-6.97-2.48-6.89-6.83.07-3.71,3.16-6.89,6.69-6.89Z"/><path class="cls-5" d="m145.49,110.73c.09,4.08-2.38,6.68-6.49,6.84-3.99.16-6.96-2.46-7.13-6.28-.16-3.7,3.31-7.44,6.85-7.39,3.73.06,6.69,3.04,6.77,6.83Z"/><path class="cls-5" d="m345.55-8.79c3.8.1,7.03,3.18,6.92,6.61-.11,3.76-3.46,6.76-7.44,6.65-3.97-.1-6.53-2.88-6.37-6.92.17-4.13,2.69-6.45,6.88-6.34Z"/><path class="cls-5" d="m459.1,47.81c4.14-.07,6.86,2.38,6.99,6.3.14,4.31-2.43,6.93-6.79,6.91-3.77-.02-6.93-2.97-6.99-6.53-.06-3.65,2.96-6.62,6.79-6.69Z"/><path class="cls-5" d="m751.27,110.97c-.02,3.86-2.85,6.61-6.81,6.61-3.68,0-7.04-3.12-7.05-6.55,0-3.6,3.69-7.28,7.18-7.13,3.49.15,6.69,3.53,6.68,7.07Z"/><path class="cls-5" d="m598.92,54.29c.09,3.57-2.67,6.5-6.24,6.64-3.7.14-6.53-2.45-6.68-6.11-.16-3.71,2.43-6.52,6.12-6.68,3.44-.15,6.72,2.82,6.8,6.16Z"/><path class="cls-5" d="m554.24,42.08c-3.41-.03-6.29-3.14-6.22-6.7.07-3.51,2.6-5.93,6.26-5.98,3.85-.05,6.45,2.47,6.44,6.24,0,3.47-3.02,6.47-6.48,6.44Z"/><path class="cls-5" d="m427.78,92.34c-.02,3.28-2.9,6.04-6.34,6.08-3.52.04-6.28-2.55-6.37-5.96-.1-3.84,2.45-6.48,6.26-6.5,3.78-.02,6.47,2.64,6.45,6.38Z"/><path class="cls-5" d="m326.28,60.83c-3.4.02-6.13-2.71-6.21-6.19-.09-3.77,2.59-6.51,6.36-6.49,3.26.02,6.34,2.96,6.42,6.15.09,3.26-3.18,6.51-6.57,6.53Z"/><path class="cls-5" d="m611.23,4.09c-3.6-.1-5.95-2.59-5.94-6.29.01-3.95,2.59-6.55,6.33-6.37,3.26.16,6.25,3.15,6.3,6.31.05,3.34-3.23,6.45-6.69,6.36Z"/><path class="cls-5" d="m145.2,73.27c.04,3.4-2.58,6-6.19,6.15-3.62.14-6.34-2.26-6.5-5.74-.17-3.59,2.72-6.85,6.07-6.86,3.45,0,6.57,3.04,6.62,6.45Z"/><path class="cls-5" d="m858.37,117.47c-3.41,0-6.51-3.2-6.39-6.61.11-3.17,3.29-6.18,6.45-6.1,3.24.09,6.29,3.06,6.35,6.18.06,3.57-2.83,6.52-6.4,6.52Z"/><path class="cls-5" d="m389.76-2.3c.07,3.23-2.77,6.19-6.09,6.37-3.43.19-6.58-2.76-6.71-6.28-.12-3.26,2.68-6.16,6.08-6.29,3.52-.14,6.65,2.75,6.72,6.2Z"/><path class="cls-5" d="m288.52,136.04c-3.64.06-6.22-2.3-6.37-5.84-.16-3.65,2.66-6.76,6.1-6.74,3.38.02,6.35,2.74,6.5,5.97.17,3.56-2.65,6.55-6.22,6.61Z"/><path class="cls-5" d="m630.06,22.78c-3.32-.1-6.1-3.01-6.04-6.33.06-3.25,3.48-6.56,6.63-6.4,3.09.15,6.14,3.37,6.13,6.47,0,3.34-3.26,6.37-6.73,6.27Z"/><path class="cls-5" d="m503.79,111.32c-.18,3.22-3.31,6.05-6.54,5.91-3.67-.16-6.41-3.11-6.19-6.67.19-3.11,3.47-6.15,6.48-6.01,3.38.15,6.44,3.47,6.25,6.77Z"/><path class="cls-5" d="m408.53,149.04c0,3.73-2.82,6.57-6.38,6.44-3.29-.13-5.91-3-5.93-6.49-.02-3.56,2.55-6.31,5.94-6.37,3.69-.07,6.37,2.63,6.36,6.43Z"/><path class="cls-5" d="m630.47,85.91c3.74.05,6.4,2.78,6.28,6.46-.11,3.39-2.79,5.78-6.46,5.76-3.65-.02-6.25-2.47-6.27-5.9-.02-3.61,2.79-6.36,6.45-6.32Z"/><path class="cls-5" d="m858.37,41.9c-3.49.04-6.32-2.6-6.4-5.96-.08-3.51,2.93-6.58,6.38-6.51,3.6.07,6.5,2.99,6.43,6.49-.06,3.26-2.94,5.94-6.41,5.98Z"/><path class="cls-5" d="m214.84,41.9c-3.72-.01-6.47-2.77-6.38-6.4.08-3.53,2.7-6.08,6.19-6.06,3.5.02,6.72,3.17,6.57,6.42-.16,3.41-2.95,6.06-6.38,6.05Z"/><path class="cls-5" d="m522.7,110.97c.02,3.65-2.84,6.51-6.39,6.4-3.44-.1-6.07-2.77-6.15-6.23-.08-3.48,3.02-6.62,6.4-6.48,3.21.13,6.13,3.13,6.15,6.31Z"/><path class="cls-5" d="m668.49,117.44c-3.31.1-6.15-2.57-6.35-5.96-.2-3.39,2.81-6.7,6.13-6.76,3.17-.06,6.29,2.84,6.46,6.02.18,3.34-2.85,6.6-6.24,6.7Z"/><path class="cls-5" d="m214.68,117.46c-3.31.02-6.08-2.73-6.2-6.14-.12-3.4,3.01-6.63,6.33-6.52,3.35.11,6.49,3.39,6.37,6.64-.11,3.09-3.26,6-6.5,6.02Z"/><path class="cls-5" d="m389.75,92.08c0,3.42-2.62,6.01-6.14,6.06-3.78.05-6.78-2.69-6.64-6.09.14-3.57,2.64-6.04,6.19-6.13,3.7-.1,6.59,2.6,6.59,6.17Z"/><path class="cls-5" d="m459.58,142.51c3.39.07,6.35,3.25,6.19,6.66-.15,3.27-2.93,5.57-6.66,5.51-3.67-.06-6.18-2.52-6.11-5.98.07-3.6,2.9-6.26,6.57-6.18Z"/><path class="cls-5" d="m655.7,148.61c.02,3.67-2.28,5.99-6.03,6.07-3.97.08-6.78-2.38-6.8-5.96-.02-3.25,3.3-6.34,6.73-6.27,3.55.08,6.08,2.63,6.1,6.16Z"/><path class="cls-5" d="m370.47,130.13c-.09,3.63-2.52,5.94-6.2,5.91-3.79-.04-6.32-2.68-6.18-6.45.13-3.58,3.05-6.13,6.78-5.92,3.6.2,5.7,2.63,5.6,6.46Z"/><path class="cls-5" d="m31.04,111.04c0,3.15-3.04,6.32-6.14,6.41-3.44.1-6.51-3.03-6.42-6.54.09-3.38,2.97-6.19,6.32-6.18,3.09,0,6.24,3.2,6.24,6.31Z"/><path class="cls-5" d="m579.47,54.16c0,3.49-2.62,6.38-5.9,6.5-3.37.12-6.4-2.99-6.36-6.52.04-3.58,2.54-6.04,6.17-6.04,3.69,0,6.1,2.39,6.1,6.06Z"/><path class="cls-5" d="m617.68,35.58c-.06,3.72-2.73,6.15-6.62,6.02-3.82-.13-5.84-2.29-5.79-6.2.05-3.93,2.49-6.21,6.47-6.05,3.6.15,6,2.66,5.94,6.23Z"/><path class="cls-5" d="m408.51,111.06c.07,3.56-2.4,6.25-5.87,6.41-3.63.16-6.43-2.6-6.42-6.34,0-3.32,2.9-6.28,6.13-6.28,3.38,0,6.09,2.74,6.16,6.22Z"/><path class="cls-5" d="m782.15,79.42c-3.61-.06-5.88-2.56-5.76-6.35.11-3.46,2.98-6.35,6.15-6.18,3.53.19,6.27,3.24,6.11,6.79-.15,3.46-2.8,5.8-6.5,5.73Z"/><path class="cls-5" d="m560.63,91.98c.08,3.46-2.5,6.01-6.12,6.05-3.57.04-6.28-2.48-6.34-5.91-.06-3.41,2.66-6.14,6.13-6.16,3.42-.02,6.24,2.66,6.32,6.01Z"/><path class="cls-5" d="m579.48,92.14c-.07,3.62-2.55,6.01-6.17,5.96-3.68-.05-6.08-2.43-6.09-6.03-.01-3.85,2.53-6.31,6.4-6.19,3.6.11,5.93,2.6,5.86,6.27Z"/><path class="cls-5" d="m864.52,92.32c-.12,3.56-2.73,5.92-6.4,5.8-3.63-.11-6.18-2.78-5.99-6.26.18-3.22,3.3-5.86,6.72-5.69,3.15.16,5.78,3.01,5.67,6.15Z"/><path class="cls-5" d="m636.56-2.22c-.01,3.2-3.13,6.16-6.38,6.06-3.12-.09-5.9-2.91-5.94-6-.04-3.23,3-6.37,6.13-6.32,3.35.05,6.2,2.93,6.19,6.26Z"/><path class="cls-5" d="m731.54,110.91c.07,3.36-2.74,6.09-6.23,6.06-3.23-.03-6.05-2.57-6.25-5.66-.21-3.12,3.21-6.47,6.6-6.46,2.93.01,5.82,2.98,5.89,6.06Z"/><path class="cls-5" d="m579.37,73.04c.02,3.6-2.54,6.21-6.07,6.16-3.44-.04-6.07-2.8-6-6.29.06-3.04,2.89-5.98,5.88-6.1,3.15-.13,6.17,2.91,6.19,6.22Z"/><path class="cls-5" d="m864.56,129.95c.04,3.46-2.63,6.05-6.24,6.06-3.35.01-6.3-2.93-6.2-6.18.09-3.05,2.93-5.78,6.09-5.85,3.55-.08,6.31,2.51,6.35,5.96Z"/><path class="cls-5" d="m176.48,154.65c-3.46-.07-6.13-2.89-5.95-6.3.16-3.14,2.95-5.8,6.1-5.82,3.2-.02,6.27,3.01,6.29,6.21.02,3.21-3,5.97-6.45,5.91Z"/><path class="cls-5" d="m864.54,54.44c.03,3.21-2.95,6.23-6.2,6.28-3.06.05-6.08-2.75-6.19-5.75-.12-3.14,2.87-6.38,6-6.52,3.35-.14,6.36,2.68,6.39,5.99Z"/><path class="cls-5" d="m649.54,123.86c3.46.05,6.12,2.82,6,6.26-.12,3.28-3.15,5.98-6.53,5.83-3.38-.15-5.6-2.58-5.58-6.1.03-3.76,2.35-6.04,6.12-5.98Z"/><path class="cls-5" d="m250.39,116.95c-3.39.03-5.92-2.38-6.02-5.73-.1-3.38,2.76-6.34,6.07-6.27,3.08.07,6.03,2.86,6.18,5.85.16,3.21-2.8,6.12-6.24,6.15Z"/><path class="cls-5" d="m725.57,48.77c3.45.06,5.97,2.49,5.95,5.76-.02,3.2-3.2,6.31-6.33,6.17-2.83-.13-6.06-3.31-6.12-6.04-.07-3.06,3.12-5.94,6.5-5.89Z"/><path class="cls-5" d="m845.31,130.04c-.1,3.63-2.71,6.1-6.26,5.9-3.24-.18-5.86-2.83-5.91-5.99-.06-3.3,2.8-6.1,6.21-6.08,3.65.02,6.05,2.5,5.95,6.17Z"/><path class="cls-5" d="m220.65,129.8c.1,3.69-2.24,6.17-5.89,6.22-3.55.04-6.23-2.54-6.21-6.01.02-3.41,2.73-6.02,6.27-6.03,3.35-.01,5.73,2.38,5.83,5.82Z"/><path class="cls-5" d="m214.6,86.16c3.62-.05,6.08,2.41,6.05,6.06-.03,3.51-2.21,5.76-5.7,5.9-3.64.15-6.33-2.26-6.39-5.73-.06-3.46,2.58-6.18,6.04-6.23Z"/><path class="cls-5" d="m24.52,98.38c-3.52-.04-5.79-2.61-5.66-6.42.12-3.43,2.5-5.82,5.82-5.84,3.13-.02,6.24,3.09,6.22,6.23-.02,3.17-3.09,6.06-6.38,6.02Z"/><path class="cls-5" d="m560.63,148.59c.02,3.4-2.73,6.01-6.31,5.98-3.39-.03-6.26-2.92-6.14-6.2.11-3.07,2.95-5.81,6.08-5.86,3.26-.05,6.35,2.9,6.37,6.07Z"/><path class="cls-5" d="m674.35,129.9c.07,3.37-2.25,5.93-5.54,6.11-3.54.19-6.32-2.23-6.53-5.69-.21-3.42,2.38-6.22,5.85-6.36,3.49-.14,6.14,2.4,6.22,5.94Z"/><path class="cls-5" d="m220.65,54.43c.1,3.56-2.36,6.2-5.86,6.3-3.13.09-6-2.52-6.17-5.62-.19-3.46,2.34-6.28,5.76-6.42,3.77-.16,6.17,2.04,6.27,5.74Z"/><path class="cls-5" d="m826.56,148.52c.08,3.41-2.58,6.08-6.1,6.1-3.44.03-5.9-2.25-6.04-5.59-.15-3.48,2.39-6.34,5.76-6.49,3.3-.14,6.3,2.67,6.38,5.98Z"/><path class="cls-5" d="m288.15,154.6c-3.53-.11-6.15-2.86-5.97-6.26.15-2.79,3.33-5.74,6.23-5.8,3.09-.06,6.29,3.18,6.2,6.26-.1,3.39-2.91,5.91-6.47,5.8Z"/><path class="cls-5" d="m845.23,73.42c.02,3.47-2.23,5.79-5.71,5.9-3.48.11-6.31-2.59-6.27-5.98.04-3.27,3.02-6.07,6.37-5.98,3.2.08,5.6,2.67,5.62,6.07Z"/><path class="cls-5" d="m24.45,136.01c-3.51-.08-5.77-2.69-5.58-6.43.17-3.44,2.57-5.69,5.96-5.61,3.25.08,6.17,3.08,6.08,6.25-.09,3.33-2.93,5.87-6.46,5.79Z"/><path class="cls-5" d="m138.82,135.93c-3.13.11-6.13-2.86-6.19-6.14-.05-3.16,2.52-5.77,5.81-5.9,3.15-.12,6.39,2.75,6.59,5.83.18,2.93-2.98,6.09-6.21,6.21Z"/><path class="cls-5" d="m687.44,29.45c3.2-.02,6.2,3.06,6.12,6.26-.09,3.34-2.5,5.75-5.87,5.85-3.79.11-6.12-2.09-6.19-5.85-.06-3.53,2.5-6.23,5.95-6.26Z"/><path class="cls-5" d="m294.53,110.75c.13,3.46-2.38,5.9-6.13,5.96-3.53.06-5.96-2.09-6.13-5.42-.18-3.44,2.74-6.4,6.35-6.45,3-.04,5.79,2.75,5.91,5.9Z"/><path class="cls-5" d="m364.47,29.43c3.48.08,5.97,2.81,5.81,6.37-.15,3.36-2.67,5.69-6.05,5.59-3.45-.1-6.16-2.99-5.96-6.33.19-3.14,3-5.7,6.2-5.63Z"/><path class="cls-5" d="m195.68,135.95c-3.53.02-5.96-2.55-5.88-6.23.07-3.6,2.18-5.74,5.74-5.85,3.49-.1,6.37,2.55,6.36,5.87,0,3.19-3.01,6.2-6.21,6.21Z"/><path class="cls-5" d="m383.42,67c3.08.08,6.3,3.36,6.2,6.3-.11,3.1-3.32,6.07-6.48,5.98-3.42-.09-5.71-2.76-5.58-6.49.12-3.25,2.76-5.87,5.85-5.78Z"/><path class="cls-5" d="m725.27,154.58c-3.32-.06-6.15-2.65-6.19-5.65-.03-3.1,3.03-6.05,6.36-6.12,3.14-.06,6.21,3.13,6.08,6.32-.13,3.16-2.83,5.51-6.26,5.45Z"/><path class="cls-5" d="m788.54,130.13c-.09,3.04-2.99,5.79-6.11,5.79-3.43,0-6.03-2.75-5.96-6.32.07-3.34,2.61-5.78,5.97-5.73,3.38.05,6.19,2.94,6.09,6.26Z"/><path class="cls-5" d="m269.64,123.97c3.27.07,5.74,2.64,5.75,5.99.01,3.45-2.72,6.06-6.27,5.98-3.15-.07-5.79-2.81-5.79-6.01,0-3.35,2.85-6.04,6.31-5.96Z"/><path class="cls-5" d="m807.41,91.96c.13,3.81-2.07,6.13-5.84,6.17-3.49.04-6.13-2.19-6.37-5.36-.24-3.18,2.75-6.34,6.01-6.36,3.47-.02,6.09,2.33,6.19,5.56Z"/><path class="cls-5" d="m592.29,116.67c-3.6-.02-6.14-2.59-6.03-6.11.08-2.71,2.98-5.6,5.72-5.71,3.3-.13,6.37,2.67,6.48,5.92.12,3.52-2.4,5.92-6.18,5.9Z"/><path class="cls-5" d="m95.09,54.03c.12-3.53,2.45-5.77,5.86-5.63,3.4.14,6.06,3.06,5.86,6.44-.16,2.8-3.35,5.75-6.24,5.77-3.21.03-5.61-2.85-5.48-6.59Z"/><path class="cls-5" d="m421.5,48.39c3.07.05,6.08,2.94,6.09,5.83,0,3.03-3.25,6.26-6.27,6.22-2.97-.03-5.94-2.96-6.01-5.9-.07-3.32,2.83-6.21,6.19-6.15Z"/><path class="cls-5" d="m788.52,54.6c-.1,3.07-3.48,6.14-6.51,5.89-3.06-.24-5.63-3.16-5.54-6.29.09-3.3,2.67-5.85,5.92-5.87,3.15-.02,6.23,3.14,6.13,6.27Z"/><path class="cls-5" d="m573.42,29.43c3.43.02,6.09,2.78,5.95,6.17-.14,3.23-2.76,5.67-6.06,5.63-3.3-.03-5.98-2.59-5.99-5.71,0-3.41,2.69-6.11,6.09-6.09Z"/><path class="cls-5" d="m744.24,135.91c-3.26-.11-5.73-2.69-5.72-5.98,0-3.62,2.54-6.15,6.05-6.05,3.3.09,6.07,3.13,5.81,6.39-.26,3.24-2.99,5.76-6.14,5.65Z"/><path class="cls-5" d="m712.31,73.39c-.04,3.58-2.66,6.08-6.22,5.93-3.31-.14-5.79-2.71-5.76-5.99.02-3.35,2.91-6.08,6.3-5.97,3.23.1,5.71,2.74,5.68,6.03Z"/><path class="cls-5" d="m43.85,41.57c-3.53.07-6.2-2.48-6.25-5.95-.05-3.15,3.05-6.24,6.2-6.18,3.25.06,5.77,2.57,5.88,5.86.13,3.65-2.24,6.2-5.84,6.27Z"/><path class="cls-5" d="m687.5,154.57c-3.78,0-5.88-1.9-5.97-5.43-.09-3.6,2.41-6.35,5.78-6.35,3.19,0,6.25,3.05,6.23,6.2-.02,3.16-2.63,5.58-6.04,5.58Z"/><path class="cls-5" d="m649.61,98.03c-3.3.11-5.95-2.29-6.13-5.55-.2-3.57,2.24-6.29,5.75-6.41,3.34-.12,6.33,2.74,6.3,6.04-.02,3.1-2.73,5.82-5.92,5.93Z"/><path class="cls-5" d="m674.33,92.17c.02,3.65-2.29,5.93-6.05,5.95-3.34.02-5.89-2.35-6-5.6-.11-3.21,2.82-6.38,5.92-6.4,3.44-.02,6.11,2.6,6.13,6.05Z"/><path class="cls-5" d="m497.34,10.72c3.94,0,6.01,2.03,5.97,5.89-.03,3.57-2.53,6.02-6.11,5.98-3.01-.03-5.94-2.9-6-5.88-.07-3.37,2.62-5.99,6.14-5.99Z"/><path class="cls-5" d="m706.47,22.78c-3.31.06-5.99-2.37-6.17-5.58-.19-3.35,2.53-6.23,5.96-6.29,3.38-.06,5.91,2.28,6.06,5.59.16,3.56-2.31,6.22-5.84,6.28Z"/><path class="cls-5" d="m132.63,54.63c-.13-3.13,2.41-5.93,5.63-6.19,3.15-.25,6.51,2.66,6.64,5.76.13,3-3.11,6.26-6.21,6.26-3.1,0-5.93-2.72-6.06-5.83Z"/><path class="cls-5" d="m125.64,16.81c.06,3.35-2.3,5.92-5.57,6.06-3.49.15-6.3-2.45-6.32-5.85-.02-3.45,2.66-6.13,6.1-6.1,3.28.03,5.73,2.52,5.79,5.88Z"/><path class="cls-5" d="m402.32,41.59c-3.43-.01-5.94-2.34-6.03-5.58-.09-3.14,2.88-6.4,5.91-6.5,3.2-.1,6.12,2.78,6.21,6.13.09,3.55-2.37,5.96-6.09,5.95Z"/><path class="cls-5" d="m801.57,22.88c-3.21.08-6.19-2.47-6.35-5.46-.17-3.14,2.84-6.45,5.92-6.5,3.41-.06,6.29,2.71,6.28,6.03-.02,3.17-2.66,5.85-5.85,5.93Z"/><path class="cls-5" d="m750.38,16.52c.12,3.37-2.61,6.07-6.18,6.1-3.08.03-5.49-2.33-5.68-5.55-.2-3.47,2.03-6.06,5.37-6.24,3.68-.19,6.36,2.15,6.49,5.69Z"/><path class="cls-5" d="m176.89,98.11c-3.48.08-6.28-2.52-6.32-5.87-.04-2.92,2.86-5.81,5.93-5.91,3.43-.11,5.97,2.15,6.13,5.47.18,3.6-2.22,6.23-5.74,6.31Z"/><path class="cls-5" d="m62.74,79.33c-3.32.02-5.88-2.43-5.99-5.74-.11-3.41,2.65-6.29,5.99-6.25,3.05.04,6.32,3.38,6.17,6.3-.16,3.13-2.91,5.67-6.17,5.68Z"/><path class="cls-5" d="m195.63,79.32c-3.51-.11-6.14-2.89-5.93-6.28.2-3.16,2.98-5.75,6.11-5.68,3.17.07,6.22,3.29,6.02,6.37-.2,3.19-2.98,5.7-6.2,5.6Z"/><path class="cls-5" d="m320.23,16.77c.02-3.36,2.83-6,6.29-5.93,3.33.07,5.72,2.49,5.75,5.85.03,3.23-2.49,5.95-5.64,6.06-3.11.12-6.42-2.98-6.4-5.98Z"/><path class="cls-5" d="m516.45,154.57c-3.43.04-5.81-2.25-5.92-5.67-.11-3.57,2.48-6.33,5.89-6.26,2.9.06,6.07,3.04,6.19,5.83.14,3.31-2.63,6.06-6.16,6.1Z"/><path class="cls-5" d="m605.41,72.93c.05-3.17,2.71-5.79,5.92-5.83,3.3-.04,6.22,2.9,6.14,6.17-.07,2.96-3.06,5.87-6.04,5.87-3.44,0-6.07-2.71-6.02-6.22Z"/><path class="cls-5" d="m326.45,154.57c-3.47,0-6.31-2.73-6.24-5.99.06-2.87,3.05-5.81,6.02-5.93,3.2-.13,6.09,2.81,6.04,6.16-.05,3.34-2.49,5.76-5.82,5.76Z"/><path class="cls-5" d="m478.28,116.68c-3.64-.06-5.7-2.13-5.73-5.73-.03-3.6,2.61-6.39,5.92-6.27,3.1.11,6.13,3.41,5.97,6.49-.17,3.23-2.79,5.57-6.16,5.52Z"/><path class="cls-5" d="m157.87,22.89c-3.31.07-5.92-2.37-6.01-5.6-.1-3.59,2.39-6.32,5.79-6.35,3.27-.03,6.24,2.92,6.19,6.12-.05,3.1-2.78,5.76-5.96,5.83Z"/><path class="cls-5" d="m37.63,148.64c.13-3.01,3.04-5.83,6.03-5.84,3.67,0,6.22,2.86,5.94,6.66-.24,3.28-2.74,5.29-6.34,5.1-3.43-.18-5.77-2.65-5.63-5.93Z"/><path class="cls-5" d="m87.64,149.33c-.21,3.28-2.93,5.52-6.36,5.25-3.41-.28-5.84-2.89-5.65-6.09.18-3.1,3.12-5.78,6.23-5.67,3.48.12,6.01,2.98,5.78,6.52Z"/><path class="cls-5" d="m307.33,48.41c3.28.01,5.89,2.55,6,5.84.11,3.37-2.83,6.41-6.08,6.27-3.07-.13-5.76-3.02-5.76-6.16,0-3.31,2.6-5.96,5.83-5.94Z"/><path class="cls-5" d="m157.86,154.57c-3.58.04-5.91-2.11-6-5.54-.09-3.66,2.4-6.19,6.02-6.1,3.13.07,6.02,2.94,5.96,5.93-.07,3.31-2.54,5.67-5.97,5.72Z"/><path class="cls-5" d="m541.32,54.24c.06,3.03-2.68,6.04-5.62,6.18-3.1.15-6.31-2.82-6.46-5.97-.14-2.89,2.7-5.94,5.72-6.13,3.17-.2,6.3,2.71,6.36,5.92Z"/><path class="cls-5" d="m100.76,135.93c-3.26.02-5.67-2.42-5.74-5.83-.08-3.83,2.15-6.24,5.75-6.22,3,.01,5.87,2.77,6.03,5.79.16,3.11-2.86,6.24-6.03,6.26Z"/><path class="cls-5" d="m106.81,16.95c-.11,3.05-3.03,5.7-6.22,5.66-3.55-.05-5.72-2.6-5.53-6.51.18-3.59,2.42-5.52,6.1-5.27,3.3.23,5.77,2.89,5.65,6.12Z"/><path class="cls-5" d="m801.61,154.57c-3.46.1-6.17-2.18-6.4-5.37-.23-3.19,2.73-6.17,6.16-6.21,3.39-.04,6.02,2.45,6.04,5.71.01,3.46-2.27,5.77-5.8,5.87Z"/><path class="cls-5" d="m750.41,54.35c.02,3.14-3.24,6.42-6.24,6.29-2.94-.14-5.69-3.23-5.64-6.35.05-3.2,2.85-6.01,5.94-5.95,3.05.06,5.92,2.97,5.94,6.02Z"/><path class="cls-5" d="m820.47,86.41c3.51.12,6.26,2.93,6.03,6.17-.23,3.22-2.83,5.56-6.14,5.53-3.57-.04-6.01-2.58-5.9-6.15.1-3.29,2.67-5.66,6.01-5.55Z"/><path class="cls-5" d="m75.62,54.74c-.09-3.15,2.45-5.82,5.69-5.98,3.68-.18,6.29,2.15,6.33,5.67.04,3.36-2.8,6.32-6,6.25-2.78-.06-5.94-3.17-6.02-5.94Z"/><path class="cls-5" d="m62.72,143.28c3.52,0,6.09,2.26,6.21,5.48.12,3.29-2.77,5.9-6.41,5.81-3.45-.09-5.92-2.54-5.87-5.82.05-3.43,2.31-5.47,6.07-5.47Z"/><path class="cls-5" d="m769.08,16.85c.04,3.62-2.13,5.98-5.54,6.03-3.33.04-6.34-2.93-6.24-6.16.1-3.09,2.93-5.77,6.12-5.78,3.41-.02,5.62,2.29,5.66,5.92Z"/><path class="cls-5" d="m415.31-2.24c.07-3.06,2.95-6.09,5.8-6.1,2.93-.01,6.4,3.38,6.36,6.21-.04,2.98-3.49,6.2-6.45,6.02-3.15-.19-5.78-3.01-5.71-6.13Z"/><path class="cls-5" d="m81.68,116.73c-3.59,0-5.98-2.18-6.07-5.52-.09-3.16,2.91-6.32,6.04-6.37,3.19-.05,6.1,3,6.03,6.32-.07,3.36-2.46,5.58-6.01,5.57Z"/><path class="cls-5" d="m62.87,22.78c-3.52.01-6.2-2.62-6.14-6.05.06-3.24,2.61-5.76,5.89-5.81,3.2-.06,6.37,2.98,6.32,6.04-.05,2.88-3.11,5.82-6.07,5.83Z"/><path class="cls-5" d="m655.55,16.78c-.09,3.07-3.02,5.69-6.23,5.58-3.59-.13-5.91-2.41-5.85-5.78.06-3.62,2.59-5.92,6.32-5.77,3.34.13,5.84,2.73,5.75,5.97Z"/><path class="cls-5" d="m307.47,116.64c-3.54.04-5.9-2.16-5.98-5.55-.07-3.26,2.91-6.32,6.08-6.23,3,.08,5.85,3.05,5.84,6.09-.02,3.31-2.47,5.66-5.94,5.7Z"/><path class="cls-5" d="m157.79,98.14c-3.65.03-5.88-2.06-5.96-5.57-.08-3.73,1.85-5.75,5.59-5.84,3.79-.09,6.49,2.32,6.4,5.71-.08,3.32-2.57,5.67-6.03,5.7Z"/><path class="cls-5" d="m712.31,149.01c-.06,3.36-2.43,5.57-5.96,5.56-3.55,0-6.2-2.66-6.06-6.06.13-3.18,2.72-5.33,6.31-5.24,3.64.09,5.78,2.23,5.72,5.73Z"/><path class="cls-5" d="m214.65-7.68c3.35.01,5.83,2.46,5.83,5.76,0,2.87-2.69,5.63-5.54,5.72-3.09.09-5.98-2.61-6.09-5.69-.11-3.16,2.53-5.79,5.8-5.78Z"/><path class="cls-5" d="m402.26,86.67c3.49-.05,6.04,2.23,6.15,5.49.12,3.47-2.47,5.98-6.15,5.96-3.32-.01-5.87-2.49-5.94-5.75-.07-3.22,2.48-5.65,5.95-5.7Z"/><path class="cls-5" d="m370.13-2.45c.02,3.34-2.52,5.9-5.79,5.84-2.88-.05-5.78-2.71-5.93-5.43-.16-2.8,2.86-6.1,5.73-6.25,2.95-.16,5.97,2.79,5.99,5.84Z"/><path class="cls-5" d="m195.73,154.55c-3.43-.08-5.99-2.85-5.82-6.29.16-3.3,2.14-4.99,5.84-4.98,3.51,0,6.13,2.4,6.02,5.51-.11,3.1-2.97,5.84-6.04,5.76Z"/><path class="cls-5" d="m839.46,154.54c-2.92.02-6.13-2.94-6.19-5.71-.06-3.08,2.57-5.51,6.03-5.56,3.83-.06,5.9,1.83,5.92,5.4.02,3.27-2.5,5.84-5.76,5.86Z"/><path class="cls-5" d="m351.13,91.9c.06,3.08-2.84,6.08-5.83,6.04-3.03-.04-5.61-2.6-5.65-5.61-.05-3.39,2.39-5.94,5.74-5.98,3.01-.04,5.68,2.54,5.74,5.55Z"/><path class="cls-5" d="m370.08,92.43c-.21,3.08-2.88,5.53-5.81,5.35-3.04-.19-6.03-3.36-5.77-6.1.27-2.8,3.21-5.34,6.07-5.24,3.45.13,5.73,2.61,5.5,5.99Z"/><path class="cls-5" d="m814.74,16.77c.02-3.19,2.41-5.69,5.46-5.71,3.03-.02,6.17,2.92,6.18,5.77,0,2.66-2.94,5.61-5.72,5.73-3.18.13-5.93-2.56-5.91-5.79Z"/><path class="cls-5" d="m465.1,73.35c-.04,3.39-2.54,5.75-6.02,5.67-3.11-.07-5.32-2.51-5.28-5.84.04-3.11,2.55-5.81,5.42-5.82,3.09,0,5.91,2.86,5.87,5.98Z"/><path class="cls-5" d="m256.03,35.68c.03,3.24-2.31,5.59-5.5,5.53-3.33-.07-5.75-2.27-5.85-5.32-.11-3.12,2.59-6.12,5.61-6.24,3.01-.12,5.72,2.72,5.75,6.04Z"/><path class="cls-5" d="m681.65,73.38c-.04-2.99,2.44-5.65,5.43-5.8,3.2-.17,5.86,2.47,5.84,5.78-.02,3.22-2.26,5.64-5.36,5.81-3.16.17-5.87-2.48-5.91-5.79Z"/><path class="cls-5" d="m465.1,129.58c.1,3.21-2.47,5.96-5.71,6.1-2.94.13-5.46-2.41-5.57-5.6-.11-3.31,2.01-5.81,5.1-6,3.31-.21,6.08,2.25,6.19,5.5Z"/><path class="cls-5" d="m231.59,124.08c3.32.11,5.7,2.73,5.52,6.08-.17,3.08-2.62,5.17-5.95,5.05-3.09-.11-5.67-2.6-5.69-5.49-.01-2.99,2.98-5.74,6.11-5.64Z"/><path class="cls-5" d="m106.38,35.45c.06,2.98-2.5,5.63-5.51,5.72-3.07.09-5.67-2.39-5.72-5.46-.05-3.27,2.66-6.15,5.71-6.07,2.87.07,5.47,2.81,5.53,5.81Z"/><path class="cls-5" d="m541.12,16.87c-.08,3-2.57,5.23-5.83,5.2-3.25-.02-6.04-2.77-5.88-5.77.15-2.68,3.12-5.36,5.97-5.37,3.12-.01,5.82,2.78,5.74,5.93Z"/><path class="cls-5" d="m49.41,73.16c.1,3.08-2.72,5.99-5.8,5.98-2.81-.01-5.71-2.81-5.78-5.6-.08-2.89,2.94-5.92,5.95-5.98,2.95-.05,5.53,2.51,5.63,5.59Z"/><path class="cls-5" d="m768.97,73.24c0,3.47-2.35,5.81-5.81,5.78-2.98-.03-5.39-2.6-5.38-5.76,0-3.04,2.55-5.55,5.61-5.54,3.09,0,5.58,2.47,5.59,5.52Z"/><path class="cls-5" d="m611.46,143.27c3.38.04,5.72,2.2,5.71,5.27-.01,2.93-3.06,5.88-6.03,5.84-3.1-.05-5.68-2.91-5.53-6.14.14-3.29,2.17-5.01,5.85-4.96Z"/><path class="cls-5" d="m535.37,105.32c3.32,0,5.84,2.57,5.72,5.8-.12,3.05-2.6,5.33-5.77,5.3-3.32-.03-5.87-2.61-5.77-5.84.09-2.88,2.74-5.27,5.83-5.26Z"/><path class="cls-5" d="m516.28,97.95c-3.33-.11-5.85-2.79-5.67-6.03.19-3.4,2.59-5.35,6.34-5.16,3.2.16,5.47,2.67,5.26,5.8-.19,2.88-3.06,5.49-5.94,5.39Z"/><path class="cls-5" d="m554.4,10.99c3.09-.04,5.47,2.29,5.59,5.48.14,3.7-1.78,5.61-5.62,5.62-3.71,0-5.52-1.67-5.58-5.17-.06-3.46,2.24-5.89,5.61-5.93Z"/><path class="cls-5" d="m119.56,98.01c-2.99-.09-5.62-2.69-5.67-5.62-.05-3.13,2.68-5.69,6-5.64,3.25.05,5.61,2.38,5.57,5.48-.04,3.34-2.62,5.87-5.9,5.77Z"/><path class="cls-5" d="m402.21,135.93c-2.8-.06-5.48-2.87-5.48-5.74,0-3.24,2.75-6.01,5.82-5.86,2.87.13,5.51,2.9,5.49,5.76-.02,3.25-2.67,5.91-5.83,5.84Z"/><path class="cls-5" d="m195.46,3.46c-3.26-.06-5.38-2.25-5.37-5.54.01-3.45,2.42-5.75,5.85-5.58,2.92.14,5.65,2.86,5.64,5.61,0,3.1-2.75,5.58-6.12,5.51Z"/><path class="cls-5" d="m339.65,54.28c.04-3.24,2.64-5.63,5.99-5.52,2.99.1,5.55,2.65,5.59,5.56.03,2.71-2.84,5.58-5.63,5.65-3.17.08-5.98-2.62-5.95-5.69Z"/><path class="cls-5" d="m182.52,16.71c.06,2.89-2.49,5.59-5.44,5.77-3.28.2-5.81-2.25-5.83-5.64-.02-3.25,2.12-5.6,5.26-5.78,3.12-.18,5.95,2.48,6.01,5.64Z"/><path class="cls-5" d="m750.22,35.25c.15,2.7-2.73,5.81-5.47,5.91-2.94.1-5.78-2.4-6.02-5.31-.23-2.75,2.45-5.99,5.11-6.2,2.83-.21,6.21,2.76,6.37,5.6Z"/><path class="cls-5" d="m560,73.3c-.11,3.4-2.18,5.42-5.54,5.4-3.6-.03-5.78-2.24-5.66-5.76.1-3.13,2.54-5.59,5.54-5.58,3.17,0,5.77,2.73,5.66,5.95Z"/><path class="cls-5" d="m332.08,111.21c-.09,3.09-2.48,5.24-5.79,5.22-3.37-.03-5.67-2.19-5.67-5.32,0-3.03,3.05-5.87,6.05-5.66,3.09.22,5.49,2.78,5.4,5.76Z"/><path class="cls-5" d="m586.73-2c0-3.12,2.35-5.62,5.39-5.74,3.25-.13,5.9,2.43,5.89,5.7,0,3.1-2.92,6.01-5.88,5.87-2.97-.14-5.4-2.76-5.4-5.83Z"/><path class="cls-5" d="m863.93,17c-.1,3.32-2.13,5.13-5.73,5.09-3.56-.04-5.53-1.95-5.47-5.32.06-3.21,2.37-5.56,5.48-5.59,3.35-.03,5.81,2.47,5.71,5.81Z"/><path class="cls-5" d="m630.53,116.43c-3.08.06-5.88-2.36-6.03-5.2-.15-2.96,2.81-5.84,5.95-5.81,3.18.04,5.61,2.41,5.62,5.49,0,3.21-2.25,5.46-5.55,5.53Z"/><path class="cls-5" d="m769.05,92.44c-.04,3.11-2.43,5.53-5.52,5.59-3.23.06-5.84-2.55-5.8-5.81.04-3.38,2.5-5.62,6.01-5.46,3.29.14,5.35,2.35,5.3,5.68Z"/><path class="cls-5" d="m465.09,16.85c-.09,3.28-2.23,5.23-5.77,5.23-3.64,0-5.53-1.83-5.51-5.34.02-3.42,2.58-5.89,5.89-5.7,3.13.18,5.47,2.7,5.39,5.81Z"/><path class="cls-5" d="m403.07-7.6c3,.36,5.2,3.12,4.92,6.17-.3,3.27-3.06,5.38-6.49,4.96-3-.37-5.08-3.2-4.62-6.27.47-3.11,3.17-5.23,6.19-4.87Z"/><path class="cls-5" d="m616.71,91.91c.05,3.27-2.17,5.72-5.22,5.74-2.88.02-5.7-2.59-5.86-5.41-.18-3.22,2.36-5.87,5.65-5.89,3.1-.02,5.37,2.31,5.42,5.56Z"/><path class="cls-5" d="m503.01,54.19c.07,3.09-2.23,5.5-5.39,5.67-2.84.15-5.86-2.45-6.03-5.2-.19-2.99,2.62-5.79,5.82-5.81,3.27-.02,5.54,2.14,5.6,5.34Z"/><path class="cls-5" d="m388.95,129.68c.03,3.29-2.04,5.43-5.37,5.54-3.47.11-5.91-2.2-5.89-5.56.02-3.08,2.4-5.57,5.43-5.68,3.25-.12,5.79,2.37,5.82,5.7Z"/><path class="cls-5" d="m839.34-7.68c3.29.03,5.9,2.7,5.8,5.93-.1,3-2.65,5.24-5.92,5.22-3.51-.03-5.33-1.94-5.27-5.55.06-3.49,2.11-5.63,5.39-5.6Z"/><path class="cls-5" d="m119.84,67.74c2.9.05,5.63,2.79,5.63,5.64,0,2.91-2.65,5.58-5.59,5.65-3.03.07-6.05-2.91-5.93-5.84.11-2.69,3.15-5.49,5.9-5.44Z"/><path class="cls-5" d="m426.91,16.9c-.04,3.35-2.2,5.3-5.72,5.15-3.58-.15-5.51-2.12-5.39-5.52.12-3.11,2.66-5.53,5.72-5.45,3.03.08,5.43,2.67,5.39,5.82Z"/><path class="cls-5" d="m220.43,16.62c.1,3.1-2.24,5.37-5.61,5.46-3.39.1-5.84-2.05-5.87-5.16-.03-2.96,2.65-5.7,5.61-5.73,3.07-.03,5.78,2.47,5.87,5.42Z"/><path class="cls-5" d="m326.28-7.67c3.06-.01,5.69,2.41,5.8,5.35.12,3.22-2.51,5.83-5.8,5.75-2.81-.07-5.76-2.92-5.77-5.57,0-2.66,2.98-5.52,5.77-5.53Z"/><path class="cls-5" d="m559.91,129.84c-.07,3.29-2.2,5.31-5.59,5.3-3.6,0-5.7-2.23-5.51-5.81.17-3.08,2.67-5.33,5.82-5.25,3.03.08,5.34,2.6,5.27,5.75Z"/><path class="cls-5" d="m307.28,143.39c3.43-.05,5.67,2,5.75,5.27.07,2.83-2.66,5.67-5.58,5.79-2.88.12-5.68-2.59-5.73-5.55-.06-3.15,2.26-5.45,5.56-5.5Z"/><path class="cls-5" d="m540.97,92.02c-.03,2.94-2.81,5.76-5.65,5.72-2.75-.04-5.77-3.02-5.78-5.72,0-2.8,2.8-5.52,5.79-5.6,2.99-.08,5.67,2.58,5.64,5.6Z"/><path class="cls-5" d="m483.77,148.6c.02,3.14-2.33,5.66-5.36,5.74-2.9.07-5.6-2.52-5.73-5.51-.13-3.02,2.27-5.38,5.54-5.45,3.57-.08,5.53,1.76,5.55,5.22Z"/><path class="cls-5" d="m858.21,3.55c-3.2-.04-5.53-2.39-5.53-5.6,0-3.23,2.3-5.59,5.49-5.64,3.4-.05,5.91,2.48,5.81,5.83-.1,3.1-2.6,5.45-5.76,5.41Z"/><path class="cls-5" d="m250.7-7.77c3.1.11,5.36,2.54,5.32,5.7-.04,3.29-2.64,5.72-5.96,5.55-3.13-.16-5.43-2.59-5.39-5.69.04-3.22,2.7-5.67,6.02-5.55Z"/><path class="cls-5" d="m195.46,11.29c3.29-.08,5.62,2.06,5.75,5.28.14,3.47-1.74,5.44-5.27,5.53-3.56.09-5.74-1.81-5.82-5.08-.08-3.21,2.2-5.64,5.34-5.72Z"/><path class="cls-5" d="m30.1-1.83c-.03,3.06-2.62,5.67-5.57,5.63-2.76-.04-5.42-3.02-5.31-5.95.1-2.8,2.65-5.32,5.38-5.32,3.01,0,5.54,2.6,5.51,5.64Z"/><path class="cls-5" d="m597.98,148.56c0,3.02-2.55,5.78-5.44,5.88-3.12.11-5.85-2.73-5.75-5.97.1-3.06,2.16-5,5.41-5.08,3.49-.09,5.78,1.96,5.78,5.17Z"/><path class="cls-5" d="m598.01,129.65c.06,3.13-2.19,5.38-5.47,5.48-3.42.11-5.65-1.85-5.79-5.08-.15-3.26,2.39-5.91,5.65-5.89,3.08.02,5.55,2.44,5.61,5.48Z"/><path class="cls-5" d="m663.05-1.99c.03-3.04,2.7-5.64,5.64-5.48,2.68.15,5.26,2.87,5.24,5.53-.02,2.93-2.77,5.77-5.55,5.75-3.03-.02-5.35-2.56-5.32-5.8Z"/><path class="cls-5" d="m768.96,36.23c-.2,3.01-3,5.27-6.11,4.93-2.91-.32-5.19-2.85-5.06-5.62.14-2.88,3.01-5.39,5.97-5.22,3.06.18,5.4,2.84,5.19,5.91Z"/><path class="cls-5" d="m663.05,148.82c.03-3.26,2.32-5.44,5.59-5.33,2.94.1,5.21,2.37,5.29,5.29.08,2.95-2.49,5.62-5.48,5.68-2.96.07-5.43-2.52-5.4-5.64Z"/><path class="cls-5" d="m839.11,22.08c-3.56-.08-5.25-1.94-5.08-5.59.15-3.14,2.27-5.29,5.21-5.28,3.19,0,6,2.81,5.86,5.86-.13,2.98-2.65,5.09-6,5.02Z"/><path class="cls-5" d="m806.87,111.28c0,3.13-2.39,5.34-5.69,5.24-3.09-.09-5.15-2.15-5.23-5.22-.07-3.07,2.39-5.63,5.42-5.64,3.02-.01,5.48,2.51,5.49,5.62Z"/><path class="cls-5" d="m138.61,3.39c-3.15-.08-5.51-2.57-5.4-5.71.1-2.86,2.55-5.27,5.38-5.28,3.19-.01,5.94,2.89,5.72,6.03-.2,2.77-2.81,5.04-5.71,4.96Z"/><path class="cls-5" d="m307.19,3.39c-3.05-.04-5.52-2.58-5.46-5.58.07-2.98,2.68-5.44,5.72-5.42,3.05.03,5.41,2.54,5.33,5.67-.08,3.26-2.3,5.38-5.59,5.33Z"/><path class="cls-5" d="m763.33,143.49c3.21-.09,5.63,2.25,5.6,5.43-.02,2.84-2.39,5.37-5.17,5.55-2.87.18-5.86-2.49-5.94-5.3-.09-2.93,2.49-5.59,5.51-5.68Z"/><path class="cls-5" d="m559.9-2.14c.03,3.09-2.46,5.55-5.58,5.53-2.95-.03-5.39-2.31-5.5-5.14-.12-3.16,2.68-5.95,5.87-5.85,2.82.09,5.18,2.57,5.21,5.46Z"/><path class="cls-5" d="m497.57,78.58c-3.31.03-5.63-2.17-5.67-5.38-.03-2.98,2.62-5.65,5.58-5.61,2.85.04,5.58,2.91,5.51,5.79-.08,2.86-2.49,5.17-5.42,5.2Z"/><path class="cls-5" d="m478.21,135.12c-3.05-.06-5.55-2.67-5.44-5.68.1-2.78,2.64-5.24,5.42-5.27,3-.03,5.57,2.52,5.57,5.54,0,3.24-2.29,5.47-5.55,5.4Z"/><path class="cls-5" d="m231.33,116.31c-2.94-.03-5.72-2.82-5.6-5.6.12-2.69,2.74-5.22,5.46-5.28,3.07-.07,5.65,2.37,5.71,5.42.07,3.11-2.37,5.49-5.58,5.46Z"/><path class="cls-5" d="m312.67,92.38c-.07,3.18-2.59,5.57-5.66,5.37-2.94-.18-5.43-3.02-5.21-5.96.2-2.84,2.62-4.98,5.62-4.99,3.37-.01,5.34,2.07,5.26,5.57Z"/><path class="cls-5" d="m782.43,143.4c3.08,0,5.39,2.1,5.5,5.02.11,2.92-2.52,5.8-5.38,5.88-2.73.08-5.84-2.85-5.85-5.51,0-3.01,2.52-5.38,5.73-5.38Z"/><path class="cls-5" d="m24.57,143.48c3.17-.04,5.55,2.3,5.54,5.45-.01,2.9-2.28,5.37-5.07,5.53-2.94.17-5.7-2.35-5.84-5.32-.15-3.06,2.28-5.63,5.37-5.66Z"/><path class="cls-5" d="m787.77-1.85c-.09,3.03-2.33,5.23-5.32,5.23-3.09,0-5.74-2.51-5.76-5.47-.03-2.91,2.69-5.53,5.72-5.52,2.99,0,5.46,2.66,5.36,5.76Z"/><path class="cls-5" d="m844.86,92.24c.07,3.02-2.51,5.64-5.49,5.57-2.9-.06-5.21-2.35-5.32-5.26-.13-3.33,1.96-5.62,5.19-5.7,3.14-.07,5.54,2.23,5.62,5.38Z"/><path class="cls-5" d="m101.08,143.4c2.96.19,5.31,2.61,5.23,5.38-.09,2.93-2.86,5.62-5.72,5.56-2.93-.06-5.47-2.81-5.39-5.83.08-3.13,2.6-5.32,5.88-5.11Z"/><path class="cls-5" d="m863.77,148.84c.05,3.11-2.46,5.71-5.44,5.62-2.99-.09-5.65-2.8-5.56-5.67.09-2.86,2.47-5.23,5.34-5.31,3.18-.09,5.61,2.22,5.66,5.36Z"/><path class="cls-5" d="m133.22,148.57c.09-3.18,2.49-5.31,5.82-5.16,2.98.14,5.32,2.48,5.28,5.31-.03,2.99-2.65,5.56-5.67,5.58-2.91.01-5.52-2.73-5.43-5.72Z"/><path class="cls-5" d="m250.48,143.43c2.87.05,5.4,2.45,5.47,5.18.07,2.89-2.62,5.74-5.47,5.81-2.9.06-5.63-2.63-5.63-5.56,0-3.11,2.46-5.48,5.64-5.42Z"/><path class="cls-5" d="m209.39,148.81c.05-3.28,2.37-5.49,5.58-5.31,2.95.16,5.31,2.53,5.29,5.31-.02,3.04-2.54,5.63-5.51,5.66-2.99.03-5.4-2.52-5.35-5.66Z"/><path class="cls-5" d="m820.1,116.43c-3.04-.07-5.24-2.23-5.29-5.19-.05-2.87,2.66-5.67,5.51-5.69,2.82-.02,5.52,2.76,5.49,5.65-.03,3.08-2.46,5.31-5.71,5.23Z"/><path class="cls-5" d="m654.83-2.3c.04,3.02-2.55,5.7-5.47,5.66-3.04-.04-5.43-2.54-5.46-5.71-.03-2.94,2.26-5.27,5.2-5.31,3.17-.04,5.69,2.32,5.73,5.36Z"/><path class="cls-5" d="m119.87,41.2c-2.99.08-5.65-2.4-5.78-5.39-.12-2.8,2.64-5.47,5.66-5.48,3.05-.01,5.17,2.06,5.27,5.13.11,3.33-1.99,5.66-5.16,5.75Z"/><path class="cls-5" d="m81.48,68.23c3.15-.07,5.9,2.31,5.96,5.15.05,2.73-2.81,5.58-5.67,5.64-2.99.07-5.58-2.53-5.55-5.58.02-2.94,2.24-5.14,5.27-5.21Z"/><path class="cls-5" d="m350.76,16.45c.06,3.28-2.06,5.47-5.36,5.53-3.2.05-5.49-2.2-5.52-5.43-.03-3.05,2.44-5.38,5.66-5.35,2.96.03,5.16,2.25,5.22,5.25Z"/><path class="cls-5" d="m201.12,92.22c.08,3.05-2.41,5.6-5.47,5.59-2.86,0-5.29-2.33-5.42-5.2-.15-3.16,2.14-5.66,5.24-5.75,3.13-.09,5.56,2.22,5.65,5.35Z"/><path class="cls-5" d="m157.54,116.53c-2.95-.02-5.29-2.26-5.37-5.13-.08-3.05,2.42-5.73,5.36-5.73,3.1,0,5.52,2.4,5.51,5.51,0,3.31-2.14,5.39-5.5,5.36Z"/><path class="cls-5" d="m176.38,116.42c-3.12-.09-5.09-2.16-5.04-5.3.05-2.97,2.71-5.64,5.55-5.57,2.84.07,5.57,2.95,5.45,5.77-.13,2.96-2.74,5.2-5.96,5.1Z"/><path class="cls-5" d="m739.13,148.51c.05-3.24,1.91-5.08,5.16-5.11,3.16-.03,5.81,2.39,5.78,5.28-.03,2.73-2.99,5.65-5.7,5.64-2.92-.02-5.29-2.63-5.23-5.8Z"/><path class="cls-5" d="m426.9,73.1c.12,2.9-2.04,5.27-5,5.49-3.38.25-5.81-1.72-6.01-4.89-.2-3.13,2.46-5.89,5.72-5.93,2.74-.04,5.17,2.41,5.29,5.33Z"/><path class="cls-5" d="m62.77,3.39c-2.84.05-5.43-2.3-5.59-5.06-.17-2.91,2.43-5.8,5.33-5.91,2.87-.11,5.65,2.69,5.57,5.62-.08,2.85-2.51,5.3-5.31,5.35Z"/><path class="cls-5" d="m611.47,21.99c-3.28-.08-5.77-2.42-5.7-5.35.07-2.92,2.76-5.48,5.74-5.45,3.19.03,5.16,2.26,5.08,5.76-.08,3.39-1.83,5.11-5.12,5.03Z"/><path class="cls-5" d="m125.02,148.61c.07,3.22-2.28,5.86-5.24,5.86-2.61,0-5.49-2.68-5.64-5.26-.17-2.82,2.58-5.64,5.58-5.71,3.13-.08,5.24,1.95,5.31,5.12Z"/><path class="cls-5" d="m245.02,54.41c.2-3.17,2.85-5.51,5.89-5.21,2.67.27,4.91,2.74,4.85,5.35-.06,2.75-2.7,5.22-5.53,5.16-3.07-.06-5.39-2.42-5.22-5.3Z"/><path class="cls-5" d="m521.83,130.23c-.12,3.15-2.54,5.16-5.92,4.94-2.97-.19-5.29-2.59-5.18-5.35.11-2.84,3-5.52,5.83-5.42,3,.11,5.4,2.75,5.28,5.82Z"/><path class="cls-5" d="m725.31,78.7c-3.28.02-5.33-1.85-5.47-4.98-.13-3.03,2.4-5.52,5.57-5.49,2.98.03,5.44,2.31,5.51,5.11.08,3.19-2.17,5.34-5.61,5.36Z"/><path class="cls-5" d="m530.13,148.5c.1-3.49,2.1-5.3,5.64-5.11,3.09.17,5.1,2.31,5.08,5.39-.01,2.79-2.53,5.27-5.35,5.27-3.28,0-5.46-2.25-5.37-5.56Z"/><path class="cls-5" d="m454.1,92.05c.05-2.87,2.45-5.19,5.33-5.17,3.03.02,5.62,2.7,5.44,5.63-.16,2.55-3.09,5.13-5.7,5.03-2.83-.11-5.12-2.59-5.07-5.49Z"/><path class="cls-5" d="m340.15,111.11c-.05-2.94,2.25-5.49,5.02-5.56,2.77-.07,5.25,2.36,5.35,5.26.1,2.9-2.17,5.36-5.07,5.47-2.95.12-5.25-2.12-5.3-5.17Z"/><path class="cls-5" d="m711.46-2.21c.1,3.35-1.7,5.43-4.82,5.57-3.06.14-5.61-2.37-5.58-5.52.03-2.87,2.47-5.41,5.23-5.45,2.83-.04,5.08,2.31,5.17,5.39Z"/><path class="cls-5" d="m654.74,73.2c-.03,2.97-2.65,5.4-5.72,5.29-2.95-.11-5.04-2.42-4.96-5.47.07-2.77,2.73-5.3,5.43-5.17,2.87.14,5.28,2.6,5.26,5.35Z"/><path class="cls-5" d="m369.82,73.1c.02,2.84-2.37,5.29-5.25,5.38-2.8.08-5.39-2.37-5.44-5.14-.05-2.68,2.5-5.34,5.24-5.48,2.58-.13,5.43,2.61,5.45,5.24Z"/><path class="cls-5" d="m312.6,129.96c-.05,2.9-2.48,5.21-5.37,5.11-3.01-.11-5.24-2.38-5.24-5.32,0-2.88,2.33-5,5.45-4.97,3.15.03,5.21,2.1,5.16,5.19Z"/><path class="cls-5" d="m825.67,35.56c.03,2.83-2.44,5.47-5.12,5.49-2.71.02-5.51-2.58-5.56-5.17-.05-2.57,2.68-5.43,5.26-5.5,2.72-.07,5.4,2.49,5.43,5.18Z"/><path class="cls-5" d="m497.33,40.59c-2.87-.09-5.36-2.59-5.28-5.3.09-2.72,2.72-5.11,5.55-5.03,2.87.08,5.34,2.58,5.25,5.33-.1,2.89-2.51,5.09-5.51,5Z"/><path class="cls-5" d="m763.33,135.13c-2.92-.03-5.38-2.44-5.31-5.23.07-2.83,2.58-5.1,5.53-4.99,3,.11,5.36,2.44,5.31,5.24-.05,2.77-2.53,5-5.53,4.98Z"/><path class="cls-5" d="m124.96,130.15c.02,3.03-2.14,5.01-5.43,4.98-3.04-.03-4.79-1.81-4.87-4.94-.08-3.28,1.82-5.27,5.04-5.27,3.1,0,5.24,2.13,5.26,5.24Z"/><path class="cls-5" d="m176.73,40.7c-3.16,0-5.34-2.11-5.31-5.15.03-2.75,2.69-5.25,5.51-5.16,2.59.08,5.32,3.05,5.18,5.63-.14,2.66-2.45,4.67-5.37,4.68Z"/><path class="cls-5" d="m269.47,153.63c-3.09.07-5.09-1.76-5.13-4.66-.03-2.71,2.16-5.02,4.9-5.15,2.73-.14,5.07,2.1,5.1,4.86.03,2.97-1.85,4.89-4.87,4.95Z"/><path class="cls-5" d="m388.61,35.31c.1,2.44-2.44,5.06-5,5.16-2.71.11-5.31-2.12-5.4-4.64-.1-2.56,2.16-4.91,4.95-5.15,2.56-.22,5.36,2.16,5.45,4.63Z"/><path class="cls-5" d="m62.53,59.07c-2.81-.08-4.68-2.02-4.51-4.69.17-2.74,2.14-4.61,4.77-4.53,2.68.08,4.54,2.06,4.5,4.77-.05,2.72-1.97,4.53-4.75,4.45Z"/><path class="cls-5" d="m711.12,54.36c.1,2.54-1.95,4.62-4.63,4.7-2.57.08-4.64-1.6-4.85-3.92-.25-2.71,1.95-5.26,4.55-5.28,2.53-.02,4.83,2.08,4.93,4.5Z"/><path class="cls-5" d="m782.13,31.16c2.53-.07,5.06,2.02,5.15,4.25.09,2.37-2.61,5.02-5.09,4.97-2.35-.04-4.52-2.43-4.49-4.93.03-2.4,1.91-4.22,4.43-4.29Z"/><path class="cls-5" d="m360.03,16.06c.2-2.57,2.11-4.23,4.63-4.05,2.61.19,4.66,2.53,4.37,4.97-.3,2.54-2.15,4.08-4.77,3.97-2.8-.12-4.45-2.03-4.22-4.9Z"/><path class="cls-5" d="m143.48,35.62c-.05,2.34-2.52,4.77-4.83,4.75-2.47-.02-4.57-2.31-4.5-4.93.06-2.53,1.86-4.26,4.48-4.29,2.76-.04,4.91,1.94,4.85,4.47Z"/><path class="cls-5" d="m250.3,134.26c-2.62-.03-4.46-1.73-4.52-4.19-.07-2.45,2.25-4.85,4.63-4.8,2.38.06,4.62,2.51,4.52,4.94-.1,2.46-1.96,4.08-4.63,4.05Z"/><path class="cls-5" d="m311.8,73.39c-.11,2.79-1.98,4.45-4.82,4.29-2.51-.14-4.31-2.07-4.19-4.49.11-2.34,2.19-4.4,4.47-4.41,2.78-.02,4.66,1.88,4.55,4.61Z"/><path class="cls-5" d="m592.49,77.68c-2.58.07-4.56-1.67-4.69-4.09-.12-2.39,2.26-4.87,4.65-4.85,2.25.02,4.47,2.28,4.44,4.52-.04,2.49-1.9,4.36-4.4,4.42Z"/><path class="cls-5" d="m157.82,40.21c-2.15.04-4.53-2.3-4.5-4.42.03-2.02,2.05-4.01,4.2-4.15,2.33-.15,4.46,1.93,4.39,4.29-.06,2.01-2.2,4.24-4.1,4.28Z"/><path class="cls-5" d="m801.35,40.19c-1.86.02-4.14-2.14-4.28-4.08-.16-2.14,2.1-4.5,4.29-4.47,2.18.03,4.15,1.89,4.25,4.01.11,2.24-2.02,4.51-4.26,4.54Z"/><path class="cls-5" d="m67.02,35.85c-.06,2.03-2.22,4.13-4.27,4.15-2.24.02-4.48-2.38-4.27-4.57.2-2.14,2.4-4.07,4.45-3.91,2.08.17,4.15,2.36,4.09,4.34Z"/><path class="cls-5" d="m706.17,31.52c2.04-.07,4.39,1.9,4.59,3.86.2,1.95-2.32,4.65-4.33,4.62-2.1-.03-4.09-2.01-4.19-4.18-.11-2.27,1.67-4.22,3.93-4.3Z"/><path class="cls-5" d="m634.65,54.52c-.1,2.15-2.1,3.83-4.43,3.72-2.33-.1-4.22-1.98-4.09-4.08.12-1.94,2.37-4.18,4.22-4.21,2.1-.04,4.4,2.41,4.3,4.57Z"/><path class="cls-5" d="m62.63,88.05c2,.01,4.25,2.14,4.36,4.12.12,2.19-1.69,3.92-4.18,4-2.48.07-4.26-1.54-4.25-3.86,0-2.24,1.95-4.27,4.07-4.25Z"/><path class="cls-5" d="m596.64,17.13c-.14,2.13-2.15,3.81-4.46,3.72-2.3-.09-4.12-1.93-4.07-4.11.06-2.25,1.91-4.03,4.15-3.97,2.35.06,4.52,2.22,4.38,4.37Z"/><path class="cls-5" d="m744.51,69.39c2.44.08,4.07,1.77,3.97,4.11-.1,2.25-2,4.01-4.26,3.92-2.26-.09-3.99-1.93-3.96-4.24.03-2.3,1.81-3.88,4.26-3.8Z"/><path class="cls-5" d="m81.67,125.83c2.13,0,4.18,1.98,4.2,4.07.02,2.09-1.96,4.11-4.11,4.17-2.17.06-4.17-1.88-4.17-4.05,0-2.19,1.93-4.18,4.08-4.18Z"/><path class="cls-5" d="m43.76,12.69c2.33.04,4.02,1.8,3.99,4.16-.03,2.33-1.8,4.04-4.15,3.99-2.36-.04-4.02-1.78-3.97-4.16.06-2.41,1.74-4.04,4.13-3.99Z"/><path class="cls-5" d="m535.39,133.86c-2.2.04-4.24-1.9-4.25-4.05-.01-2.24,1.85-4.05,4.17-4.06,2.43-.02,4.18,1.63,4.18,3.95,0,2.24-1.85,4.12-4.11,4.16Z"/><path class="cls-5" d="m330.39,35.73c-.07,2.33-1.86,3.99-4.23,3.92-2.27-.06-4.19-2.04-4.06-4.17.13-2.1,2.24-4.03,4.36-3.99,2.24.04,3.99,1.93,3.93,4.24Z"/><path class="cls-5" d="m573.42,133.9c-2.28.02-4.13-1.81-4.12-4.09,0-2.42,1.64-4.06,4.05-4.07,2.38,0,4.15,1.68,4.16,3.99.02,2.23-1.87,4.15-4.09,4.17Z"/><path class="cls-5" d="m687.28,20.83c-2.27-.04-3.93-1.85-3.85-4.19.08-2.48,1.66-4.01,4.06-3.94,2.35.06,3.93,1.75,3.91,4.16-.02,2.28-1.83,4.02-4.12,3.98Z"/><path class="cls-5" d="m501.37,92.34c-.11,2.25-1.98,3.85-4.31,3.7-2.33-.15-4.08-2.07-3.85-4.22.23-2.13,2.31-3.94,4.41-3.82,2.2.13,3.86,2.04,3.75,4.33Z"/><path class="cls-5" d="m710.51,92.38c-.02,2.26-1.8,3.84-4.27,3.79-2.35-.05-4.12-1.88-3.99-4.12.13-2.18,2.22-4.12,4.27-3.97,2.21.17,4.01,2.1,3.99,4.3Z"/><path class="cls-5" d="m364.52,50.02c2.24.12,4.17,2.48,3.93,4.82-.22,2.17-1.79,3.46-4.13,3.4-2.31-.06-4.18-1.96-4.06-4.1.12-2.02,2.4-4.22,4.26-4.13Z"/><path class="cls-5" d="m444.58,129.91c-.03,2.2-1.91,3.76-4.45,3.72-2.26-.04-3.77-1.57-3.75-3.8.02-2.4,1.74-4.12,4.08-4.07,2.27.05,4.15,1.95,4.12,4.15Z"/><path class="cls-5" d="m100.46,69.38c2.5-.04,4.22,1.47,4.29,3.74.07,2.13-1.81,4.2-3.9,4.3-2.16.1-4.38-2.18-4.31-4.44.06-2.04,1.72-3.57,3.92-3.6Z"/><path class="cls-5" d="m100.67,1.63c-2.48-.03-4.21-1.75-4.07-4.05.13-2.15,2.28-4.03,4.43-3.89,1.99.13,3.78,2,3.84,4,.06,2.29-1.73,3.97-4.2,3.94Z"/><path class="cls-5" d="m729.73,129.81c.07,1.7-2.29,4.11-4.16,4.24-2.06.14-4.16-1.85-4.21-3.97-.05-2.08,1.95-4.21,3.98-4.24,1.96-.02,4.31,2.1,4.39,3.97Z"/><path class="cls-5" d="m748.47-2.51c.07,2.33-1.62,4.08-4.01,4.15-2.38.07-4.18-1.64-4.13-3.96.04-2.3,1.84-3.98,4.26-3.96,2.12.01,3.82,1.67,3.88,3.77Z"/><path class="cls-5" d="m440.45,152.53c-2.27.04-4.1-1.77-4.05-4.01.04-1.96,1.84-3.75,3.83-3.82,1.98-.07,4.2,2.14,4.11,4.08-.09,2-1.87,3.71-3.89,3.75Z"/><path class="cls-5" d="m269.41,115.26c-2.13.03-4.06-1.92-4.12-4.16-.06-2.25,1.76-3.99,4.14-3.98,2.42.01,4.24,1.75,4.18,3.96-.06,2.03-2.19,4.15-4.2,4.17Z"/><path class="cls-5" d="m816.42-2.07c.06-2.34,1.79-3.9,4.24-3.81,2.12.08,3.91,1.75,3.96,3.7.06,2.15-2.39,4.35-4.62,4.16-2.09-.18-3.63-1.92-3.58-4.05Z"/><path class="cls-5" d="m43.57,58.7c-1.98-.07-4.03-2.37-3.93-4.41.11-2.24,2.07-3.87,4.42-3.69,2.15.17,3.74,1.87,3.67,3.95-.07,2.13-2.17,4.22-4.16,4.15Z"/><path class="cls-5" d="m577.32,148.73c.02,2.07-1.58,3.69-3.75,3.79-2.28.1-4.26-1.74-4.17-3.87.07-1.78,2.07-3.85,3.83-3.98,2.03-.14,4.07,1.87,4.09,4.05Z"/><path class="cls-5" d="m387.36,148.57c.06,2.37-1.68,4.19-3.96,4.13-2.29-.06-4.02-1.88-3.97-4.18.04-2.09,1.7-3.85,3.71-3.96,2.14-.11,4.17,1.81,4.22,4.01Z"/><path class="cls-5" d="m402.55,12.89c2.05.11,4.09,2.47,3.77,4.52-.33,2.09-1.64,3.3-3.8,3.35-2.28.05-4.23-2-4.06-4.15.16-1.96,2.2-3.82,4.08-3.72Z"/><path class="cls-5" d="m786.29,16.89c-.12,1.86-2.2,3.79-4.05,3.76-2.1-.04-3.98-2.26-3.75-4.43.21-1.99,2.18-3.59,4.21-3.43,2,.16,3.71,2.11,3.58,4.1Z"/><path class="cls-5" d="m649.24,114.78c-2.37-.05-3.95-1.72-3.87-4.11.07-2.2,1.53-3.52,3.91-3.54,2.37-.02,4.24,1.69,4.23,3.86,0,2.18-1.88,3.84-4.27,3.79Z"/><path class="cls-5" d="m573.56,107.01c2.13.02,3.76,1.7,3.76,3.87,0,2.13-1.66,3.78-3.81,3.8-2.16.02-3.98-1.58-4.09-3.59-.11-2.12,1.9-4.11,4.14-4.08Z"/><path class="cls-5" d="m119.89,107.28c2.06.07,3.89,1.86,3.89,3.81,0,2.15-2.11,4.01-4.34,3.82-2.06-.18-3.73-2.06-3.62-4.06.11-2.02,1.96-3.64,4.07-3.57Z"/><path class="cls-5" d="m626.8,148.95c-.08-2.3,1.33-4.1,3.28-4.19,2.19-.1,4.23,1.81,4.21,3.95-.02,1.98-1.72,3.73-3.78,3.88-2.25.16-3.62-1.18-3.71-3.64Z"/><path class="cls-5" d="m691.09,54.32c.06,2.47-1.58,4.32-3.8,4.3-1.96-.02-3.79-1.85-3.87-3.86-.09-2.33,1.62-4.12,3.97-4.16,2.33-.04,3.64,1.28,3.7,3.73Z"/><path class="cls-5" d="m180.74-1.95c0,2.23-1.42,3.6-3.81,3.68-2.45.08-4.22-1.56-4.19-3.88.03-2.15,1.63-3.7,3.85-3.72,2.47-.03,4.15,1.56,4.15,3.92Z"/><path class="cls-5" d="m330.19,92.14c.05,2.09-1.71,3.86-3.82,3.82-2.09-.04-4.02-1.87-3.96-3.77.06-1.93,1.99-3.85,3.94-3.92,1.92-.08,3.79,1.8,3.84,3.87Z"/><path class="cls-5" d="m649.28,50.65c2.15-.06,3.92,1.54,3.98,3.6.06,2.04-1.67,3.8-3.76,3.82-2.15.02-3.96-1.61-4-3.6-.04-2.03,1.67-3.76,3.78-3.82Z"/><path class="cls-5" d="m138.79,20.64c-1.85.13-3.48-1.35-3.71-3.35-.28-2.39,1.33-4.42,3.55-4.49,2.02-.06,3.85,1.73,3.87,3.78.02,1.98-1.76,3.93-3.7,4.06Z"/><path class="cls-5" d="m387.08,16.77c-.03,2.12-1.77,3.81-3.86,3.75-2.08-.06-3.71-1.83-3.63-3.96.08-2.16,1.79-3.84,3.84-3.77,2.05.07,3.68,1.85,3.65,3.98Z"/><path class="cls-5" d="m630.55,69.42c2.07.07,3.82,1.87,3.75,3.85-.07,1.98-1.93,3.82-3.87,3.82-2.09,0-3.65-1.69-3.63-3.92.02-2.21,1.64-3.83,3.75-3.76Z"/><path class="cls-5" d="m630.35,39.23c-1.92.06-3.38-1.36-3.53-3.42-.16-2.18,1.35-4.17,3.25-4.29,2.05-.13,4.24,1.95,4.21,4.01-.02,1.94-1.82,3.64-3.93,3.7Z"/><path class="cls-5" d="m360.85,110.65c.14-2.41,1.59-3.67,3.91-3.41,2.13.24,3.79,2.1,3.59,4.03-.2,1.95-2.1,3.49-4.22,3.42-2.25-.08-3.43-1.52-3.28-4.04Z"/><path class="cls-5" d="m763.34,114.78c-2.38-.03-3.76-1.44-3.66-3.74.09-2.14,1.8-3.81,3.85-3.75,2.03.06,3.69,1.83,3.68,3.93,0,2.25-1.47,3.59-3.86,3.56Z"/><path class="cls-5" d="m595.78,35.63c-.35,1.98-1.37,3.1-3.44,3.09-2.11-.01-3.23-1.17-3.22-3.13,0-2,1.32-3.11,3.3-3.14,2.11-.03,2.87,1.5,3.37,3.18Z"/><path class="cls-5" d="m613.55,129.57c0,1.25-.57,2.16-1.79,2.34-1.45.22-2.38-.57-2.56-2.02-.15-1.26.53-2.1,1.75-2.34,1.57-.31,2.19.75,2.6,2.01Z"/><path class="cls-5" d="m252.7,92.2c-.2,1.36-.94,2.28-2.32,2.32-1.24.03-1.91-.79-1.89-2.03.02-1.14.51-2.2,1.66-2.35,1.36-.18,2.16.79,2.54,2.07Z"/><path class="cls-5" d="m440.6,108.5c1.29.42,2.17,1.22,1.85,2.65-.25,1.13-1.07,1.8-2.34,1.67-1.25-.13-1.99-.85-1.9-2.09.1-1.36.93-2.17,2.38-2.24Z"/><path class="cls-5" d="m231.4,94.22c-1.35-.16-2.14-.92-2.15-2.09-.01-1.45,1.03-2.23,2.41-2.15,1.25.07,1.88,1,1.76,2.23-.12,1.21-.91,1.87-2.03,2.01Z"/><path class="cls-5" d="m347.5,148.74c-.29,1.44-1.01,2.12-2.3,2.05-1.36-.07-1.92-.91-1.85-2.16.08-1.46.88-2.34,2.4-2.13,1.32.19,1.46,1.4,1.75,2.23Z"/><path class="cls-5" d="m504.13,166.19c-.06,3.72-3.1,6.82-6.7,6.82-3.75,0-7.22-3.42-7.13-7.03.08-3.44,3.46-6.8,6.88-6.86,3.8-.07,7.01,3.21,6.95,7.07Z"/><path class="cls-5" d="m231.57,159.13c3.8.14,6.9,3.61,6.64,7.43-.25,3.66-3.43,6.53-7.1,6.41-3.72-.12-6.72-3.2-6.66-6.84.06-3.8,3.46-7.14,7.13-7Z"/><path class="cls-5" d="m408.53,166.52c0,3.73-2.82,6.57-6.38,6.44-3.29-.13-5.91-3-5.93-6.49-.02-3.56,2.55-6.31,5.94-6.37,3.69-.07,6.37,2.63,6.36,6.43Z"/><path class="cls-5" d="m459.58,159.98c3.39.07,6.35,3.25,6.19,6.66-.15,3.27-2.93,5.57-6.66,5.51-3.67-.06-6.18-2.52-6.11-5.98.07-3.6,2.9-6.26,6.57-6.18Z"/><path class="cls-5" d="m655.7,166.08c.02,3.67-2.28,5.99-6.03,6.07-3.97.08-6.78-2.38-6.8-5.96-.02-3.25,3.3-6.34,6.73-6.27,3.55.08,6.08,2.63,6.1,6.16Z"/><path class="cls-5" d="m176.48,172.12c-3.46-.07-6.13-2.89-5.95-6.3.16-3.14,2.95-5.8,6.1-5.82,3.2-.02,6.27,3.01,6.29,6.21.02,3.21-3,5.97-6.45,5.91Z"/><path class="cls-5" d="m560.63,166.06c.02,3.4-2.73,6.01-6.31,5.98-3.39-.03-6.26-2.92-6.14-6.2.11-3.07,2.95-5.81,6.08-5.86,3.26-.05,6.35,2.9,6.37,6.07Z"/><path class="cls-5" d="m826.56,165.99c.08,3.41-2.58,6.08-6.1,6.1-3.44.03-5.9-2.25-6.04-5.59-.15-3.48,2.39-6.34,5.76-6.49,3.3-.14,6.3,2.67,6.38,5.98Z"/><path class="cls-5" d="m288.15,172.07c-3.53-.11-6.15-2.86-5.97-6.26.15-2.79,3.33-5.74,6.23-5.8,3.09-.06,6.29,3.18,6.2,6.26-.1,3.39-2.91,5.91-6.47,5.8Z"/><path class="cls-5" d="m725.27,172.06c-3.32-.06-6.15-2.65-6.19-5.65-.03-3.1,3.03-6.05,6.36-6.12,3.14-.06,6.21,3.13,6.08,6.32-.13,3.16-2.83,5.51-6.26,5.45Z"/><path class="cls-5" d="m687.5,172.04c-3.78,0-5.88-1.9-5.97-5.43-.09-3.6,2.41-6.35,5.78-6.35,3.19,0,6.25,3.05,6.23,6.2-.02,3.16-2.63,5.58-6.04,5.58Z"/><path class="cls-5" d="m516.45,172.04c-3.43.04-5.81-2.25-5.92-5.67-.11-3.57,2.48-6.33,5.89-6.26,2.9.06,6.07,3.04,6.19,5.83.14,3.31-2.63,6.06-6.16,6.1Z"/><path class="cls-5" d="m326.45,172.04c-3.47,0-6.31-2.73-6.24-5.99.06-2.87,3.05-5.81,6.02-5.93,3.2-.13,6.09,2.81,6.04,6.16-.05,3.34-2.49,5.76-5.82,5.76Z"/><path class="cls-5" d="m37.63,166.11c.13-3.01,3.04-5.83,6.03-5.84,3.67,0,6.22,2.86,5.94,6.66-.24,3.28-2.74,5.29-6.34,5.1-3.43-.18-5.77-2.65-5.63-5.93Z"/><path class="cls-5" d="m87.64,166.81c-.21,3.28-2.93,5.52-6.36,5.25-3.41-.28-5.84-2.89-5.65-6.09.18-3.1,3.12-5.78,6.23-5.67,3.48.12,6.01,2.98,5.78,6.52Z"/><path class="cls-5" d="m157.86,172.04c-3.58.04-5.91-2.11-6-5.54-.09-3.66,2.4-6.19,6.02-6.1,3.13.07,6.02,2.94,5.96,5.93-.07,3.31-2.54,5.67-5.97,5.72Z"/><path class="cls-5" d="m801.61,172.04c-3.46.1-6.17-2.18-6.4-5.37-.23-3.19,2.73-6.17,6.16-6.21,3.39-.04,6.02,2.45,6.04,5.71.01,3.46-2.27,5.77-5.8,5.87Z"/><path class="cls-5" d="m62.72,160.75c3.52,0,6.09,2.26,6.21,5.48.12,3.29-2.77,5.9-6.41,5.81-3.45-.09-5.92-2.54-5.87-5.82.05-3.43,2.31-5.47,6.07-5.47Z"/><path class="cls-5" d="m6.55,123.07c3.9-.09,7.18,3.03,7.25,6.89.07,3.72-2.87,6.69-6.72,6.8C2.94,136.88,0,134.05,0,129.96c0-3.92,2.75-6.81,6.55-6.9Z"/><path class="cls-5" d="m6.82,79.33c-3.32.02-5.88-2.43-5.99-5.74-.11-3.41,2.65-6.29,5.99-6.25,3.05.04,6.32,3.38,6.17,6.3-.16,3.13-2.91,5.67-6.17,5.68Z"/><path class="cls-5" d="m6.8,143.28c3.52,0,6.09,2.26,6.21,5.48.12,3.29-2.77,5.9-6.41,5.81-3.45-.09-5.92-2.54-5.87-5.82.05-3.43,2.31-5.47,6.07-5.47Z"/><path class="cls-5" d="m6.95,22.78c-3.52.01-6.2-2.62-6.14-6.05.06-3.24,2.61-5.76,5.89-5.81,3.2-.06,6.37,2.98,6.32,6.04-.05,2.88-3.11,5.82-6.07,5.83Z"/><path class="cls-5" d="m6.85,3.39c-2.84.05-5.43-2.3-5.59-5.06-.17-2.91,2.43-5.8,5.33-5.91,2.87-.11,5.65,2.69,5.57,5.62-.08,2.85-2.51,5.3-5.31,5.35Z"/><path class="cls-5" d="m6.61,59.07c-2.81-.08-4.68-2.02-4.51-4.69.17-2.74,2.14-4.61,4.77-4.53,2.68.08,4.54,2.06,4.5,4.77-.05,2.72-1.97,4.53-4.75,4.45Z"/><path class="cls-5" d="m11.1,35.85c-.06,2.03-2.22,4.13-4.27,4.15-2.24.02-4.48-2.38-4.27-4.57.2-2.14,2.4-4.07,4.45-3.91,2.08.17,4.15,2.36,4.09,4.34Z"/><path class="cls-5" d="m6.71,88.05c2,.01,4.25,2.14,4.36,4.12.12,2.19-1.69,3.92-4.18,4-2.48.07-4.26-1.54-4.25-3.86,0-2.24,1.95-4.27,4.07-4.25Z"/><path class="cls-5" d="m6.8,160.75c3.52,0,6.09,2.26,6.21,5.48.12,3.29-2.77,5.9-6.41,5.81-3.45-.09-5.92-2.54-5.87-5.82.05-3.43,2.31-5.47,6.07-5.47Z"/><path class="cls-5" d="m712.31,166.48c-.06,3.36-2.43,5.57-5.96,5.56-3.55,0-6.2-2.66-6.06-6.06.13-3.18,2.72-5.33,6.31-5.24,3.64.09,5.78,2.23,5.72,5.73Z"/><path class="cls-5" d="m195.73,172.03c-3.43-.08-5.99-2.85-5.82-6.29.16-3.3,2.14-4.99,5.84-4.98,3.51,0,6.13,2.4,6.02,5.51-.11,3.1-2.97,5.84-6.04,5.76Z"/><path class="cls-5" d="m839.46,172.02c-2.92.02-6.13-2.94-6.19-5.71-.06-3.08,2.57-5.51,6.03-5.56,3.83-.06,5.9,1.83,5.92,5.4.02,3.27-2.5,5.84-5.76,5.86Z"/><path class="cls-5" d="m611.46,160.75c3.38.04,5.72,2.2,5.71,5.27-.01,2.93-3.06,5.88-6.03,5.84-3.1-.05-5.68-2.91-5.53-6.14.14-3.29,2.17-5.01,5.85-4.96Z"/><path class="cls-5" d="m307.28,160.86c3.43-.05,5.67,2,5.75,5.27.07,2.83-2.66,5.67-5.58,5.79-2.88.12-5.68-2.59-5.73-5.55-.06-3.15,2.26-5.45,5.56-5.5Z"/><path class="cls-5" d="m483.77,166.08c.02,3.14-2.33,5.66-5.36,5.74-2.9.07-5.6-2.52-5.73-5.51-.13-3.02,2.27-5.38,5.54-5.45,3.57-.08,5.53,1.76,5.55,5.22Z"/><path class="cls-5" d="m597.98,166.04c0,3.02-2.55,5.78-5.44,5.88-3.12.11-5.85-2.73-5.75-5.97.1-3.06,2.16-5,5.41-5.08,3.49-.09,5.78,1.96,5.78,5.17Z"/><path class="cls-5" d="m663.05,166.29c.03-3.26,2.32-5.44,5.59-5.33,2.94.1,5.21,2.37,5.29,5.29.08,2.95-2.49,5.62-5.48,5.68-2.96.07-5.43-2.52-5.4-5.64Z"/><path class="cls-5" d="m763.33,160.96c3.21-.09,5.63,2.25,5.6,5.43-.02,2.84-2.39,5.37-5.17,5.55-2.87.18-5.86-2.49-5.94-5.3-.09-2.93,2.49-5.59,5.51-5.68Z"/><path class="cls-5" d="m782.43,160.88c3.08,0,5.39,2.1,5.5,5.02.11,2.92-2.52,5.8-5.38,5.88-2.73.08-5.84-2.85-5.85-5.51,0-3.01,2.52-5.38,5.73-5.38Z"/><path class="cls-5" d="m24.57,160.95c3.17-.04,5.55,2.3,5.54,5.45-.01,2.9-2.28,5.37-5.07,5.53-2.94.17-5.7-2.35-5.84-5.32-.15-3.06,2.28-5.63,5.37-5.66Z"/><path class="cls-5" d="m101.08,160.88c2.96.19,5.31,2.61,5.23,5.38-.09,2.93-2.86,5.62-5.72,5.56-2.93-.06-5.47-2.81-5.39-5.83.08-3.13,2.6-5.32,5.88-5.11Z"/><path class="cls-5" d="m863.77,166.32c.05,3.11-2.46,5.71-5.44,5.62-2.99-.09-5.65-2.8-5.56-5.67.09-2.86,2.47-5.23,5.34-5.31,3.18-.09,5.61,2.22,5.66,5.36Z"/><path class="cls-5" d="m876.55,117.47c-3.41,0-6.51-3.2-6.39-6.61.11-3.17,3.29-6.18,6.45-6.1,3.24.09,6.29,3.06,6.35,6.18.06,3.57-2.83,6.52-6.4,6.52Z"/><path class="cls-5" d="m876.55,41.9c-3.49.04-6.32-2.6-6.4-5.96-.08-3.51,2.93-6.58,6.38-6.51,3.6.07,6.5,2.99,6.43,6.49-.06,3.26-2.94,5.94-6.41,5.98Z"/><path class="cls-5" d="m882.7,92.32c-.12,3.56-2.73,5.92-6.4,5.8-3.63-.11-6.18-2.78-5.99-6.26.18-3.22,3.3-5.86,6.72-5.69,3.15.16,5.78,3.01,5.67,6.15Z"/><path class="cls-5" d="m882.73,129.95c.04,3.46-2.63,6.05-6.24,6.06-3.35.01-6.3-2.93-6.2-6.18.09-3.05,2.93-5.78,6.09-5.85,3.55-.08,6.31,2.51,6.35,5.96Z"/><path class="cls-5" d="m882.71,54.44c.03,3.21-2.95,6.23-6.2,6.28-3.06.05-6.08-2.75-6.19-5.75-.12-3.14,2.87-6.38,6-6.52,3.35-.14,6.36,2.68,6.39,5.99Z"/><path class="cls-5" d="m882.1,17c-.1,3.32-2.13,5.13-5.73,5.09-3.56-.04-5.53-1.95-5.47-5.32.06-3.21,2.37-5.56,5.48-5.59,3.35-.03,5.81,2.47,5.71,5.81Z"/><path class="cls-5" d="m876.39,3.55c-3.2-.04-5.53-2.39-5.53-5.6,0-3.23,2.3-5.59,5.49-5.64,3.4-.05,5.91,2.48,5.81,5.83-.1,3.1-2.6,5.45-5.76,5.41Z"/><path class="cls-5" d="m881.95,148.84c.05,3.11-2.46,5.71-5.44,5.62-2.99-.09-5.65-2.8-5.56-5.67.09-2.86,2.47-5.23,5.34-5.31,3.18-.09,5.61,2.22,5.66,5.36Z"/><path class="cls-5" d="m881.95,166.32c.05,3.11-2.46,5.71-5.44,5.62-2.99-.09-5.65-2.8-5.56-5.67.09-2.86,2.47-5.23,5.34-5.31,3.18-.09,5.61,2.22,5.66,5.36Z"/><path class="cls-5" d="m133.22,166.04c.09-3.18,2.49-5.31,5.82-5.16,2.98.14,5.32,2.48,5.28,5.31-.03,2.99-2.65,5.56-5.67,5.58-2.91.01-5.52-2.73-5.43-5.72Z"/><path class="cls-5" d="m250.48,160.91c2.87.05,5.4,2.45,5.47,5.18.07,2.89-2.62,5.74-5.47,5.81-2.9.06-5.63-2.63-5.63-5.56,0-3.11,2.46-5.48,5.64-5.42Z"/><path class="cls-5" d="m209.39,166.28c.05-3.28,2.37-5.49,5.58-5.31,2.95.16,5.31,2.53,5.29,5.31-.02,3.04-2.54,5.63-5.51,5.66-2.99.03-5.4-2.52-5.35-5.66Z"/><path class="cls-5" d="m739.13,165.99c.05-3.24,1.91-5.08,5.16-5.11,3.16-.03,5.81,2.39,5.78,5.28-.03,2.73-2.99,5.65-5.7,5.64-2.92-.02-5.29-2.63-5.23-5.8Z"/><path class="cls-5" d="m125.02,166.09c.07,3.22-2.28,5.86-5.24,5.86-2.61,0-5.49-2.68-5.64-5.26-.17-2.82,2.58-5.64,5.58-5.71,3.13-.08,5.24,1.95,5.31,5.12Z"/><path class="cls-5" d="m530.13,165.97c.1-3.49,2.1-5.3,5.64-5.11,3.09.17,5.1,2.31,5.08,5.39-.01,2.79-2.53,5.27-5.35,5.27-3.28,0-5.46-2.25-5.37-5.56Z"/><path class="cls-5" d="m269.47,171.11c-3.09.07-5.09-1.76-5.13-4.66-.03-2.71,2.16-5.02,4.9-5.15,2.73-.14,5.07,2.1,5.1,4.86.03,2.97-1.85,4.89-4.87,4.95Z"/><path class="cls-5" d="m440.45,170c-2.27.04-4.1-1.77-4.05-4.01.04-1.96,1.84-3.75,3.83-3.82,1.98-.07,4.2,2.14,4.11,4.08-.09,2-1.87,3.71-3.89,3.75Z"/><path class="cls-5" d="m577.32,166.2c.02,2.07-1.58,3.69-3.75,3.79-2.28.1-4.26-1.74-4.17-3.87.07-1.78,2.07-3.85,3.83-3.98,2.03-.14,4.07,1.87,4.09,4.05Z"/><path class="cls-5" d="m387.36,166.05c.06,2.37-1.68,4.19-3.96,4.13-2.29-.06-4.02-1.88-3.97-4.18.04-2.09,1.7-3.85,3.71-3.96,2.14-.11,4.17,1.81,4.22,4.01Z"/><path class="cls-5" d="m626.8,166.43c-.08-2.3,1.33-4.1,3.28-4.19,2.19-.1,4.23,1.81,4.21,3.95-.02,1.98-1.72,3.73-3.78,3.88-2.25.16-3.62-1.18-3.71-3.64Z"/><path class="cls-5" d="m347.5,166.21c-.29,1.44-1.01,2.12-2.3,2.05-1.36-.07-1.92-.91-1.85-2.16.08-1.46.88-2.34,2.4-2.13,1.32.19,1.46,1.4,1.75,2.23Z"/><path class="cls-5" d="m913.96,28.5c4.16,0,7.23,3.2,7.12,7.42-.1,3.89-3.19,7.04-7.07,7.19-3.58.14-7.63-3.8-7.59-7.38.04-3.96,3.45-7.23,7.54-7.23Z"/><path class="cls-5" d="m939.7,130.01c0,3.8-2.93,6.8-6.66,6.82-4,.02-7.14-3.06-7.09-6.95.05-3.85,3.28-6.88,7.27-6.8,3.84.07,6.48,2.89,6.47,6.93Z"/><path class="cls-5" d="m933.16,85.27c3.6.1,6.6,3.31,6.54,7-.07,4.22-2.84,6.82-7.12,6.68-3.83-.13-6.7-3.07-6.63-6.81.07-3.95,3.26-6.99,7.21-6.88Z"/><path class="cls-5" d="m951.65,123.07c3.9-.09,7.18,3.03,7.25,6.89.07,3.72-2.87,6.69-6.72,6.8-4.14.12-7.09-2.71-7.09-6.8,0-3.92,2.75-6.81,6.55-6.9Z"/><path class="cls-5" d="m977.74,35.77c.02,3.63-3.05,6.61-6.8,6.62-3.8,0-6.89-2.87-6.97-6.46-.08-3.82,3.1-7.22,6.81-7.28,3.7-.06,6.94,3.26,6.96,7.13Z"/><path class="cls-5" d="m1066.01,66.52c3.88.02,6.57,2.74,6.62,6.7.05,3.85-3.16,7.12-6.92,7.05-3.55-.07-6.73-3.27-6.78-6.83-.05-3.83,3.13-6.94,7.08-6.92Z"/><path class="cls-5" d="m1053.86,74.14c-.43,3.78-4.05,6.59-7.9,6.12-3.62-.43-6.25-3.8-5.87-7.53.38-3.81,4.02-6.69,7.77-6.16,3.55.5,6.4,4.1,6,7.57Z"/><path class="cls-5" d="m1120.74,141.65c3.8.14,6.9,3.61,6.64,7.43-.25,3.66-3.43,6.53-7.1,6.41-3.72-.12-6.72-3.2-6.66-6.84.06-3.8,3.46-7.14,7.13-7Z"/><path class="cls-5" d="m1146.57,16.68c.11,3.52-3.44,7.03-7.13,7.05-3.59.02-6.51-3.05-6.54-6.89-.03-4.03,2.53-6.83,6.38-6.98,3.8-.15,7.17,3,7.29,6.82Z"/><path class="cls-5" d="m1015.93-1.87c0,3.51-3.21,6.68-6.85,6.78-3.95.11-7.1-2.96-7.09-6.9.01-3.65,3.02-6.64,6.75-6.72,3.89-.08,7.2,3.06,7.19,6.83Z"/><path class="cls-5" d="m1047.01,4.93c-3.74.05-6.79-2.91-6.91-6.69-.12-3.84,2.66-6.8,6.51-6.94,3.98-.14,7.22,2.87,7.26,6.76.04,3.41-3.37,6.83-6.86,6.87Z"/><path class="cls-5" d="m1084.76,61.4c-3.69,0-6.69-3.11-6.64-6.88.05-4.06,2.69-6.7,6.68-6.69,3.84.01,7.05,2.91,7.16,6.45.11,3.53-3.52,7.12-7.2,7.11Z"/><path class="cls-5" d="m989.93,103.86c3.53,0,6.57,3.16,6.63,6.92.07,4.19-2.33,6.73-6.43,6.79-4.4.07-6.97-2.48-6.89-6.83.07-3.71,3.16-6.89,6.69-6.89Z"/><path class="cls-5" d="m1034.66,110.73c.09,4.08-2.38,6.68-6.49,6.84-3.99.16-6.96-2.46-7.13-6.28-.16-3.7,3.31-7.44,6.85-7.39,3.73.06,6.69,3.04,6.77,6.83Z"/><path class="cls-5" d="m1034.37,73.27c.04,3.4-2.58,6-6.19,6.15-3.62.14-6.34-2.26-6.5-5.74-.17-3.59,2.72-6.85,6.07-6.86,3.45,0,6.57,3.04,6.62,6.45Z"/><path class="cls-5" d="m1104.01,41.9c-3.72-.01-6.47-2.77-6.38-6.4.08-3.53,2.7-6.08,6.19-6.06,3.5.02,6.72,3.17,6.57,6.42-.16,3.41-2.95,6.06-6.38,6.05Z"/><path class="cls-5" d="m1103.86,117.46c-3.31.02-6.08-2.73-6.2-6.14-.12-3.4,3.01-6.63,6.33-6.52,3.35.11,6.49,3.39,6.37,6.64-.11,3.09-3.26,6-6.5,6.02Z"/><path class="cls-5" d="m920.21,111.04c0,3.15-3.04,6.32-6.14,6.41-3.44.1-6.51-3.03-6.42-6.54.09-3.38,2.97-6.19,6.32-6.18,3.09,0,6.24,3.2,6.24,6.31Z"/><path class="cls-5" d="m1065.66,154.65c-3.46-.07-6.13-2.89-5.95-6.3.16-3.14,2.95-5.8,6.1-5.82,3.2-.02,6.27,3.01,6.29,6.21.02,3.21-3,5.97-6.45,5.91Z"/><path class="cls-5" d="m1139.57,116.95c-3.39.03-5.92-2.38-6.02-5.73-.1-3.38,2.76-6.34,6.07-6.27,3.08.07,6.03,2.86,6.18,5.85.16,3.21-2.8,6.12-6.24,6.15Z"/><path class="cls-5" d="m1109.82,129.8c.1,3.69-2.24,6.17-5.89,6.22-3.55.04-6.23-2.54-6.21-6.01.02-3.41,2.73-6.02,6.27-6.03,3.35-.01,5.73,2.38,5.83,5.82Z"/><path class="cls-5" d="m1103.78,86.16c3.62-.05,6.08,2.41,6.05,6.06-.03,3.51-2.21,5.76-5.7,5.9-3.64.15-6.33-2.26-6.39-5.73-.06-3.46,2.58-6.18,6.04-6.23Z"/><path class="cls-5" d="m913.7,98.38c-3.52-.04-5.79-2.61-5.66-6.42.12-3.43,2.5-5.82,5.82-5.84,3.13-.02,6.24,3.09,6.22,6.23-.02,3.17-3.09,6.06-6.38,6.02Z"/><path class="cls-5" d="m1109.82,54.43c.1,3.56-2.36,6.2-5.86,6.3-3.13.09-6-2.52-6.17-5.62-.19-3.46,2.34-6.28,5.76-6.42,3.77-.16,6.17,2.04,6.27,5.74Z"/><path class="cls-5" d="m913.62,136.01c-3.51-.08-5.77-2.69-5.58-6.43.17-3.44,2.57-5.69,5.96-5.61,3.25.08,6.17,3.08,6.08,6.25-.09,3.33-2.93,5.87-6.46,5.79Z"/><path class="cls-5" d="m1027.99,135.93c-3.13.11-6.13-2.86-6.19-6.14-.05-3.16,2.52-5.77,5.81-5.9,3.15-.12,6.39,2.75,6.59,5.83.18,2.93-2.98,6.09-6.21,6.21Z"/><path class="cls-5" d="m1084.85,135.95c-3.53.02-5.96-2.55-5.88-6.23.07-3.6,2.18-5.74,5.74-5.85,3.49-.1,6.37,2.55,6.36,5.87,0,3.19-3.01,6.2-6.21,6.21Z"/><path class="cls-5" d="m984.27,54.03c.12-3.53,2.45-5.77,5.86-5.63,3.4.14,6.06,3.06,5.86,6.44-.16,2.8-3.35,5.75-6.24,5.77-3.21.03-5.61-2.85-5.48-6.59Z"/><path class="cls-5" d="m933.03,41.57c-3.53.07-6.2-2.48-6.25-5.95-.05-3.15,3.05-6.24,6.2-6.18,3.25.06,5.77,2.57,5.88,5.86.13,3.65-2.24,6.2-5.84,6.27Z"/><path class="cls-5" d="m1021.8,54.63c-.13-3.13,2.41-5.93,5.63-6.19,3.15-.25,6.51,2.66,6.64,5.76.13,3-3.11,6.26-6.21,6.26-3.1,0-5.93-2.72-6.06-5.83Z"/><path class="cls-5" d="m1014.82,16.81c.06,3.35-2.3,5.92-5.57,6.06-3.49.15-6.3-2.45-6.32-5.85-.02-3.45,2.66-6.13,6.1-6.1,3.28.03,5.73,2.52,5.79,5.88Z"/><path class="cls-5" d="m1066.06,98.11c-3.48.08-6.28-2.52-6.32-5.87-.04-2.92,2.86-5.81,5.93-5.91,3.43-.11,5.97,2.15,6.13,5.47.18,3.6-2.22,6.23-5.74,6.31Z"/><path class="cls-5" d="m951.92,79.33c-3.32.02-5.88-2.43-5.99-5.74-.11-3.41,2.65-6.29,5.99-6.25,3.05.04,6.32,3.38,6.17,6.3-.16,3.13-2.91,5.67-6.17,5.68Z"/><path class="cls-5" d="m1084.8,79.32c-3.51-.11-6.14-2.89-5.93-6.28.2-3.16,2.98-5.75,6.11-5.68,3.17.07,6.22,3.29,6.02,6.37-.2,3.19-2.98,5.7-6.2,5.6Z"/><path class="cls-5" d="m1047.04,22.89c-3.31.07-5.92-2.37-6.01-5.6-.1-3.59,2.39-6.32,5.79-6.35,3.27-.03,6.24,2.92,6.19,6.12-.05,3.1-2.78,5.76-5.96,5.83Z"/><path class="cls-5" d="m926.8,148.64c.13-3.01,3.04-5.83,6.03-5.84,3.67,0,6.22,2.86,5.94,6.66-.24,3.28-2.74,5.29-6.34,5.1-3.43-.18-5.77-2.65-5.63-5.93Z"/><path class="cls-5" d="m976.82,149.33c-.21,3.28-2.93,5.52-6.36,5.25-3.41-.28-5.84-2.89-5.65-6.09.18-3.1,3.12-5.78,6.23-5.67,3.48.12,6.01,2.98,5.78,6.52Z"/><path class="cls-5" d="m1047.03,154.57c-3.58.04-5.91-2.11-6-5.54-.09-3.66,2.4-6.19,6.02-6.1,3.13.07,6.02,2.94,5.96,5.93-.07,3.31-2.54,5.67-5.97,5.72Z"/><path class="cls-5" d="m989.93,135.93c-3.26.02-5.67-2.42-5.74-5.83-.08-3.83,2.15-6.24,5.75-6.22,3,.01,5.87,2.77,6.03,5.79.16,3.11-2.86,6.24-6.03,6.26Z"/><path class="cls-5" d="m995.99,16.95c-.11,3.05-3.03,5.7-6.22,5.66-3.55-.05-5.72-2.6-5.53-6.51.18-3.59,2.42-5.52,6.1-5.27,3.3.23,5.77,2.89,5.65,6.12Z"/><path class="cls-5" d="m964.79,54.74c-.09-3.15,2.45-5.82,5.69-5.98,3.68-.18,6.29,2.15,6.33,5.67.04,3.36-2.8,6.32-6,6.25-2.78-.06-5.94-3.17-6.02-5.94Z"/><path class="cls-5" d="m951.89,143.28c3.52,0,6.09,2.26,6.21,5.48.12,3.29-2.77,5.9-6.41,5.81-3.45-.09-5.92-2.54-5.87-5.82.05-3.43,2.31-5.47,6.07-5.47Z"/><path class="cls-5" d="m970.86,116.73c-3.59,0-5.98-2.18-6.07-5.52-.09-3.16,2.91-6.32,6.04-6.37,3.19-.05,6.1,3,6.03,6.32-.07,3.36-2.46,5.58-6.01,5.57Z"/><path class="cls-5" d="m952.04,22.78c-3.52.01-6.2-2.62-6.14-6.05.06-3.24,2.61-5.76,5.89-5.81,3.2-.06,6.37,2.98,6.32,6.04-.05,2.88-3.11,5.82-6.07,5.83Z"/><path class="cls-5" d="m1046.97,98.14c-3.65.03-5.88-2.06-5.96-5.57-.08-3.73,1.85-5.75,5.59-5.84,3.79-.09,6.49,2.32,6.4,5.71-.08,3.32-2.57,5.67-6.03,5.7Z"/><path class="cls-5" d="m1103.82-7.68c3.35.01,5.83,2.46,5.83,5.76,0,2.87-2.69,5.63-5.54,5.72-3.09.09-5.98-2.61-6.09-5.69-.11-3.16,2.53-5.79,5.8-5.78Z"/><path class="cls-5" d="m1084.91,154.55c-3.43-.08-5.99-2.85-5.82-6.29.16-3.3,2.14-4.99,5.84-4.98,3.51,0,6.13,2.4,6.02,5.51-.11,3.1-2.97,5.84-6.04,5.76Z"/><path class="cls-5" d="m1145.2,35.68c.03,3.24-2.31,5.59-5.5,5.53-3.33-.07-5.75-2.27-5.85-5.32-.11-3.12,2.59-6.12,5.61-6.24,3.01-.12,5.72,2.72,5.75,6.04Z"/><path class="cls-5" d="m1120.76,124.08c3.32.11,5.7,2.73,5.52,6.08-.17,3.08-2.62,5.17-5.95,5.05-3.09-.11-5.67-2.6-5.69-5.49-.01-2.99,2.98-5.74,6.11-5.64Z"/><path class="cls-5" d="m995.55,35.45c.06,2.98-2.5,5.63-5.51,5.72-3.07.09-5.67-2.39-5.72-5.46-.05-3.27,2.66-6.15,5.71-6.07,2.87.07,5.47,2.81,5.53,5.81Z"/><path class="cls-5" d="m938.59,73.16c.1,3.08-2.72,5.99-5.8,5.98-2.81-.01-5.71-2.81-5.78-5.6-.08-2.89,2.94-5.92,5.95-5.98,2.95-.05,5.53,2.51,5.63,5.59Z"/><path class="cls-5" d="m1008.73,98.01c-2.99-.09-5.62-2.69-5.67-5.62-.05-3.13,2.68-5.69,6-5.64,3.25.05,5.61,2.38,5.57,5.48-.04,3.34-2.62,5.87-5.9,5.77Z"/><path class="cls-5" d="m1084.63,3.46c-3.26-.06-5.38-2.25-5.37-5.54.01-3.45,2.42-5.75,5.85-5.58,2.92.14,5.65,2.86,5.64,5.61,0,3.1-2.75,5.58-6.12,5.51Z"/><path class="cls-5" d="m1071.69,16.71c.06,2.89-2.49,5.59-5.44,5.77-3.28.2-5.81-2.25-5.83-5.64-.02-3.25,2.12-5.6,5.26-5.78,3.12-.18,5.95,2.48,6.01,5.64Z"/><path class="cls-5" d="m1009.01,67.74c2.9.05,5.63,2.79,5.63,5.64,0,2.91-2.65,5.58-5.59,5.65-3.03.07-6.05-2.91-5.93-5.84.11-2.69,3.15-5.49,5.9-5.44Z"/><path class="cls-5" d="m1109.61,16.62c.1,3.1-2.24,5.37-5.61,5.46-3.39.1-5.84-2.05-5.87-5.16-.03-2.96,2.65-5.7,5.61-5.73,3.07-.03,5.78,2.47,5.87,5.42Z"/><path class="cls-5" d="m1139.88-7.77c3.1.11,5.36,2.54,5.32,5.7-.04,3.29-2.64,5.72-5.96,5.55-3.13-.16-5.43-2.59-5.39-5.69.04-3.22,2.7-5.67,6.02-5.55Z"/><path class="cls-5" d="m1084.64,11.29c3.29-.08,5.62,2.06,5.75,5.28.14,3.47-1.74,5.44-5.27,5.53-3.56.09-5.74-1.81-5.82-5.08-.08-3.21,2.2-5.64,5.34-5.72Z"/><path class="cls-5" d="m919.28-1.83c-.03,3.06-2.62,5.67-5.57,5.63-2.76-.04-5.42-3.02-5.31-5.95.1-2.8,2.65-5.32,5.38-5.32,3.01,0,5.54,2.6,5.51,5.64Z"/><path class="cls-5" d="m1027.78,3.39c-3.15-.08-5.51-2.57-5.4-5.71.1-2.86,2.55-5.27,5.38-5.28,3.19-.01,5.94,2.89,5.72,6.03-.2,2.77-2.81,5.04-5.71,4.96Z"/><path class="cls-5" d="m1120.51,116.31c-2.94-.03-5.72-2.82-5.6-5.6.12-2.69,2.74-5.22,5.46-5.28,3.07-.07,5.65,2.37,5.71,5.42.07,3.11-2.37,5.49-5.58,5.46Z"/><path class="cls-5" d="m913.75,143.48c3.17-.04,5.55,2.3,5.54,5.45-.01,2.9-2.28,5.37-5.07,5.53-2.94.17-5.7-2.35-5.84-5.32-.15-3.06,2.28-5.63,5.37-5.66Z"/><path class="cls-5" d="m990.26,143.4c2.96.19,5.31,2.61,5.23,5.38-.09,2.93-2.86,5.62-5.72,5.56-2.93-.06-5.47-2.81-5.39-5.83.08-3.13,2.6-5.32,5.88-5.11Z"/><path class="cls-5" d="m1022.39,148.57c.09-3.18,2.49-5.31,5.82-5.16,2.98.14,5.32,2.48,5.28,5.31-.03,2.99-2.65,5.56-5.67,5.58-2.91.01-5.52-2.73-5.43-5.72Z"/><path class="cls-5" d="m1139.66,143.43c2.87.05,5.4,2.45,5.47,5.18.07,2.89-2.62,5.74-5.47,5.81-2.9.06-5.63-2.63-5.63-5.56,0-3.11,2.46-5.48,5.64-5.42Z"/><path class="cls-5" d="m1098.57,148.81c.05-3.28,2.37-5.49,5.58-5.31,2.95.16,5.31,2.53,5.29,5.31-.02,3.04-2.54,5.63-5.51,5.66-2.99.03-5.4-2.52-5.35-5.66Z"/><path class="cls-5" d="m1009.04,41.2c-2.99.08-5.65-2.4-5.78-5.39-.12-2.8,2.64-5.47,5.66-5.48,3.05-.01,5.17,2.06,5.27,5.13.11,3.33-1.99,5.66-5.16,5.75Z"/><path class="cls-5" d="m970.65,68.23c3.15-.07,5.9,2.31,5.96,5.15.05,2.73-2.81,5.58-5.67,5.64-2.99.07-5.58-2.53-5.55-5.58.02-2.94,2.24-5.14,5.27-5.21Z"/><path class="cls-5" d="m1090.29,92.22c.08,3.05-2.41,5.6-5.47,5.59-2.86,0-5.29-2.33-5.42-5.2-.15-3.16,2.14-5.66,5.24-5.75,3.13-.09,5.56,2.22,5.65,5.35Z"/><path class="cls-5" d="m1046.72,116.53c-2.95-.02-5.29-2.26-5.37-5.13-.08-3.05,2.42-5.73,5.36-5.73,3.1,0,5.52,2.4,5.51,5.51,0,3.31-2.14,5.39-5.5,5.36Z"/><path class="cls-5" d="m1065.55,116.42c-3.12-.09-5.09-2.16-5.04-5.3.05-2.97,2.71-5.64,5.55-5.57,2.84.07,5.57,2.95,5.45,5.77-.13,2.96-2.74,5.2-5.96,5.1Z"/><path class="cls-5" d="m951.95,3.39c-2.84.05-5.43-2.3-5.59-5.06-.17-2.91,2.43-5.8,5.33-5.91,2.87-.11,5.65,2.69,5.57,5.62-.08,2.85-2.51,5.3-5.31,5.35Z"/><path class="cls-5" d="m1014.2,148.61c.07,3.22-2.28,5.86-5.24,5.86-2.61,0-5.49-2.68-5.64-5.26-.17-2.82,2.58-5.64,5.58-5.71,3.13-.08,5.24,1.95,5.31,5.12Z"/><path class="cls-5" d="m1134.2,54.41c.2-3.17,2.85-5.51,5.89-5.21,2.67.27,4.91,2.74,4.85,5.35-.06,2.75-2.7,5.22-5.53,5.16-3.07-.06-5.39-2.42-5.22-5.3Z"/><path class="cls-5" d="m1014.13,130.15c.02,3.03-2.14,5.01-5.43,4.98-3.04-.03-4.79-1.81-4.87-4.94-.08-3.28,1.82-5.27,5.04-5.27,3.1,0,5.24,2.13,5.26,5.24Z"/><path class="cls-5" d="m1065.9,40.7c-3.16,0-5.34-2.11-5.31-5.15.03-2.75,2.69-5.25,5.51-5.16,2.59.08,5.32,3.05,5.18,5.63-.14,2.66-2.45,4.67-5.37,4.68Z"/><path class="cls-5" d="m951.71,59.07c-2.81-.08-4.68-2.02-4.51-4.69.17-2.74,2.14-4.61,4.77-4.53,2.68.08,4.54,2.06,4.5,4.77-.05,2.72-1.97,4.53-4.75,4.45Z"/><path class="cls-5" d="m1032.66,35.62c-.05,2.34-2.52,4.77-4.83,4.75-2.47-.02-4.57-2.31-4.5-4.93.06-2.53,1.86-4.26,4.48-4.29,2.76-.04,4.91,1.94,4.85,4.47Z"/><path class="cls-5" d="m1139.47,134.26c-2.62-.03-4.46-1.73-4.52-4.19-.07-2.45,2.25-4.85,4.63-4.8,2.38.06,4.62,2.51,4.52,4.94-.1,2.46-1.96,4.08-4.63,4.05Z"/><path class="cls-5" d="m1046.99,40.21c-2.15.04-4.53-2.3-4.5-4.42.03-2.02,2.05-4.01,4.2-4.15,2.33-.15,4.46,1.93,4.39,4.29-.06,2.01-2.2,4.24-4.1,4.28Z"/><path class="cls-5" d="m956.19,35.85c-.06,2.03-2.22,4.13-4.27,4.15-2.24.02-4.48-2.38-4.27-4.57.2-2.14,2.4-4.07,4.45-3.91,2.08.17,4.15,2.36,4.09,4.34Z"/><path class="cls-5" d="m951.81,88.05c2,.01,4.25,2.14,4.36,4.12.12,2.19-1.69,3.92-4.18,4-2.48.07-4.26-1.54-4.25-3.86,0-2.24,1.95-4.27,4.07-4.25Z"/><path class="cls-5" d="m970.85,125.83c2.13,0,4.18,1.98,4.2,4.07.02,2.09-1.96,4.11-4.11,4.17-2.17.06-4.17-1.88-4.17-4.05,0-2.19,1.93-4.18,4.08-4.18Z"/><path class="cls-5" d="m932.94,12.69c2.33.04,4.02,1.8,3.99,4.16-.03,2.33-1.8,4.04-4.15,3.99-2.36-.04-4.02-1.78-3.97-4.16.06-2.41,1.74-4.04,4.13-3.99Z"/><path class="cls-5" d="m989.64,69.38c2.5-.04,4.22,1.47,4.29,3.74.07,2.13-1.81,4.2-3.9,4.3-2.16.1-4.38-2.18-4.31-4.44.06-2.04,1.72-3.57,3.92-3.6Z"/><path class="cls-5" d="m989.84,1.63c-2.48-.03-4.21-1.75-4.07-4.05.13-2.15,2.28-4.03,4.43-3.89,1.99.13,3.78,2,3.84,4,.06,2.29-1.73,3.97-4.2,3.94Z"/><path class="cls-5" d="m932.74,58.7c-1.98-.07-4.03-2.37-3.93-4.41.11-2.24,2.07-3.87,4.42-3.69,2.15.17,3.74,1.87,3.67,3.95-.07,2.13-2.17,4.22-4.16,4.15Z"/><path class="cls-5" d="m1009.06,107.28c2.06.07,3.89,1.86,3.89,3.81,0,2.15-2.11,4.01-4.34,3.82-2.06-.18-3.73-2.06-3.62-4.06.11-2.02,1.96-3.64,4.07-3.57Z"/><path class="cls-5" d="m1069.92-1.95c0,2.23-1.42,3.6-3.81,3.68-2.45.08-4.22-1.56-4.19-3.88.03-2.15,1.63-3.7,3.85-3.72,2.47-.03,4.15,1.56,4.15,3.92Z"/><path class="cls-5" d="m1027.97,20.64c-1.85.13-3.48-1.35-3.71-3.35-.28-2.39,1.33-4.42,3.55-4.49,2.02-.06,3.85,1.73,3.87,3.78.02,1.98-1.76,3.93-3.7,4.06Z"/><path class="cls-5" d="m1141.87,92.2c-.2,1.36-.94,2.28-2.32,2.32-1.24.03-1.91-.79-1.89-2.03.02-1.14.51-2.2,1.66-2.35,1.36-.18,2.16.79,2.54,2.07Z"/><path class="cls-5" d="m1120.58,94.22c-1.35-.16-2.14-.92-2.15-2.09-.01-1.45,1.03-2.23,2.41-2.15,1.25.07,1.88,1,1.76,2.23-.12,1.21-.91,1.87-2.03,2.01Z"/><path class="cls-5" d="m1120.74,159.13c3.8.14,6.9,3.61,6.64,7.43-.25,3.66-3.43,6.53-7.1,6.41-3.72-.12-6.72-3.2-6.66-6.84.06-3.8,3.46-7.14,7.13-7Z"/><path class="cls-5" d="m1065.66,172.12c-3.46-.07-6.13-2.89-5.95-6.3.16-3.14,2.95-5.8,6.1-5.82,3.2-.02,6.27,3.01,6.29,6.21.02,3.21-3,5.97-6.45,5.91Z"/><path class="cls-5" d="m926.8,166.11c.13-3.01,3.04-5.83,6.03-5.84,3.67,0,6.22,2.86,5.94,6.66-.24,3.28-2.74,5.29-6.34,5.1-3.43-.18-5.77-2.65-5.63-5.93Z"/><path class="cls-5" d="m976.82,166.81c-.21,3.28-2.93,5.52-6.36,5.25-3.41-.28-5.84-2.89-5.65-6.09.18-3.1,3.12-5.78,6.23-5.67,3.48.12,6.01,2.98,5.78,6.52Z"/><path class="cls-5" d="m1047.03,172.04c-3.58.04-5.91-2.11-6-5.54-.09-3.66,2.4-6.19,6.02-6.1,3.13.07,6.02,2.94,5.96,5.93-.07,3.31-2.54,5.67-5.97,5.72Z"/><path class="cls-5" d="m951.89,160.75c3.52,0,6.09,2.26,6.21,5.48.12,3.29-2.77,5.9-6.41,5.81-3.45-.09-5.92-2.54-5.87-5.82.05-3.43,2.31-5.47,6.07-5.47Z"/><path class="cls-5" d="m895.73,123.07c3.9-.09,7.18,3.03,7.25,6.89.07,3.72-2.87,6.69-6.72,6.8-4.14.12-7.09-2.71-7.09-6.8,0-3.92,2.75-6.81,6.55-6.9Z"/><path class="cls-5" d="m896,79.33c-3.32.02-5.88-2.43-5.99-5.74-.11-3.41,2.65-6.29,5.99-6.25,3.05.04,6.32,3.38,6.17,6.3-.16,3.13-2.91,5.67-6.17,5.68Z"/><path class="cls-5" d="m895.97,143.28c3.52,0,6.09,2.26,6.21,5.48.12,3.29-2.77,5.9-6.41,5.81-3.45-.09-5.92-2.54-5.87-5.82.05-3.43,2.31-5.47,6.07-5.47Z"/><path class="cls-5" d="m896.12,22.78c-3.52.01-6.2-2.62-6.14-6.05.06-3.24,2.61-5.76,5.89-5.81,3.2-.06,6.37,2.98,6.32,6.04-.05,2.88-3.11,5.82-6.07,5.83Z"/><path class="cls-5" d="m896.03,3.39c-2.84.05-5.43-2.3-5.59-5.06-.17-2.91,2.43-5.8,5.33-5.91,2.87-.11,5.65,2.69,5.57,5.62-.08,2.85-2.51,5.3-5.31,5.35Z"/><path class="cls-5" d="m895.79,59.07c-2.81-.08-4.68-2.02-4.51-4.69.17-2.74,2.14-4.61,4.77-4.53,2.68.08,4.54,2.06,4.5,4.77-.05,2.72-1.97,4.53-4.75,4.45Z"/><path class="cls-5" d="m900.27,35.85c-.06,2.03-2.22,4.13-4.27,4.15-2.24.02-4.48-2.38-4.27-4.57.2-2.14,2.4-4.07,4.45-3.91,2.08.17,4.15,2.36,4.09,4.34Z"/><path class="cls-5" d="m895.89,88.05c2,.01,4.25,2.14,4.36,4.12.12,2.19-1.69,3.92-4.18,4-2.48.07-4.26-1.54-4.25-3.86,0-2.24,1.95-4.27,4.07-4.25Z"/><path class="cls-5" d="m895.97,160.75c3.52,0,6.09,2.26,6.21,5.48.12,3.29-2.77,5.9-6.41,5.81-3.45-.09-5.92-2.54-5.87-5.82.05-3.43,2.31-5.47,6.07-5.47Z"/><path class="cls-5" d="m1084.91,172.03c-3.43-.08-5.99-2.85-5.82-6.29.16-3.3,2.14-4.99,5.84-4.98,3.51,0,6.13,2.4,6.02,5.51-.11,3.1-2.97,5.84-6.04,5.76Z"/><path class="cls-5" d="m913.75,160.95c3.17-.04,5.55,2.3,5.54,5.45-.01,2.9-2.28,5.37-5.07,5.53-2.94.17-5.7-2.35-5.84-5.32-.15-3.06,2.28-5.63,5.37-5.66Z"/><path class="cls-5" d="m990.26,160.88c2.96.19,5.31,2.61,5.23,5.38-.09,2.93-2.86,5.62-5.72,5.56-2.93-.06-5.47-2.81-5.39-5.83.08-3.13,2.6-5.32,5.88-5.11Z"/><path class="cls-5" d="m1022.39,166.04c.09-3.18,2.49-5.31,5.82-5.16,2.98.14,5.32,2.48,5.28,5.31-.03,2.99-2.65,5.56-5.67,5.58-2.91.01-5.52-2.73-5.43-5.72Z"/><path class="cls-5" d="m1139.66,160.91c2.87.05,5.4,2.45,5.47,5.18.07,2.89-2.62,5.74-5.47,5.81-2.9.06-5.63-2.63-5.63-5.56,0-3.11,2.46-5.48,5.64-5.42Z"/><path class="cls-5" d="m1098.57,166.28c.05-3.28,2.37-5.49,5.58-5.31,2.95.16,5.31,2.53,5.29,5.31-.02,3.04-2.54,5.63-5.51,5.66-2.99.03-5.4-2.52-5.35-5.66Z"/><path class="cls-5" d="m1014.2,166.09c.07,3.22-2.28,5.86-5.24,5.86-2.61,0-5.49-2.68-5.64-5.26-.17-2.82,2.58-5.64,5.58-5.71,3.13-.08,5.24,1.95,5.31,5.12Z"/></g><g class="cls-2"><path class="cls-4" d="m675.21,534.36c.05,4.06-2.45,6.7-6.47,6.82-3.96.11-7.31-2.89-7.4-6.63-.07-3.24,3.44-6.95,6.71-7.09,3.79-.16,7.11,3.04,7.16,6.9Z"/><path class="cls-4" d="m846.24,647.49c0,3.87-2.76,6.69-6.63,6.77-3.97.08-7.2-2.97-7.22-6.81-.02-3.5,3.24-6.83,6.75-6.92,3.78-.09,7.11,3.17,7.11,6.96Z"/><path class="cls-4" d="m820.33,597.8c-4.14-.03-6.82-2.86-6.7-7.09.1-3.66,3.2-6.66,6.88-6.65,3.64.01,6.79,3.12,6.84,6.76.05,3.85-3.12,7-7.02,6.98Z"/><path class="cls-4" d="m50.52,609.94c-.05,3.67-3.19,6.8-6.79,6.78-3.99-.03-7.03-3.12-6.95-7.08.07-3.64,3.66-7,7.3-6.82,3.64.18,6.5,3.34,6.45,7.12Z"/><path class="cls-4" d="m183.45,591.08c-.07,4.15-2.92,6.86-7.07,6.73-3.67-.12-6.7-3.27-6.61-6.86.09-3.74,3.6-7.06,7.22-6.84,3.78.23,6.52,3.2,6.46,6.98Z"/><path class="cls-4" d="m687.29,616.71c-3.67,0-6.64-3.03-6.65-6.77-.02-4,3.09-7.23,6.85-7.13,3.48.09,6.77,3.37,6.86,6.83.1,3.65-3.32,7.07-7.05,7.07Z"/><path class="cls-4" d="m195.84,654.26c-3.93.09-6.72-2.52-6.89-6.44-.17-3.9,2.93-7.29,6.66-7.29,3.58,0,7.15,3.54,7.17,7.09.01,3.44-3.25,6.55-6.94,6.63Z"/><path class="cls-4" d="m24.74,527.47c3.62.1,7.09,3.67,7.01,7.23-.08,3.75-3.45,6.68-7.45,6.48-3.94-.2-6.52-3.01-6.37-6.95.14-3.66,3.34-6.85,6.81-6.75Z"/><path class="cls-4" d="m782.64,616.14c-3.56.12-6.68-2.6-6.92-6.02-.24-3.39,3.02-6.91,6.47-6.99,3.56-.08,6.9,3.07,6.93,6.54.04,3.37-2.95,6.35-6.49,6.47Z"/><path class="cls-4" d="m314.15,647.43c-.01,3.54-2.84,6.37-6.47,6.48-3.75.11-7.07-2.88-7.09-6.39-.02-3.49,3.27-6.53,6.99-6.46,3.5.06,6.59,3.05,6.57,6.37Z"/><path class="cls-4" d="m145.23,609.75c0,3.82-2.56,6.36-6.42,6.39-3.91.03-6.49-2.43-6.51-6.22-.02-4.02,2.71-6.84,6.58-6.79,3.44.05,6.36,3.09,6.35,6.62Z"/><path class="cls-4" d="m62.69,640.81c3.57.03,6.62,3.2,6.59,6.84-.03,3.64-2.83,6.36-6.47,6.27-3.83-.1-6.53-2.64-6.59-6.22-.06-3.85,2.82-6.93,6.47-6.89Z"/><path class="cls-4" d="m706.81,653.95c-3.98.13-6.59-2.19-6.74-5.98-.17-4.04,2.51-7.08,6.22-7.09,3.25,0,6.61,3.13,6.86,6.39.25,3.29-2.86,6.56-6.33,6.67Z"/><path class="cls-4" d="m389.77,609.78c-.05,3.2-3.02,6.15-6.29,6.22-3.4.08-6.58-3.06-6.58-6.48,0-3.14,3.08-6.16,6.33-6.21,3.39-.05,6.58,3.1,6.53,6.46Z"/><path class="cls-4" d="m630.24,653.33c-3.74-.11-6.34-2.85-6.21-6.53.11-3.15,3.19-6.01,6.43-5.96,3.38.05,6.41,3.29,6.22,6.67-.19,3.49-2.88,5.93-6.44,5.83Z"/><path class="cls-4" d="m801.27,641.27c3.27-.05,6.32,2.77,6.48,5.97.17,3.51-2.74,6.54-6.3,6.57-3.45.02-6.27-2.6-6.39-5.96-.13-3.65,2.59-6.53,6.21-6.58Z"/><path class="cls-4" d="m31.02,629.48c-.4,3.48-3.76,6.12-7.15,5.61-3.2-.48-5.81-3.81-5.42-6.93.46-3.7,3.32-5.88,7.18-5.47,3.26.35,5.77,3.51,5.4,6.79Z"/><path class="cls-4" d="m668.38,634.91c-3.56,0-6.12-2.44-6.24-5.94-.12-3.67,2.58-6.38,6.3-6.31,3.55.07,6.22,2.57,6.36,5.96.15,3.61-2.58,6.28-6.42,6.29Z"/><path class="cls-4" d="m163.95,647.64c-.03,3.39-2.76,6.08-6.24,6.15-3.68.08-5.94-2.24-5.97-6.12-.03-3.82,2.23-6.34,5.75-6.4,3.72-.07,6.49,2.66,6.46,6.37Z"/><path class="cls-4" d="m807.53,553.03c.09,3.32-2.79,6.43-5.99,6.45-3.16.02-6.35-3.1-6.33-6.2.02-3.13,2.67-5.88,5.86-6.08,3.48-.22,6.37,2.39,6.46,5.83Z"/><path class="cls-4" d="m100.34,634.67c-3.05-.07-5.93-3.31-5.81-6.54.13-3.47,2.71-5.67,6.52-5.55,3.54.12,6.08,2.82,5.87,6.24-.19,3.16-3.29,5.92-6.58,5.85Z"/><path class="cls-4" d="m807.54,609.8c0,3.3-2.89,6.13-6.28,6.16-3.13.03-6.22-3.21-6.06-6.38.15-3.05,3.09-5.94,6.05-5.93,3.27.01,6.29,2.96,6.29,6.15Z"/><path class="cls-4" d="m151.78,553.49c-.11-3.52,2.08-6.08,5.38-6.29,3.35-.22,6.6,2.49,6.75,5.63.15,3.09-2.87,6.55-5.83,6.68-3.37.15-6.19-2.54-6.29-6.01Z"/><path class="cls-4" d="m750.42,628.41c.03,3.47-2.62,6.21-6.06,6.28-3.37.07-5.95-2.67-5.96-6.3,0-3.61,2.06-5.7,5.73-5.79,3.75-.1,6.26,2.22,6.29,5.82Z"/><path class="cls-4" d="m541.34,647.12c.07,3.7-2.25,6.14-5.9,6.21-3.58.06-6.22-2.47-6.22-5.96,0-3.17,2.59-5.89,5.78-6.08,3.48-.2,6.28,2.36,6.34,5.82Z"/><path class="cls-4" d="m24.84,653.44c-4.03.07-6.02-1.85-5.99-5.81.02-3.35,2.43-6.08,5.5-6.24,3.12-.16,6.62,3.29,6.56,6.47-.06,3.18-2.6,5.51-6.07,5.57Z"/><path class="cls-4" d="m24.5,616.01c-3.43-.1-5.83-2.84-5.65-6.44.17-3.32,2.77-5.9,5.87-5.84,3.18.07,6.27,3.2,6.18,6.26-.09,3.16-3.24,6.11-6.41,6.02Z"/><path class="cls-4" d="m151.81,609.88c-.03-3.38,2.35-6.04,5.53-6.19,3.24-.15,6.49,2.73,6.57,5.83.08,3.33-3.13,6.52-6.5,6.46-3.2-.06-5.56-2.64-5.59-6.1Z"/><path class="cls-4" d="m674.32,610.21c-.1,3.28-2.64,5.8-5.87,5.81-3.24.01-6.26-2.98-6.19-6.14.07-3.28,3.04-6.2,6.23-6.14,3.09.06,5.92,3.21,5.83,6.47Z"/><path class="cls-4" d="m18.93,553.66c-.08-3.81,1.77-5.97,5.26-6.12,3.64-.16,6.4,2.18,6.57,5.56.16,3.08-2.86,6.25-6.06,6.39-3.14.13-5.7-2.45-5.77-5.83Z"/><path class="cls-4" d="m389.58,647.23c.01,3.33-2.88,6.1-6.32,6.08-3.36-.02-5.67-2.44-5.69-5.96-.02-3.47,2.29-5.98,5.6-6.09,3.41-.12,6.39,2.66,6.41,5.97Z"/><path class="cls-4" d="m37.64,628.03c.41-3.24,3.63-5.66,6.98-5.25,3.15.39,5.36,3.32,4.96,6.6-.41,3.37-3.56,5.82-6.85,5.31-3.06-.47-5.48-3.64-5.09-6.65Z"/><path class="cls-4" d="m339.56,628.38c.06-3.55,2.26-5.73,5.8-5.73,3.31,0,6.06,2.52,6.13,5.61.07,3.13-3.07,6.49-6.02,6.44-3.41-.05-5.97-2.79-5.91-6.32Z"/><path class="cls-4" d="m617.45,647.51c-.11,3.18-2.77,5.67-6.07,5.66-3.63,0-6.01-2.5-5.89-6.16.11-3.34,2.6-5.76,5.91-5.74,3.32.01,6.17,2.95,6.05,6.24Z"/><path class="cls-4" d="m611.49,584.67c3.35.12,6.14,3.08,5.97,6.33-.16,3.11-2.97,5.69-6.13,5.66-3.44-.04-6.04-2.86-5.82-6.31.21-3.36,2.78-5.79,5.99-5.68Z"/><path class="cls-4" d="m402.5,604.08c3.33.08,5.88,2.58,5.9,5.77.02,3.3-2.9,6.18-6.2,6.11-3.16-.06-5.85-2.75-5.9-5.9-.05-3.34,2.77-6.06,6.2-5.98Z"/><path class="cls-4" d="m674.33,647.69c.05,3.51-2.12,5.65-5.81,5.75-3.47.09-6.07-2.17-6.25-5.43-.18-3.14,2.83-6.48,5.94-6.6,3.22-.13,6.07,2.79,6.12,6.29Z"/><path class="cls-4" d="m182.64,609.98c0,3.39-2.87,6.14-6.21,5.99-2.96-.14-5.89-3.18-5.84-6.06.06-3.13,2.7-5.74,5.89-5.82,3.6-.09,6.17,2.38,6.16,5.89Z"/><path class="cls-4" d="m814.47,609.44c.26-3.4,3.12-5.68,6.7-5.34,3.12.3,5.6,3.25,5.32,6.34-.26,2.89-3.5,5.68-6.39,5.5-3.47-.22-5.91-3.03-5.64-6.5Z"/><path class="cls-4" d="m687.23,634.72c-3.28-.04-5.66-2.51-5.71-5.91-.05-3.55,2.55-6.15,6.03-6.07,3.01.07,6,3.02,5.97,5.88-.04,3.1-3.18,6.15-6.29,6.11Z"/><path class="cls-4" d="m782.16,634.64c-3.35-.14-5.87-3.09-5.62-6.59.23-3.19,2.6-5.35,5.81-5.31,3.33.04,6.31,3.09,6.09,6.22-.19,2.81-3.49,5.79-6.28,5.67Z"/><path class="cls-4" d="m636.24,628.08c.04,3.45-2.71,6.36-6.01,6.37-2.86,0-5.93-3.11-5.97-6.05-.05-3.16,2.62-5.75,5.94-5.78,3.74-.04,6,2.01,6.04,5.47Z"/><path class="cls-4" d="m674.24,553.39c-.01,3.15-2.76,6.03-5.82,6.09-3.13.07-6.27-3.19-6.13-6.35.14-3.29,2.76-5.68,6.13-5.61,3.44.07,5.82,2.48,5.81,5.87Z"/><path class="cls-4" d="m144.51,628.76c-.05,3.13-2.72,5.82-5.84,5.88-2.86.06-5.94-2.96-6.01-5.88-.07-3.17,3.01-6.13,6.26-6.02,3.3.11,5.63,2.63,5.58,6.01Z"/><path class="cls-4" d="m383.5,566.02c3.19,0,5.78,2.61,5.79,5.84.01,3.29-2.57,5.95-5.76,5.94-3.57-.01-5.85-2.18-5.93-5.63-.08-3.64,2.33-6.15,5.9-6.16Z"/><path class="cls-4" d="m807.17,572.19c0,3.37-2.51,5.9-5.84,5.89-2.93-.01-6.13-3.14-6.08-5.95.05-2.79,3.36-6.01,6.13-5.96,3.2.06,5.79,2.75,5.79,6.02Z"/><path class="cls-4" d="m649.56,520.87c-3.71.04-5.94-1.95-6.07-5.42-.14-3.71,2.18-6,6.02-5.94,3.37.05,6.03,2.54,6.03,5.67,0,3.21-2.56,5.65-5.97,5.69Z"/><path class="cls-4" d="m157.71,578.08c-3.24-.04-5.87-2.7-5.86-5.93.02-3.19,2.73-5.97,5.84-5.99,2.85-.01,5.97,3.13,5.97,6.01,0,3.13-2.84,5.95-5.95,5.91Z"/><path class="cls-4" d="m138.75,585.08c3.24-.03,5.67,2.52,5.66,5.92-.01,3.01-2.49,5.52-5.52,5.59-3.02.07-6.07-2.77-6.12-5.7-.05-2.96,2.85-5.78,5.99-5.8Z"/><path class="cls-4" d="m852.68,590.98c-.02-3.4,2.43-5.95,5.66-5.9,3.21.05,5.89,2.69,5.92,5.84.03,2.91-3.04,5.76-6.09,5.66-3.08-.1-5.47-2.55-5.49-5.6Z"/><path class="cls-4" d="m301.64,628.46c.09-3.3,2.75-5.81,5.95-5.62,3,.18,5.82,3.25,5.64,6.16-.17,2.78-3.04,5.47-5.87,5.5-2.95.03-5.81-2.99-5.72-6.04Z"/><path class="cls-4" d="m548.81,627.97c.29-3.32,3.04-5.53,6.35-5.11,2.82.36,5.35,3.38,5.12,6.09-.27,3.12-3.21,5.62-6.34,5.38-3.31-.26-5.44-2.89-5.13-6.36Z"/><path class="cls-4" d="m706.29,622.78c3.13-.03,5.97,2.81,5.93,5.92-.04,2.79-2.86,5.6-5.73,5.72-2.81.11-5.77-2.64-5.91-5.5-.15-3.12,2.64-6.12,5.71-6.15Z"/><path class="cls-4" d="m57.07,628.82c-.06-3.37,2.46-6.06,5.65-6.05,2.99.01,5.53,2.53,5.66,5.6.13,3.23-2.59,6.13-5.66,6.05-3.16-.08-5.59-2.49-5.65-5.6Z"/><path class="cls-4" d="m220.49,590.81c.02,3.21-2.7,5.87-5.93,5.79-2.89-.07-5.56-2.76-5.62-5.69-.06-2.93,2.53-5.68,5.48-5.8,3.16-.13,6.05,2.58,6.07,5.7Z"/><path class="cls-4" d="m776.57,590.82c-.02-3.06,2.92-5.82,6.07-5.71,2.94.1,5.54,2.85,5.5,5.79-.05,2.93-2.7,5.63-5.61,5.7-3.21.08-5.94-2.57-5.96-5.78Z"/><path class="cls-4" d="m649.19,622.74c3.22-.03,5.93,2.56,6.02,5.76.08,2.97-2.44,5.43-5.62,5.5-3.22.07-5.81-2.19-5.94-5.18-.15-3.3,2.35-6.05,5.55-6.08Z"/><path class="cls-4" d="m326.46,615.21c-3.38.01-5.81-2.08-5.96-5.14-.14-3.01,2.69-5.94,5.78-5.97,3.22-.03,5.93,2.63,5.88,5.78-.05,3.08-2.44,5.32-5.71,5.33Z"/><path class="cls-4" d="m744.39,615.19c-3.13,0-5.58-2.43-5.6-5.54-.02-3.25,2.2-5.51,5.47-5.57,3.33-.06,6.1,2.57,5.98,5.66-.11,2.92-2.83,5.45-5.85,5.44Z"/><path class="cls-4" d="m649.28,566.12c3.03-.02,5.96,2.92,5.87,5.89-.1,3.18-2.42,5.37-5.68,5.38-3.24.01-5.73-2.22-5.82-5.24-.1-3.25,2.48-6.01,5.63-6.03Z"/><path class="cls-4" d="m345.55,566.12c2.74.1,5.66,3.01,5.66,5.67,0,3.16-2.72,5.69-6.01,5.59-3.21-.1-5.61-2.47-5.57-5.49.05-3.21,2.79-5.88,5.91-5.77Z"/><path class="cls-4" d="m30.13,572.1c.07,3.22-2.15,5.68-5.26,5.85-2.93.16-5.57-2.35-5.73-5.46-.15-2.96,2.4-5.72,5.37-5.83,3.12-.11,5.55,2.24,5.62,5.43Z"/><path class="cls-4" d="m668.59,566.67c2.92.11,5.58,2.95,5.45,5.82-.14,3.06-2.79,5.58-5.76,5.46-3.06-.12-5.36-2.65-5.31-5.85.05-3.25,2.43-5.55,5.62-5.43Z"/><path class="cls-4" d="m345.27,520.75c-3.21-.04-5.6-2.37-5.63-5.5-.03-3.17,2.76-5.77,6.05-5.64,2.89.12,5.66,3.04,5.51,5.82-.16,3.02-2.76,5.35-5.93,5.32Z"/><path class="cls-4" d="m106.37,610.07c-.25,3.03-2.91,5.31-5.99,5.12-3.29-.2-5.54-2.93-5.18-6.32.33-3.14,2.83-5.07,6.15-4.77,3.19.29,5.28,2.78,5.01,5.97Z"/><path class="cls-4" d="m616.69,628.46c.02,3.5-1.9,5.48-5.3,5.45-3.12-.02-5.67-2.39-5.76-5.34-.09-3.12,2.65-5.85,5.86-5.82,3.14.03,5.19,2.27,5.2,5.71Z"/><path class="cls-4" d="m616.69,609.44c.03,3.46-1.95,5.66-5.16,5.73-3.2.07-6.01-2.64-5.91-5.73.09-3.07,2.5-5.34,5.69-5.37,3.47-.03,5.35,1.84,5.38,5.37Z"/><path class="cls-4" d="m397.01,628.83c-.05-3.17,2.29-5.75,5.25-5.81,3.02-.06,5.74,2.84,5.67,6.03-.07,2.88-2.81,5.58-5.66,5.58-2.88,0-5.22-2.58-5.26-5.8Z"/><path class="cls-4" d="m350.85,610.08c-.21,3.12-2.88,5.41-5.96,5.1-3.09-.3-5.34-2.94-5.14-6.04.19-3,2.91-5.26,6.06-5.04,3.16.22,5.27,2.71,5.05,5.97Z"/><path class="cls-4" d="m806.87,590.92c0,3.21-2.34,5.64-5.48,5.68-3,.04-5.57-2.61-5.48-5.66.1-3.29,2.37-5.4,5.73-5.31,3.1.08,5.23,2.23,5.24,5.28Z"/><path class="cls-4" d="m157.72,585.63c3.44-.04,5.4,1.99,5.33,5.53-.05,3.01-2.32,5.39-5.17,5.44-3.04.06-5.8-2.54-5.79-5.46,0-3.1,2.43-5.48,5.63-5.51Z"/><path class="cls-4" d="m692.82,647.6c.02,3.05-2.52,5.53-5.61,5.48-3.03-.05-5.51-2.68-5.42-5.74.08-2.86,2.41-5.03,5.46-5.09,3.36-.06,5.55,2.05,5.57,5.35Z"/><path class="cls-4" d="m858.31,633.91c-3.18,0-5.66-2.45-5.54-5.49.11-2.82,2.55-5.33,5.31-5.46,2.99-.14,5.63,2.38,5.7,5.44.07,3.2-2.21,5.5-5.47,5.51Z"/><path class="cls-4" d="m384.05,585.29c3.05.38,5.28,3.25,4.83,6.22-.4,2.64-3.41,5.05-5.97,4.79-2.86-.3-5.42-3.39-5.1-6.16.35-2.97,3.25-5.22,6.24-4.85Z"/><path class="cls-4" d="m350.76,552.88c.1,3.09-2.31,5.64-5.38,5.69-2.79.04-5.32-2.34-5.5-5.17-.2-3.14,2.11-5.74,5.19-5.86,3.13-.12,5.59,2.18,5.69,5.34Z"/><path class="cls-4" d="m214.71,633.91c-3.42,0-5.46-2.04-5.4-5.42.05-2.87,2.42-5.39,5.15-5.5,2.81-.11,5.66,2.61,5.79,5.5.13,3.06-2.28,5.42-5.54,5.42Z"/><path class="cls-4" d="m176.77,634.01c-3.27.07-5.31-1.77-5.43-4.87-.12-3.09,2.29-5.96,5.09-6.04,2.88-.09,5.96,3.02,5.89,5.95-.06,2.74-2.48,4.9-5.55,4.96Z"/><path class="cls-4" d="m43.54,642.25c3.2-.07,5.68,2.21,5.75,5.28.07,3.03-2.4,5.49-5.55,5.52-2.85.02-5.31-2.3-5.42-5.12-.13-3.26,2.03-5.61,5.22-5.68Z"/><path class="cls-4" d="m825.84,628.91c0,3.06-2.1,5.06-5.34,5.1-3.28.04-5.78-2.31-5.68-5.36.09-2.67,2.86-5.48,5.4-5.48,2.7,0,5.62,2.99,5.62,5.73Z"/><path class="cls-4" d="m644.32,590.93c-.1-3.34,1.72-5.32,4.91-5.34,2.93-.02,5.44,2.28,5.5,5.05.06,2.7-2.48,5.44-5.16,5.54-2.84.11-5.16-2.2-5.25-5.24Z"/><path class="cls-4" d="m100.52,652.19c-2.89-.1-5.05-2.28-4.97-5.01.08-2.68,2.56-5.01,5.19-4.89,2.91.13,4.79,2.18,4.74,5.17-.05,3.17-1.81,4.85-4.97,4.74Z"/><path class="cls-4" d="m744.61,652.19c-3.01.11-5.13-1.77-5.25-4.65-.12-2.83,1.95-5.13,4.73-5.26,2.65-.12,5.14,2.14,5.28,4.8.16,2.93-1.78,5.01-4.76,5.11Z"/><path class="cls-4" d="m558.92,647.62c-.05,2.58-2.23,4.67-4.73,4.53-2.37-.13-4.61-2.59-4.47-4.91.14-2.33,2.1-4.1,4.6-4.14,2.73-.05,4.66,1.85,4.6,4.53Z"/><path class="cls-4" d="m858.31,614.32c-2.37-.09-4.72-2.62-4.55-4.91.17-2.34,2.24-4.16,4.73-4.15,2.53.01,4.39,1.85,4.39,4.32,0,2.71-2.04,4.83-4.56,4.73Z"/><path class="cls-4" d="m210.39,609.8c-.07-2.66,1.53-4.44,4.06-4.54,2.55-.09,4.79,1.96,4.89,4.48.09,2.32-2.33,4.65-4.77,4.59-2.41-.06-4.12-1.91-4.18-4.53Z"/><path class="cls-4" d="m345.11,595.03c-2.57-.09-4.41-1.86-4.43-4.27-.02-2.45,2.26-4.63,4.77-4.55,2.6.08,4.54,2.27,4.34,4.89-.19,2.51-2,4.03-4.67,3.93Z"/><path class="cls-4" d="m649.36,643c2.68.01,4.38,1.64,4.41,4.21.03,2.69-2.03,4.9-4.47,4.79-2.36-.11-4.71-2.6-4.6-4.89.11-2.36,2.11-4.12,4.67-4.11Z"/><path class="cls-4" d="m214.84,651.49c-2.49.05-4.09-1.39-4.24-3.8-.15-2.42,1.35-4.14,3.74-4.28,2.6-.16,4.47,1.54,4.46,4.07,0,2.51-1.44,3.97-3.97,4.02Z"/><path class="cls-4" d="m858.28,651.48c-2.63-.01-3.89-1.38-3.82-4.11.07-2.48,1.72-4.08,4.11-3.97,2.3.11,4.19,2.05,4.08,4.21-.11,2.26-1.95,3.88-4.37,3.86Z"/><path class="cls-4" d="m349.52,534.33c-.11,2.07-2.31,4-4.39,3.86-2.06-.14-4.08-2.34-3.99-4.35.09-1.93,2.39-3.88,4.48-3.8,2.19.09,4.02,2.1,3.9,4.29Z"/><path class="cls-4" d="m157.86,624.62c2.2.1,4.05,2.1,3.96,4.27-.09,2.31-1.96,4.07-4.2,3.98-2.22-.09-4.03-2.02-3.98-4.24.05-2.13,2.13-4.11,4.22-4.01Z"/><path class="cls-4" d="m653.53,533.87c.05,2.1-1.83,4.16-3.95,4.32-2.17.16-4.14-1.65-4.22-3.88-.08-2.24,1.63-4.14,3.86-4.27,2.2-.14,4.25,1.7,4.31,3.84Z"/><path class="cls-4" d="m535.15,624.51c2.22-.11,4.13,1.63,4.25,3.86.12,2.23-1.63,4.13-3.9,4.25-2.09.11-4.25-1.83-4.3-3.88-.06-2.15,1.78-4.12,3.95-4.23Z"/><path class="cls-4" d="m645.42,552.99c-.04-2.3,1.72-4.22,3.89-4.24,2.09-.02,4.08,1.91,4.2,4.06.12,2.2-1.68,4.07-3.97,4.12-2.34.05-4.07-1.61-4.12-3.94Z"/><path class="cls-4" d="m801.22,632.86c-2.06-.12-4.16-2.28-4.1-4.22.06-1.97,2.27-4.03,4.31-4.01,2.16.02,3.97,1.97,3.92,4.22-.06,2.25-1.99,4.13-4.12,4.01Z"/><path class="cls-4" d="m786.3,647.23c.12,1.98-1.57,3.95-3.54,4.13-2.11.2-4-1.28-4.25-3.34-.26-2.15,1.58-4.36,3.71-4.46,1.9-.09,3.97,1.77,4.08,3.66Z"/><path class="cls-4" d="m142.5,647.45c-.03,2.26-1.9,4.05-4.12,3.93-2.05-.11-3.41-1.79-3.31-4.11.09-2.23,1.72-3.84,3.75-3.71,2.11.13,3.71,1.82,3.69,3.89Z"/><path class="cls-4" d="m326.12,645.19c1.37.15,2.24.87,2.26,2.3.02,1.21-.58,2.02-1.89,2.06-1.48.04-2.31-.82-2.34-2.19-.03-1.18.8-1.89,1.98-2.17Z"/><path class="cls-4" d="m613.56,572.08c-.26,1.21-.97,2.01-2.19,1.99-1.17-.02-2.17-.72-2.1-1.97.07-1.35.92-2.29,2.41-2.18,1.27.09,1.81.98,1.88,2.16Z"/><path class="cls-4" d="m364.33,645.02c1.42.31,2.18,1.07,2.13,2.22-.06,1.4-1.09,2.16-2.42,2.1-1.19-.05-1.94-.98-1.88-2.12.07-1.37,1.07-2.02,2.16-2.2Z"/><path class="cls-4" d="m6.77,640.81c3.57.03,6.62,3.2,6.59,6.84-.03,3.64-2.83,6.36-6.47,6.27-3.83-.1-6.53-2.64-6.59-6.22-.06-3.85,2.82-6.93,6.47-6.89Z"/><path class="cls-4" d="m1.15,628.82c-.06-3.37,2.46-6.06,5.65-6.05,2.99.01,5.53,2.53,5.66,5.6.13,3.23-2.59,6.13-5.66,6.05-3.16-.08-5.59-2.49-5.65-5.6Z"/><path class="cls-4" d="m876.45,651.48c-2.63-.01-3.89-1.38-3.82-4.11.07-2.48,1.72-4.08,4.11-3.97,2.3.11,4.19,2.05,4.08,4.21-.11,2.26-1.95,3.88-4.37,3.86Z"/><path class="cls-4" d="m939.7,609.94c-.05,3.67-3.19,6.8-6.79,6.78-3.99-.03-7.03-3.12-6.95-7.08.07-3.64,3.66-7,7.3-6.82,3.64.18,6.5,3.34,6.45,7.12Z"/><path class="cls-4" d="m1072.62,591.08c-.07,4.15-2.92,6.86-7.07,6.73-3.67-.12-6.7-3.27-6.61-6.86.09-3.74,3.6-7.06,7.22-6.84,3.78.23,6.52,3.2,6.46,6.98Z"/><path class="cls-4" d="m1085.02,654.26c-3.93.09-6.72-2.52-6.89-6.44-.17-3.9,2.93-7.29,6.66-7.29,3.58,0,7.15,3.54,7.17,7.09.01,3.44-3.25,6.55-6.94,6.63Z"/><path class="cls-4" d="m913.92,527.47c3.62.1,7.09,3.67,7.01,7.23-.08,3.75-3.45,6.68-7.45,6.48-3.94-.2-6.52-3.01-6.37-6.95.14-3.66,3.34-6.85,6.81-6.75Z"/><path class="cls-4" d="m1034.41,609.75c0,3.82-2.56,6.36-6.42,6.39-3.91.03-6.49-2.43-6.51-6.22-.02-4.02,2.71-6.84,6.58-6.79,3.44.05,6.36,3.09,6.35,6.62Z"/><path class="cls-4" d="m951.86,640.81c3.57.03,6.62,3.2,6.59,6.84-.03,3.64-2.83,6.36-6.47,6.27-3.83-.1-6.53-2.64-6.59-6.22-.06-3.85,2.82-6.93,6.47-6.89Z"/><path class="cls-4" d="m920.19,629.48c-.4,3.48-3.76,6.12-7.15,5.61-3.2-.48-5.81-3.81-5.42-6.93.46-3.7,3.32-5.88,7.18-5.47,3.26.35,5.77,3.51,5.4,6.79Z"/><path class="cls-4" d="m1053.12,647.64c-.03,3.39-2.76,6.08-6.24,6.15-3.68.08-5.94-2.24-5.97-6.12-.03-3.82,2.23-6.34,5.75-6.4,3.72-.07,6.49,2.66,6.46,6.37Z"/><path class="cls-4" d="m989.52,634.67c-3.05-.07-5.93-3.31-5.81-6.54.13-3.47,2.71-5.67,6.52-5.55,3.54.12,6.08,2.82,5.87,6.24-.19,3.16-3.29,5.92-6.58,5.85Z"/><path class="cls-4" d="m1040.96,553.49c-.11-3.52,2.08-6.08,5.38-6.29,3.35-.22,6.6,2.49,6.75,5.63.15,3.09-2.87,6.55-5.83,6.68-3.37.15-6.19-2.54-6.29-6.01Z"/><path class="cls-4" d="m914.02,653.44c-4.03.07-6.02-1.85-5.99-5.81.02-3.35,2.43-6.08,5.5-6.24,3.12-.16,6.62,3.29,6.56,6.47-.06,3.18-2.6,5.51-6.07,5.57Z"/><path class="cls-4" d="m913.68,616.01c-3.43-.1-5.83-2.84-5.65-6.44.17-3.32,2.77-5.9,5.87-5.84,3.18.07,6.27,3.2,6.18,6.26-.09,3.16-3.24,6.11-6.41,6.02Z"/><path class="cls-4" d="m1040.99,609.88c-.03-3.38,2.35-6.04,5.53-6.19,3.24-.15,6.49,2.73,6.57,5.83.08,3.33-3.13,6.52-6.5,6.46-3.2-.06-5.56-2.64-5.59-6.1Z"/><path class="cls-4" d="m908.11,553.66c-.08-3.81,1.77-5.97,5.26-6.12,3.64-.16,6.4,2.18,6.57,5.56.16,3.08-2.86,6.25-6.06,6.39-3.14.13-5.7-2.45-5.77-5.83Z"/><path class="cls-4" d="m926.82,628.03c.41-3.24,3.63-5.66,6.98-5.25,3.15.39,5.36,3.32,4.96,6.6-.41,3.37-3.56,5.82-6.85,5.31-3.06-.47-5.48-3.64-5.09-6.65Z"/><path class="cls-4" d="m1071.81,609.98c0,3.39-2.87,6.14-6.21,5.99-2.96-.14-5.89-3.18-5.84-6.06.06-3.13,2.7-5.74,5.89-5.82,3.6-.09,6.17,2.38,6.16,5.89Z"/><path class="cls-4" d="m1033.69,628.76c-.05,3.13-2.72,5.82-5.84,5.88-2.86.06-5.94-2.96-6.01-5.88-.07-3.17,3.01-6.13,6.26-6.02,3.3.11,5.63,2.63,5.58,6.01Z"/><path class="cls-4" d="m1046.89,578.08c-3.24-.04-5.87-2.7-5.86-5.93.02-3.19,2.73-5.97,5.84-5.99,2.85-.01,5.97,3.13,5.97,6.01,0,3.13-2.84,5.95-5.95,5.91Z"/><path class="cls-4" d="m1027.92,585.08c3.24-.03,5.67,2.52,5.66,5.92-.01,3.01-2.49,5.52-5.52,5.59-3.02.07-6.07-2.77-6.12-5.7-.05-2.96,2.85-5.78,5.99-5.8Z"/><path class="cls-4" d="m946.25,628.82c-.06-3.37,2.46-6.06,5.65-6.05,2.99.01,5.53,2.53,5.66,5.6.13,3.23-2.59,6.13-5.66,6.05-3.16-.08-5.59-2.49-5.65-5.6Z"/><path class="cls-4" d="m1109.66,590.81c.02,3.21-2.7,5.87-5.93,5.79-2.89-.07-5.56-2.76-5.62-5.69-.06-2.93,2.53-5.68,5.48-5.8,3.16-.13,6.05,2.58,6.07,5.7Z"/><path class="cls-4" d="m919.31,572.1c.07,3.22-2.15,5.68-5.26,5.85-2.93.16-5.57-2.35-5.73-5.46-.15-2.96,2.4-5.72,5.37-5.83,3.12-.11,5.55,2.24,5.62,5.43Z"/><path class="cls-4" d="m995.55,610.07c-.25,3.03-2.91,5.31-5.99,5.12-3.29-.2-5.54-2.93-5.18-6.32.33-3.14,2.83-5.07,6.15-4.77,3.19.29,5.28,2.78,5.01,5.97Z"/><path class="cls-4" d="m1046.89,585.63c3.44-.04,5.4,1.99,5.33,5.53-.05,3.01-2.32,5.39-5.17,5.44-3.04.06-5.8-2.54-5.79-5.46,0-3.1,2.43-5.48,5.63-5.51Z"/><path class="cls-4" d="m1103.88,633.91c-3.42,0-5.46-2.04-5.4-5.42.05-2.87,2.42-5.39,5.15-5.5,2.81-.11,5.66,2.61,5.79,5.5.13,3.06-2.28,5.42-5.54,5.42Z"/><path class="cls-4" d="m1065.95,634.01c-3.27.07-5.31-1.77-5.43-4.87-.12-3.09,2.29-5.96,5.09-6.04,2.88-.09,5.96,3.02,5.89,5.95-.06,2.74-2.48,4.9-5.55,4.96Z"/><path class="cls-4" d="m932.72,642.25c3.2-.07,5.68,2.21,5.75,5.28.07,3.03-2.4,5.49-5.55,5.52-2.85.02-5.31-2.3-5.42-5.12-.13-3.26,2.03-5.61,5.22-5.68Z"/><path class="cls-4" d="m989.69,652.19c-2.89-.1-5.05-2.28-4.97-5.01.08-2.68,2.56-5.01,5.19-4.89,2.91.13,4.79,2.18,4.74,5.17-.05,3.17-1.81,4.85-4.97,4.74Z"/><path class="cls-4" d="m1099.56,609.8c-.07-2.66,1.53-4.44,4.06-4.54,2.55-.09,4.79,1.96,4.89,4.48.09,2.32-2.33,4.65-4.77,4.59-2.41-.06-4.12-1.91-4.18-4.53Z"/><path class="cls-4" d="m1104.02,651.49c-2.49.05-4.09-1.39-4.24-3.8-.15-2.42,1.35-4.14,3.74-4.28,2.6-.16,4.47,1.54,4.46,4.07,0,2.51-1.44,3.97-3.97,4.02Z"/><path class="cls-4" d="m1047.03,624.62c2.2.1,4.05,2.1,3.96,4.27-.09,2.31-1.96,4.07-4.2,3.98-2.22-.09-4.03-2.02-3.98-4.24.05-2.13,2.13-4.11,4.22-4.01Z"/><path class="cls-4" d="m1031.67,647.45c-.03,2.26-1.9,4.05-4.12,3.93-2.05-.11-3.41-1.79-3.31-4.11.09-2.23,1.72-3.84,3.75-3.71,2.11.13,3.71,1.82,3.69,3.89Z"/><path class="cls-4" d="m895.94,640.81c3.57.03,6.62,3.2,6.59,6.84-.03,3.64-2.83,6.36-6.47,6.27-3.83-.1-6.53-2.64-6.59-6.22-.06-3.85,2.82-6.93,6.47-6.89Z"/><path class="cls-4" d="m890.33,628.82c-.06-3.37,2.46-6.06,5.65-6.05,2.99.01,5.53,2.53,5.66,5.6.13,3.23-2.59,6.13-5.66,6.05-3.16-.08-5.59-2.49-5.65-5.6Z"/></g></svg>