<?xml version="1.0" encoding="UTF-8"?><svg id="Layer_1" xmlns="http://www.w3.org/2000/svg" xmlns:xlink="http://www.w3.org/1999/xlink" viewBox="0 0 1152 648"><defs><style>.cls-1,.cls-2,.cls-3{fill:none;}.cls-4{fill:#71afb3;}.cls-4,.cls-5,.cls-6,.cls-7,.cls-8,.cls-9,.cls-10,.cls-11,.cls-12,.cls-13,.cls-14,.cls-15,.cls-16,.cls-17,.cls-18,.cls-19,.cls-20,.cls-21,.cls-22,.cls-23,.cls-24,.cls-25,.cls-26,.cls-2,.cls-27{stroke:#22384c;stroke-linecap:round;stroke-linejoin:round;stroke-width:.97px;}.cls-5,.cls-28{fill:#78384f;}.cls-6{fill:#763218;}.cls-29,.cls-19{fill:#ee6331;}.cls-30{fill:#80361c;}.cls-31,.cls-24{fill:#b14a23;}.cls-32{fill:#404041;}.cls-33{fill:#419599;}.cls-34,.cls-8{fill:#447099;}.cls-35,.cls-9{fill:#9a4665;}.cls-7{fill:#22384c;}.cls-10{fill:#a1b7cb;}.cls-11{fill:#a0cacc;}.cls-12{fill:#a0a0a0;}.cls-13{fill:#b4758c;}.cls-14{fill:#72994e;}.cls-15{fill:#335472;}.cls-16{fill:#eba38c;}.cls-17{fill:#f5b197;}.cls-18{fill:#fff;}.cls-20{fill:#f08a63;}.cls-21{fill:#e58066;}.cls-22{fill:#7394b2;}.cls-23{fill:#cfcfcf;}.cls-25{fill:#ab4d26;}.cls-26{fill:#d0dbe5;}.cls-27{fill:#fad8cb;}.cls-3{clip-path:url(#clippath);}</style><clipPath id="clippath"><path class="cls-1" d="m617.43,330.54s-.8,3.16-.84,5.22c-.04,2.06,4.53,0,4.53,0,0,0,1.3-2.65,1.08-3.01s-4.77-2.22-4.77-2.22Z"/></clipPath></defs><path class="cls-5" d="m924.01,330.01s24.11-.24,31.08,3.82c6.97,4.07,5.98,27.7,10.47,33.61,4.48,5.9,12.64,10.28,12.63,16.8,0,6.53-11.06,10.45-11.06,10.45,0,0,12.54.81,14.4,9.54s-45.36,11.18-54.56,9.46c-9.2-1.73-21.55-77.63-2.96-83.69Z"/><path class="cls-2" d="m940.77,397.56s21.78-3.5,27.82-2.86"/><path class="cls-2" d="m950.29,367.5s11.74-3.09,17.23,2.24"/><path class="cls-15" d="m430.8,604.56l84.86,29.7,5.13-22.35-53.66-18.4-2.95,9.35s-27.15-7.92-33.38,1.7Z"/><polygon class="cls-26" points="435.6 342.77 454.56 372.61 502.36 372.61 483.69 342.77 435.6 342.77"/><polygon class="cls-18" points="443.81 347.16 457.67 368.94 493.61 368.94 481.14 347.16 443.81 347.16"/><polygon class="cls-8" points="456.21 375.23 454.56 372.61 508.86 372.61 510.53 375.23 456.21 375.23"/><path class="cls-17" d="m482.49,372.61s.37-6.66,6.71-8.77c6.35-2.11,12.3.57,14.57,0,2.26-.57,22.35-13.58,22.35-13.58l8.31,11.32-9.1,11.03h-42.84Z"/><path class="cls-9" d="m544.5,330.19s-15.31,6.19-18.39,20.08c-2.31,10.45-2.24,16.06-2.24,16.06,0,0-16.14,31.17-19.25,50.69-3.11,19.52-11.9,60.49-10.75,91.93,1.66,45.24,14.99,105.79,14.99,105.79l51.2,8.49s-12.4-75.49-12.16-95.04c.18-14.56-.49-22.19.28-35.32.57-9.73,5.26-29.44,8.16-38.74,2.48-7.95,3.15-15.9,3.68-19.86.94-7.01,3.44-70.14,3.16-80.89-.28-10.75-5.09-20.37-5.09-20.37l-13.58-2.83Z"/><path class="cls-17" d="m544.5,330.19v-12.16s-7.92-5.09-4.53-16.69c3.39-11.6,15.27-11.31,21.78-7.92,6.51,3.39,7.64,20.08-3.39,26.02l-.28,13.58-13.58-2.83Z"/><path class="cls-9" d="m544.5,330.19s-8.62,9.46-10.18,24.33c-1.3,12.38,0,24.89,0,24.89l32.35,2.55s1.8-25.46,0-35.64c-1.8-10.18-8.58-13.29-8.58-13.29l-13.58-2.83Z"/><path class="cls-17" d="m460.69,375.23s-.45,1.36,1.77,3.29c1.83,1.59,4.15,2.52,6.57,2.74,3.77.34,10.37,2.04,17.51,6.64,14.01,9.04,49.45,25.62,68.49,10.91,5.9-4.56,8.91-17.08,8.91-17.08l-29.62-2.33-23.31,2.2c-6.92.49-18.38-2.13-23.86-6.38h-26.46Z"/><path class="cls-2" d="m521.31,411.65s-2.79,40.82,27.49,36.9"/><path class="cls-13" d="m498.96,448.56c-.15.87-15.84,66.62-20.08,82.46-4.24,15.84-17.54,60.25-17.54,60.25l46.6,18.12s-14.07-81.71-14.07-100.43,5.09-60.39,5.09-60.39Z"/><path class="cls-15" d="m515.47,615.83l1.31,13.61s-55.16,5.66-55.44,17.82h97.3l-4.46-25.02-38.72-6.42Z"/><path class="cls-8" d="m545.69,293.38s-.62,6.82,2.77,10.22,7.81,5.48,7.81,8.59-4.74,10.98-2.47,16.13c2.76,6.25,7.34,8.6,7.12,15.1-.2,5.81-5.55,15.5.22,24.62,8.49,13.4,33.62,7.19,35.86-11.63.48-4.04-.17-12.5-1.29-16.44-2.23-7.87-6.98-14.72-13.17-20.06-2.29-1.97-4.53-4.58-5.5-7.71-.43-1.37-.73-2.75-.95-4.08-1.74-10.72-11.32-18.58-22.11-17.33-2.81.33-5.63,1.12-8.3,2.6Z"/><polyline class="cls-17" points="540.3 304.5 536.67 310.21 540.52 311.4"/><circle class="cls-7" cx="544.5" cy="306.71" r=".95"/><path class="cls-2" d="m540.92,313.8s2.72,1.25,4.73-.08"/><path class="cls-2" d="m544.5,318.02s3.06,2.24,7.2,1.15"/><line class="cls-2" x1="451.42" y1="351.12" x2="458.03" y2="351.12"/><line class="cls-2" x1="461.8" y1="351.12" x2="467.61" y2="351.12"/><line class="cls-2" x1="472.55" y1="351.12" x2="480.32" y2="351.12"/><line class="cls-2" x1="455.19" y1="355.48" x2="461.15" y2="355.48"/><line class="cls-2" x1="464.2" y1="355.48" x2="472.04" y2="355.48"/><line class="cls-2" x1="474.73" y1="355.19" x2="482.71" y2="355.19"/><line class="cls-2" x1="457.73" y1="360.42" x2="467.1" y2="360.42"/><line class="cls-2" x1="470.08" y1="360.42" x2="486.56" y2="360.42"/><line class="cls-2" x1="465.43" y1="358.05" x2="483.95" y2="358.05"/><line class="cls-2" x1="459.91" y1="365.72" x2="485.47" y2="365.72"/><line class="cls-2" x1="464.2" y1="363.17" x2="486.56" y2="363.17"/><circle class="cls-2" cx="797.37" cy="333.44" r="4.15"/><path class="cls-20" d="m801.69,336.97l-1.93,10.04s-2.15,16.32,6.32,18.68c8.48,2.35,12.09-17.58,12.09-17.58l.63-10.04s7.53-4.24,9.1-12.71c1.57-8.48,1.41-23.57-16.01-23.54-14.46.02-21.66,23.23-10.2,35.16Z"/><path class="cls-19" d="m798.21,291.25s-7.92,3.38-8.92,13.39c-.61,6.16,1.38,15.07,6.73,17.42,0,0,.96-3.45,3.47-4.08s10.36,2.04,13.97,5.49c3.61,3.45,7.69,2.67,9.42,3.45,1.73.78,2.28,5.03,2.28,5.03,0,0,7.45.15,11.68-7.07,4.24-7.22,5.83-22.53-6.51-31.79-10.07-7.55-22.56-6.97-32.13-1.85Z"/><circle class="cls-2" cx="824.8" cy="335.91" r="5.53"/><path class="cls-9" d="m799.76,347.02l-6.55,2.67c-.78,1.73-12.4,86.01-15.22,95.11-2.83,9.1-22.13,115.51-23.86,125.72-1.73,10.2-9.26,39.55-9.26,39.55h70.47l12.56-35.16,1.88,35.16h73.77s-6.28-55.87-19.15-91.34c-12.87-35.47-39.86-91.66-44.26-103.27s-5.65-23.23-5.34-30.45c.31-7.22-5.35-16.95-6.29-22.91s-.77-14.11-.77-14.11l-9.5-1.19s-4.16,21.42-12.17,18.91c-3.45-.78-7.19-9.21-6.32-18.68Z"/><polyline class="cls-2" points="777.41 534.29 777.41 546.63 786.92 544.19 789.18 551.11 796.02 547.83"/><path class="cls-18" d="m827.75,347.97s10.14-.27,15.2,6.34c5.17,6.75,12.41,27.23,12.41,27.23l-12.87,13.34-7.95-13.48s-4.21-10.65-6.03-19.32c-1.77-8.47-.77-14.11-.77-14.11Z"/><path class="cls-2" d="m777.41,511.89s9.16-1.49,11.78,6.31"/><path class="cls-20" d="m842.49,394.89s6.43,13.34,8,16.32,3.92,18.99,4.08,23.7c.16,4.71-1.49,21.08,2.2,23.7,3.69,2.61,7.53-13.97,8.63-23.07s-2.04-32.02-3.92-38.14-6.12-15.85-6.12-15.85l-12.87,13.34Z"/><path class="cls-18" d="m793.21,349.69s-9.62,4.9-14.51,14.36c-4.03,7.8-5.11,23.31-5.27,23.78s13.49,2.91,13.49,2.91l6.29-41.05Z"/><path class="cls-20" d="m773.44,387.83s-2.51,48.81-2.67,53.21c-.16,4.39-4.08,21.03-2.51,23.07,1.57,2.04,4.78,2.21,7.63-10.09,2.85-12.3,7.9-42.49,7.9-42.49l3.14-20.79-13.49-2.91Z"/><path class="cls-2" d="m827.9,574.91c-.75-13.97-14.44-46.93-15.38-62.15s-3.45-84.44-3.45-84.44h8.67"/><polyline class="cls-2" points="802.79 321.12 800.85 329.37 804.51 329.28"/><path class="cls-2" d="m800.78,333.47s1.81,1.74,4.48,0"/><path class="cls-7" d="m807.5,339.64s8.32.67,11.3-1.57l-.37,5.96-10.93-4.39Z"/><circle class="cls-2" cx="796.02" cy="323.03" r="5.25"/><circle class="cls-2" cx="808.61" cy="324.46" r="5.25"/><polyline class="cls-2" points="813.54 325.8 825.54 327.71 827.32 331.42"/><line class="cls-2" x1="801.27" y1="322.78" x2="803.36" y2="324.04"/><circle class="cls-7" cx="798.21" cy="323.62" r=".84"/><circle class="cls-7" cx="807.77" cy="324.46" r=".84"/><polygon class="cls-20" points="763.86 610.06 763.86 638.63 756.33 647.3 779.87 647.3 782.7 610.06 763.86 610.06"/><polygon class="cls-6" points="763.86 624.35 781.61 624.35 779.87 647.3 756.33 647.3 763.86 638.63 763.86 624.35"/><polygon class="cls-20" points="859.6 610.06 861.64 635.8 852.54 647.3 880.32 647.3 879.38 610.06 859.6 610.06"/><polygon class="cls-6" points="860.56 622.15 879.69 622.15 880.32 647.3 852.54 647.3 861.64 635.8 860.56 622.15"/><path class="cls-27" d="m876.47,363.02s-5.81,31.19-7.22,39.66c-1.41,8.48-14.65,50.26-11.99,54.58,2.66,4.32,6.92-1.55,12.57-10.5s17.78-48.83,19.9-58.24c2.12-9.42,5.41-23.36,5.41-23.36l-18.66-2.14Z"/><polygon class="cls-8" points="896.77 623.18 895.21 647.27 863.77 647.3 871.54 640.95 868.48 621.41 896.77 623.18"/><polygon class="cls-8" points="964.89 630.59 964.89 647.3 926.63 647.3 935.34 642.83 934.87 630.59 964.89 630.59"/><path class="cls-8" d="m923.21,282.6s13.16,1.77,16.72,16.29c4.19,17.08-4.08,22.14,2.51,30.39,6.59,8.25,15.8,12.19,12.56,26.64-3.24,14.45-35.11,16.75-45.65,10.64-10.54-6.11-5.8-26.63-11.99-46.38-4.3-13.7-.56-41.58,25.85-37.58Z"/><path class="cls-9" d="m910.39,330.74c.59-1.07-18.79-1.17-26.84,12.93-3.4,5.96-9.65,19.05-9.65,19.05l21.24,2.44-1.82,28.6,48.61.94s3.3-36.49,2.83-46.61c-.47-10.12-18.83-16.24-18.83-16.24-4.47,2.05-10.12,5.43-10.12,5.43"/><path class="cls-14" d="m893.32,393.76s-24.69,38.57-33.35,58.25c-8.67,19.68-18.09,60.64-16.91,79s17.51,91.14,17.51,91.14l45.82,1.3-2.12-81.14,15.54,88.28h58.38s-5.41-36.26-7.06-51.56c-1.65-15.3-17.42-154.67-29.19-184.34l-48.61-.94Z"/><path class="cls-2" d="m904.31,416.18s-3.58,69.39-3.82,86.34c-.24,16.95,3.82,41.67,3.82,41.67"/><path class="cls-2" d="m856.88,459.8s6.35,13.84,8.39,21.1c2.04,7.26,1.33,16.21-1.49,19.97-2.83,3.77-5.53,6.6-5.89,12.24-.97,15.48-10.01,24.06-14.31,22.86"/><path class="cls-2" d="m847.29,557.09s10.59,9.46,14.83,19.82c4.24,10.36-3.1,38.28-3.1,38.28"/><path class="cls-2" d="m901.88,466.17s-9.62,3.15-13.15,11.86c-3.53,8.71,1.41,19.07-2.35,30.13-3.77,11.06-10.36,25.19-8.83,37.9s12.5,22.6,11.72,34.14c-.78,11.54-2.19,18.36,2.05,25.19,4.24,6.83,14.92,12.56,14.92,12.56"/><path class="cls-2" d="m914.15,479.31s-4-.33-4.94,6.73c-.94,7.06.63,9.09-2.97,16.01-3.84,7.37-1.04,17.54,4.03,25.56,5.11,8.08,16.54,14.62,24.22,8.42,7.68-6.2,5.67-29.66,1.86-36.96-3.23-6.19-14.27-20.46-22.2-19.77Z"/><path class="cls-2" d="m909.12,569.87s11.86,3.75,13.98,14.34c2.12,10.59-1.18,19.78,5.18,24.25,6.36,4.47,17.89,12.95,17.66,22.13"/><path class="cls-2" d="m958.18,630.59s-8.24-12.24-6.36-21.42c1.88-9.18,8-10.36,8-17.66s-8.48-16.01-2.83-29.19c5.65-13.18,10.31-16.18,10.31-16.18"/><path class="cls-2" d="m911.47,394.7s-1.55,8.16-1.08,22.91c.47,14.75,3.83,21.11,8.74,26.76s1.14,21.42,6.79,29.66c5.65,8.24,32.18,2.63,32.18,2.63"/><path class="cls-8" d="m893.07,334.43s-.25,45.67,0,52.5l.25,6.83h3.65v-61.16l-3.9,1.84Z"/><path class="cls-8" d="m925.92,331.84s-3.77,25.27-4.71,39c-.94,13.73-2.59,27.62,2.35,33.98,4.94,6.36,16.36,7.05,16.36,7.05l-1.05-5.36s-8.72-.47-11.54-4.61c-2.83-4.14-4.47-18.03-2.59-35.34,1.88-17.3,4.91-33.24,4.91-33.24l-3.73-1.49Z"/><path class="cls-27" d="m910.39,330.74l-.59-8.36s-7.2-2.5-8.32-10.55c-.91-6.53-1.21-22.84,9.85-26.61s22.86.71,22.86,16.01-4.45,20.81-7.8,22.3l-.28,8.09-10.77,8.32-4.96-9.2Z"/><path class="cls-34" d="m935.62,299.66c-.24-4.67-1.25-14.86-15.27-16.18-16.95-1.6-21.15,12.5-20.37,18.32l8.76-1.72c4.44-.96,9.14-.29,12.98,2.14,1.62,1.02,2.98,2.28,3.83,3.69h0s1.29,12.34.56,25.72c0,0,14.46-11.53,9.51-30.19v-1.77Z"/><path class="cls-2" d="m926.11,331.62c.73-13.37-.56-25.72-.56-25.72h0c-.85-1.41-2.21-2.66-3.83-3.69-3.84-2.43-8.54-3.1-12.98-2.14l-7.51,1.61-.06,1.22"/><polyline class="cls-2" points="909.08 303.16 907.01 313 910.37 313"/><path class="cls-2" d="m906.79,316.83s1.72,1.84,4.34.23"/><circle class="cls-7" cx="904.09" cy="306.48" r=".96"/><path class="cls-7" d="m913.75,305.2c-.53,0-.96.43-.96.96s.43.96.96.96.96-.43.96-.96-.43-.96-.96-.96Z"/><path class="cls-27" d="m923.88,305.52s2.82-3.41,5.61-.88c3.08,2.79-2.87,8.93-4.18,10.09"/><path class="cls-2" d="m909.8,322.38s3.39,1.69,9.13,0"/><path class="cls-27" d="m950.82,380.52s9.24,72.8,9.95,78.21c.71,5.41,2.23,22.45-2.3,20.41-4.53-2.04-7.12-15.1-9.71-24.7-2.59-9.6-14.27-70.59-14.27-70.59l16.33-3.33Z"/><path class="cls-18" d="m799.76,347.02s7.58,6.44,18.41,1.1c0,0-1.96,19.34-11.98,19.27,0,0-7.68.19-6.43-20.37Z"/><polyline class="cls-2" points="764.72 579.46 772.05 580.52 772.05 586.15 778.06 586.15 779.14 591.55"/><polyline class="cls-2" points="786.71 572.12 790.73 580.96 797.17 575.69 801.04 579.46 805.33 574.63"/><path class="cls-2" d="m774.41,562.72s4.94,4.72,10.09,0"/><path class="cls-2" d="m792.23,501.61s9.88,2.4,10.95,7.27"/><polyline class="cls-2" points="792.23 531.16 802.11 529.68 802.11 537.66 806.4 537.66 807.69 544.19"/><polyline class="cls-2" points="784.5 480.19 790.73 485.68 792.23 480.19 797.71 482.93 799.96 474.86"/><polyline class="cls-2" points="789.18 456.23 797.71 453.5 797.71 459.8 801.89 458.71 803.18 463.17"/><polyline class="cls-2" points="766.9 500.52 771.93 502.82 776.13 494.68 781.61 497.94 783.29 491.22"/><polyline class="cls-2" points="770.76 526.78 778.06 523.96 779.46 529.92 784.5 529.68"/><polyline class="cls-2" points="805.33 565.63 814.13 565.94 814.13 560.45 818.48 560.45 819.5 553.77"/><polyline class="cls-2" points="796.02 610.06 799.96 600.23 805.33 602.22 807.69 597.28 810.91 599.58"/><polyline class="cls-2" points="762.52 600.93 765.83 604.8 772.91 600.93 775.1 605.87 781.61 604.8"/><polyline class="cls-2" points="809.06 586.15 815.42 580.96 818.48 586.15 824.65 584"/><polyline class="cls-2" points="822.51 503.91 828.73 508.89 831.74 501.07 838.18 502.82 842.49 497.02"/><polyline class="cls-2" points="826.16 472.54 833.24 468.22 834.31 474.86 840.97 471.59 842.95 477.48"/><polyline class="cls-2" points="842.49 453.5 844.16 460.95 848.7 458.33 851.53 463.17 855.01 461.38"/><polyline class="cls-2" points="812.42 494.68 820.79 490.02 820.79 497.02 827.9 491.22 828.73 497.02"/><polyline class="cls-2" points="828.73 541.56 834.56 547.02 838.18 540.27 844.16 541.11"/><polyline class="cls-2" points="834.56 587.19 840.76 586.15 839.9 593.56 846.34 593.56"/><path class="cls-2" d="m832.5,564.82s6.32-3.17,6.11-2.1,1.84,9.4,1.84,9.4l5.89-4.81,3.61,4.81"/><path class="cls-7" d="m833.56,322.78c-4.29,3-7.34,3.19-7.34,3.19l-2.29,2.04c.9,1.52,1.22,3.95,1.22,3.95,0,0,7.45.15,11.68-7.07,1.72-2.93,3.01-7.2,3.1-11.85-.85,2.26-3.07,7.43-6.38,9.74Z"/><path class="cls-5" d="m701,353.38s-9.2-1.34-17.97-2.66c-3.03-.46-14.43-1.72-16.7-2.47,0,0,2.68-5.78,6.71-9.56,4.03-3.78,5.8-5.04,5.55-8.83-.25-3.78,1.51-6.81,5.04-8.57,3.53-1.77,4.08-4.59,4.54-6.81,1-4.8,4.04-6.69,9.58-7.31,7.94-.89,8.68,2.89,10.69,3.39,2.02.5,8.97-.37,11.24,3.92,2.27,4.29,2.27,5.3,4.29,6.3s4.79,1.77,5.04,5.3,2.5,5.89,4.99,7.77c4.07,3.07-.45,8.62,1.32,10.64,1.77,2.02,5.91,3.79,5.14,7.25-1.71,7.68-29.35,2.84-29.35,2.84l-10.12-1.19Z"/><polygon class="cls-4" points="643.46 357.54 702.42 375.23 696.52 404.71 672.94 398.81 643.46 357.54"/><path class="cls-20" d="m698.04,317.1s-8.32.82-10.34,6.71c-.02.06-.04.12-.06.18-2.94,8.76-1.4,24.01,8,25.25l-.18,5.49-.7,4.22s3.54,6.76,8.33,6.51c4.79-.25,8.06-3.22,8.06-3.22v-17.41s4.16-2.02,5.36-10.09-6.36-19.92-18.47-17.65Z"/><path class="cls-28" d="m684.87,329.55l20.23.16,2.94-6.3,3.34,9.47-.25,13.17s10.93-3.72,8.81-16.43c-.79-4.75-2.76-16.89-15.5-17.65-12.74-.76-19.06,9.49-19.56,17.59Z"/><path class="cls-2" d="m711.15,347.62l.23-14.74-3.34-9.47-2.94,6.3h-18.65s-.09.07-.09.87"/><polyline class="cls-2" points="695.01 331.98 694 341.15 696.83 341.5"/><path class="cls-12" d="m734.15,436.88s3.22,17.9-.31,36.31c-3.53,18.41-34.8,105.91-38.33,118.51-3.53,12.61-6.81,31.27-6.81,31.27l-23.7-5.04s2.77-46.4,9.58-68.59c6.81-22.19,7.34-31.15,7.34-31.15,0,0-14.91-15.25-14.88-30.93.03-15.68,0-47.17,0-47.17l67.11-3.21Z"/><line class="cls-2" x1="724.6" y1="487.78" x2="729.83" y2="487.2"/><line class="cls-2" x1="718.79" y1="472.39" x2="724.02" y2="477.33"/><line class="cls-2" x1="714.27" y1="483.86" x2="716.51" y2="487.49"/><line class="cls-2" x1="713.42" y1="501.61" x2="718.5" y2="500.52"/><line class="cls-2" x1="719.37" y1="493.59" x2="721.41" y2="495.77"/><line class="cls-2" x1="670.86" y1="500.52" x2="675.66" y2="495.63"/><line class="cls-2" x1="667.67" y1="483.14" x2="674.5" y2="482.99"/><line class="cls-2" x1="678.27" y1="473.7" x2="683.21" y2="474.86"/><line class="cls-2" x1="715.39" y1="460.69" x2="720.39" y2="458.3"/><line class="cls-2" x1="726.34" y1="448.35" x2="729.83" y2="451.54"/><line class="cls-2" x1="726.2" y1="465.01" x2="729.83" y2="465.28"/><line class="cls-2" x1="705.01" y1="520.46" x2="710.95" y2="521.56"/><line class="cls-2" x1="714.87" y1="512.83" x2="718.94" y2="511.89"/><line class="cls-2" x1="680.74" y1="530.63" x2="686.84" y2="530.92"/><line class="cls-2" x1="702.66" y1="538.76" x2="707.98" y2="539.72"/><line class="cls-2" x1="691.59" y1="557.93" x2="699.05" y2="557.93"/><line class="cls-2" x1="681.93" y1="548.93" x2="684.38" y2="553.28"/><line class="cls-2" x1="705.01" y1="531.35" x2="708.63" y2="528.01"/><line class="cls-2" x1="700.3" y1="547.18" x2="703.98" y2="549.51"/><line class="cls-2" x1="668.55" y1="580.88" x2="677.25" y2="578.56"/><line class="cls-2" x1="674.06" y1="567.92" x2="677.98" y2="571.29"/><line class="cls-2" x1="689.6" y1="573.47" x2="693.99" y2="573.04"/><line class="cls-2" x1="698.02" y1="567.92" x2="702.14" y2="566.36"/><line class="cls-2" x1="697.88" y1="575.51" x2="700.08" y2="577.6"/><line class="cls-2" x1="665.84" y1="606.71" x2="672.9" y2="605.86"/><line class="cls-2" x1="667.67" y1="594.82" x2="671.74" y2="593.37"/><line class="cls-2" x1="673.53" y1="619.74" x2="678.13" y2="611.23"/><line class="cls-2" x1="680.3" y1="594.82" x2="683.15" y2="597.87"/><line class="cls-2" x1="674.2" y1="600.02" x2="677.86" y2="601.92"/><line class="cls-2" x1="681.93" y1="607.6" x2="685.24" y2="606.29"/><line class="cls-2" x1="681.03" y1="616.61" x2="683.79" y2="619.08"/><line class="cls-2" x1="690.49" y1="613.57" x2="686.99" y2="611.23"/><line class="cls-2" x1="688.51" y1="590.32" x2="691.59" y2="591.48"/><line class="cls-2" x1="679.58" y1="585.24" x2="683.58" y2="586.32"/><line class="cls-2" x1="672.9" y1="585.24" x2="675.83" y2="588.29"/><line class="cls-2" x1="684.38" y1="564.6" x2="685.39" y2="567.92"/><line class="cls-2" x1="681.73" y1="576.55" x2="684.38" y2="579.72"/><line class="cls-2" x1="690.49" y1="583.06" x2="692.93" y2="582.77"/><line class="cls-2" x1="688.51" y1="598.92" x2="691.59" y2="601.92"/><line class="cls-2" x1="690.49" y1="564.6" x2="692.93" y2="563.02"/><line class="cls-2" x1="682.48" y1="539.72" x2="686.55" y2="541.38"/><line class="cls-2" x1="677.25" y1="561.27" x2="681.93" y2="559.24"/><line class="cls-2" x1="674.59" y1="549.34" x2="677.84" y2="551.69"/><line class="cls-2" x1="692.93" y1="551.11" x2="694.97" y2="546.75"/><line class="cls-2" x1="709.41" y1="531.94" x2="711.84" y2="532.81"/><line class="cls-2" x1="714.43" y1="518.2" x2="716.51" y2="521.01"/><line class="cls-2" x1="700.08" y1="511.89" x2="702.14" y2="505.36"/><line class="cls-2" x1="677.25" y1="511.89" x2="680.74" y2="506.96"/><line class="cls-2" x1="690.49" y1="524.67" x2="694.68" y2="525.25"/><line class="cls-2" x1="684.88" y1="524.96" x2="687.86" y2="525.55"/><line class="cls-2" x1="693.95" y1="538.33" x2="696.38" y2="535.28"/><line class="cls-2" x1="707.98" y1="499.62" x2="709.41" y2="503.91"/><line class="cls-2" x1="674.47" y1="439.73" x2="675.66" y2="446.68"/><line class="cls-2" x1="671.16" y1="459.71" x2="679" y2="458.3"/><line class="cls-2" x1="667.06" y1="470.21" x2="675.08" y2="470.07"/><line class="cls-2" x1="692.93" y1="498.82" x2="692.58" y2="490.83"/><line class="cls-2" x1="697.01" y1="472.83" x2="700.3" y2="478.42"/><line class="cls-2" x1="690.49" y1="462.66" x2="695.16" y2="464.4"/><line class="cls-2" x1="683.79" y1="489.44" x2="687.42" y2="489.44"/><line class="cls-2" x1="706.82" y1="486.05" x2="709.41" y2="487.49"/><line class="cls-2" x1="688.51" y1="475.63" x2="692.58" y2="474.86"/><line class="cls-2" x1="703.39" y1="438.35" x2="704.41" y2="445.23"/><line class="cls-2" x1="688.51" y1="448.35" x2="692.58" y2="451.54"/><line class="cls-2" x1="714.27" y1="451.54" x2="716.9" y2="449.3"/><line class="cls-2" x1="709.41" y1="469.63" x2="713.42" y2="471.23"/><line class="cls-2" x1="722.84" y1="437.42" x2="723.44" y2="441.79"/><line class="cls-2" x1="703.9" y1="456.56" x2="707.34" y2="451.54"/><line class="cls-2" x1="727.29" y1="474.86" x2="731.07" y2="472.1"/><line class="cls-2" x1="689.6" y1="510.73" x2="693.99" y2="511.02"/><line class="cls-2" x1="681.93" y1="518.19" x2="684.88" y2="516.82"/><line class="cls-2" x1="699.05" y1="524.96" x2="701.11" y2="526.71"/><line class="cls-2" x1="699.05" y1="460.69" x2="681.93" y2="518.19"/><path class="cls-12" d="m724.16,506.1s10.19,40.71,14.98,47.27c4.79,6.56,29.75,43.88,29.75,43.88l-18.91,15.13s-38.63-48.76-42.64-56.15l16.82-50.12Z"/><line class="cls-2" x1="716.9" y1="568.39" x2="720.97" y2="562.87"/><line class="cls-2" x1="715.39" y1="555.9" x2="718.94" y2="559.24"/><line class="cls-2" x1="713.12" y1="539.24" x2="716.9" y2="542.97"/><line class="cls-2" x1="722.12" y1="539.24" x2="724.89" y2="536.09"/><line class="cls-2" x1="720.39" y1="531.5" x2="723.51" y2="532.37"/><line class="cls-2" x1="720.97" y1="551.11" x2="724.17" y2="551.11"/><line class="cls-2" x1="709.41" y1="550.51" x2="712.84" y2="550.51"/><line class="cls-2" x1="728.23" y1="565.63" x2="734.77" y2="566.26"/><line class="cls-2" x1="728.52" y1="545.15" x2="731.5" y2="548.93"/><line class="cls-2" x1="725.76" y1="560.26" x2="729.49" y2="555.32"/><line class="cls-2" x1="721.95" y1="574.91" x2="730.01" y2="574.34"/><line class="cls-2" x1="739.41" y1="573.25" x2="739.27" y2="578.14"/><line class="cls-2" x1="741.76" y1="557.09" x2="738.12" y2="563.81"/><line class="cls-2" x1="726.63" y1="541.11" x2="729.49" y2="540.27"/><line class="cls-2" x1="720.39" y1="517.35" x2="724.17" y2="521.01"/><line class="cls-2" x1="725.04" y1="528.45" x2="728.06" y2="527.14"/><line class="cls-2" x1="744.87" y1="585.09" x2="749.15" y2="582.91"/><line class="cls-2" x1="734.33" y1="586.15" x2="739.34" y2="586.15"/><line class="cls-2" x1="727.63" y1="583.79" x2="730.85" y2="578.14"/><line class="cls-2" x1="744.61" y1="592.5" x2="747.01" y2="596.35"/><line class="cls-2" x1="744.61" y1="579.72" x2="747.98" y2="576.55"/><line class="cls-2" x1="741.45" y1="567.95" x2="745.81" y2="569.61"/><line class="cls-2" x1="751.75" y1="592.21" x2="756.33" y2="590.9"/><line class="cls-2" x1="756.06" y1="578.14" x2="752.67" y2="582.91"/><line class="cls-2" x1="754.04" y1="602.66" x2="756.77" y2="606.94"/><line class="cls-2" x1="744.87" y1="604.8" x2="749.15" y2="602.95"/><line class="cls-2" x1="736.84" y1="595.11" x2="740.87" y2="592.35"/><line class="cls-2" x1="756.33" y1="596.35" x2="758.73" y2="600.02"/><line class="cls-2" x1="763.38" y1="594.42" x2="766.07" y2="593.03"/><line class="cls-2" x1="764.24" y1="600.97" x2="762.52" y2="598.18"/><line class="cls-2" x1="733.61" y1="574.63" x2="734.33" y2="569.61"/><line class="cls-2" x1="733.97" y1="556.48" x2="735.5" y2="557.93"/><path class="cls-9" d="m637.52,647.29h50.43l.76-24.33-21.19-4.51-2.52,9.46s-29.5,3.61-27.48,19.38Z"/><path class="cls-9" d="m766.8,598.92c.58,1.61,11.26,20.55,11.26,20.55l-28.58,27.63s-22.44.76-22.19,0,4.1-11.28,14.37-19.18l12.1-9.46-3.77-6.08,16.82-13.46Z"/><path class="cls-8" d="m667.53,375.1l5.3,2.77,1.89,21.73,5.29,40.13,54.15-2.85-3.08-21.69s10.59,23.13,10.49,25.87c-.11,2.74-5.95,37.42-5.95,37.42l18.66,7.56s7.45-31.16,8.21-46.26c.76-15.1-9.72-50.57-18.55-63.93-8.83-13.36-32.78-18.09-32.78-18.09,0,0-2.85,4.94-9.25,4.46s-6.44-7.48-6.44-7.48c0,0-43.66-4.92-51.64-4.61l-.96,9.59s18.28-2.19,24.66,15.37Z"/><path class="cls-8" d="m574.9,646.88l10.43-23.92c-1.06,1.39-23.02-9.41-23.02-9.41l-4.88,9.29c-3.82-.41-21.97-4.37-23.34,2.78h0l40.81,21.27Z"/><polygon class="cls-8" points="711.27 613.55 713.92 617.42 701.57 647.1 742.67 617.17 727.29 600.02 711.27 613.55"/><path class="cls-23" d="m602.22,422.31c.76-.82,70.6,2.97,70.6,2.97,0,0-5.8-42.63-11.35-53.34-5.55-10.71-13.62-14.11-23.95-15.63-10.34-1.51-26.98,5.17-30.26,14.5-3.28,9.33-5.04,51.5-5.04,51.5Z"/><path class="cls-27" d="m624.16,362.74v-11.85s-8.32-3.53-7.56-15.13c.76-11.6,8.57-21.43,18.41-20.68,9.83.76,17.65,8.32,15.89,20.68-1.77,12.36-7.06,14.37-7.06,14.37v11.76s-12.16,7.44-19.67.85Z"/><path class="cls-19" d="m559.31,612.08l27.52,13.53s25.22-93.68,27.23-99.22c2.02-5.54,22.95-47.65,22.19-47.91s22.95,73.63,26.22,78.42c3.28,4.79,46.14,58.87,46.14,58.87l18.66-15.75s-39.84-64.31-43.62-73.63c-3.78-9.33-10.84-101.11-10.84-101.11l-70.6-2.97s-22.19,98.02-24.96,109.12c-2.77,11.1-17.94,80.65-17.94,80.65Z"/><path class="cls-4" d="m614.07,383.42c1.23-8.29,10.09-26.55,10.09-26.55-8.32,1.21-16.07,6.57-21.97,18.36-5.25,8.92-12.97,26.8-18.13,33.41-6.3,8.07-21.73,28.31-21.73,28.31l10.01,10.78,30.08-29.87-20.13,44.4,23.7,6.15s7.06-30.01,8.07-40.6c1.01-10.59-1.88-31.66,0-44.38Z"/><path class="cls-2" d="m608.08,381.12s-5.9,35.38-5.66,36.72"/><path class="cls-4" d="m643.83,356.87l5.23,106.49,32.59,1.92c.05.43-3.26-44.72-5.3-59.77-2.64-19.47-3.41-18.49-8.83-30.41,0,0-6.01-18.23-23.69-18.23Z"/><path class="cls-27" d="m571.38,446.06s-15.85,14.37-19.47,12.86,2.88-14.01,12.05-20.85l7.42,7.99Z"/><line class="cls-2" x1="629.3" y1="451.54" x2="636.26" y2="478.48"/><path class="cls-2" d="m631.41,459.71s-21.99,48.03-27.35,60.89c-5.36,12.86-17.79,61.93-20.45,70.89-5.44,18.29-8.7,28.26-8.7,28.26"/><path class="cls-2" d="m652.25,463.55c0,1.01,7.97,42.6,13.77,60.41,5.8,17.81,44.63,76.06,44.63,76.06l5.86,9.1"/><path class="cls-11" d="m650.88,335.76l-46.83-27.23s1.7-.5,5.23,0c3.53.5,16.19,9.4,16.19,9.4,0,0,8.23-8.64,17.83-5.11,9.6,3.53,11.62,17.9,7.58,22.95Z"/><line class="cls-2" x1="625.47" y1="317.93" x2="652.01" y2="333.74"/><polyline class="cls-2" points="620.92 330.04 619.41 339.05 622.94 339.05"/><path class="cls-9" d="m635.36,326.73s-3.57,7.1,0,11.74c1.38,1.79,4.93,0,4.93,0,0,0-2.27,2.08,0,4.35,2.27,2.27,4.96,0,4.96,0,0,0-1.13,4.62,2.72,4.79,4.88.22,2.91-11.85,2.91-11.85l-15.53-9.03Z"/><path class="cls-9" d="m618.81,317.11c-.35-.2-8.33,2.9-7.11,6.27,1.74,4.85,21.12,1.88,21.12,1.88l-14.01-8.15Z"/><path class="cls-27" d="m747.6,375.32c-2.37-.96-4.45-1.15-5.45,1.21-1.94,4.59-1.83,8.68-1.86,11.29-.08,8.03,1.12,12.49,5.15,11.73,4.03-.76,6.3-9.55,6.3-16.39,0-3.78,0-6.16-4.15-7.84Z"/><line class="cls-2" x1="672.82" y1="370.81" x2="672.82" y2="377.87"/><line class="cls-2" x1="721.08" y1="394.15" x2="731.07" y2="415.19"/><path class="cls-20" d="m740.38,480.41s-4.54,12.44-2.26,17.23c2.28,4.79,9.09.98,13.63-12.62l-11.37-4.61Z"/><circle class="cls-7" cx="690.2" cy="334.96" r=".89"/><circle class="cls-7" cx="700.72" cy="334.96" r=".89"/><path class="cls-2" d="m693.24,344.24s.77,1.34,2.98,1.19c1.59-.11,2.6-1.03,2.6-1.03"/><path class="cls-2" d="m695.64,349.25s4.68,1.27,10.12-2.1"/><polygon class="cls-8" points="654.63 438.41 673.48 439.13 675.66 458.3 654.63 456.85 654.63 438.41"/><polygon class="cls-8" points="594.76 434.92 606.91 438.84 599.18 457.72 586.51 452.95 594.76 434.92"/><path class="cls-2" d="m636.73,351.98s-5.95,1.75-12.58-1.09"/><circle class="cls-7" cx="624.5" cy="332.5" r="1.1"/><path class="cls-2" d="m617.68,343.18s2.8,1.82,6.48.33"/><path class="cls-8" d="m641.82,312.49s1.96-3.05,5.72-.57c2.93,1.93,1.71,5.19,1.71,5.19,0,0-5.97-.83-7.43-4.62Z"/><path class="cls-20" d="m707.75,333.24s3.77-2.12,5.66.2c2.11,2.59-2.23,8.12-3.9,8.89"/><polyline class="cls-2" points="708.33 335.54 711.84 335.54 709.8 338.07"/><path class="cls-7" d="m734.15,436.88s-8.08-8.56-11.44-23.74c-1.15-5.2-1.63-18.99-1.63-18.99l9.99,21.04,3.08,21.69Z"/><g class="cls-3"><circle class="cls-7" cx="617" cy="332.5" r="1.1"/></g><path class="cls-24" d="m1027.8,335.93l1-6.68s-10.03-7.78-9.53-18.31c.5-10.53,3.26-25.33,16.3-28.34,13.04-3.01,24.08,6.52,22.57,22.82-1.5,16.3-11.04,16.48-11.04,16.48l-2.01,11.86s-12.04,6.84-17.31,2.17Z"/><path class="cls-10" d="m969.04,354.85c.66-.5,19,.05,19,.05l3.87,25.06s13.28-42.4,36.89-50.72c0,0-11.74,28.39-15.05,40.49-3.11,11.38-8.57,36.14-8.57,36.14,0,0-11.03,10.69-21.81,7.11-10.78-3.58-14.33-58.13-14.33-58.13Z"/><path class="cls-18" d="m1003.47,427.06l66.97,13.04s7.02-56.53,5.02-74.42c-2.01-17.88-22.72-34.69-29.8-35.19l-.55,3.26s-10.28,6.84-17.31,2.17l1-6.68s-13.29,17.81-15.3,26.84c-2.01,9.03-10.03,70.98-10.03,70.98Z"/><path class="cls-24" d="m970.41,354.43s-3.69-22.71,4.83-24.34c8.51-1.63,11.61,24.53,11.61,24.53l-16.43-.19Z"/><path class="cls-15" d="m1068.81,617.68l19.69-18.31s-36.87-54.38-41.89-60.8c-5.02-6.42-17.06-18.46-17.81-26.48s27.44-74.75,26.77-74.88-49.39-9.62-49.39-9.62c0,0-17.5,73.12-13.74,87.59,3.76,14.47,76.37,102.51,76.37,102.51Z"/><path class="cls-22" d="m1056.9,647.2c1,0,30.19.06,30.19.06l15.77-19.19-17.31-25.97-14.42,13.42,7.24,13.14-17.95,10.67c-2.72,1.62-4.13,4.76-3.53,7.87h0Z"/><path class="cls-22" d="m1007.28,622l-13.35,24.02-44.89-17.53h0c3.21-5.3,9.05-8.43,15.24-8.17l18.15.75,4.94-9.77,19.91,10.7Z"/><line class="cls-2" x1="1079.85" y1="607.42" x2="1034.33" y2="546.2"/><path class="cls-31" d="m1023.02,293.31c-.52,1.16-7.76,7.34-7.76,7.34l4.92,1.95s2.3.88,3.4,0c1.09-.88-.56-9.29-.56-9.29Z"/><path class="cls-2" d="m1023.02,293.31c-.52,1.16-7.76,7.34-7.76,7.34l4.92,1.95"/><circle class="cls-7" cx="1027.72" cy="297.03" r="1.67"/><path class="cls-15" d="m1011.37,446.76s-12.66,59.06-14.92,72.6c-2.26,13.54-13.55,89.53-13.55,89.53l28.47,15.31s24.57-82.94,28.27-96.52c3.71-13.58,26.74-88.36,26.74-88.36l-51.13-9.96-3.89,17.4Z"/><line class="cls-2" x1="1046.94" y1="435.53" x2="1001.4" y2="618.84"/><path class="cls-24" d="m1093.45,455.5s5,18.05,10.85,17.05c5.85-1,2.26-23.83,2.26-23.83l-13.11,6.79Z"/><path class="cls-24" d="m1042.43,301.16s4.51-4.2,6.06.32c1.6,4.66-7.43,11.03-7.43,11.03"/><path class="cls-10" d="m1046.64,325.82s-4.39,26.4-8.77,52.8c-1.56,9.39-6.81,69.01-6.81,69.01,0,0,37.12,8.78,47.65,9.78l1.5-21.57,9.53,21.57,16.8-8.7s-5.27-21.9-11.79-51.24c-6.52-29.35-12.86-50.37-22.77-59.91-9.91-9.53-25.36-11.74-25.36-11.74Z"/><path class="cls-2" d="m1059.15,343.19s9.32-9.13,17.33,0"/><path class="cls-2" d="m1058.29,377.4s14.76,42.2,21.93,58.44"/><path class="cls-26" d="m1046.64,325.82s4.74,2.17,4.74,8.94-4.77,12.29-5.77,18.81c-1,6.52-.48,29.1-8.29,29.1l9.32-56.85Z"/><path class="cls-10" d="m1028.81,329.25l-10.68,118.89c-1,.5-23.93-2.01-24.18-2.76s9.99-48.71,12.86-64.85c5.21-29.26,14.98-46.01,22-51.28Z"/><circle class="cls-7" cx="1015.26" cy="418.51" r="2"/><circle class="cls-7" cx="1013.25" cy="435.84" r="2"/><circle class="cls-7" cx="1016.08" cy="403.4" r="2"/><circle class="cls-7" cx="1017.26" cy="384.68" r="2"/><path class="cls-26" d="m1028.81,329.25s-12.43,5.32-11.54,17.85c.48,6.76,4.27,11.07,4.27,11.07l1.48,33.45,5.79-62.37Z"/><path class="cls-19" d="m1034.82,305.67s.88-11.11,6.52-10.25c3.12.48,2.31,12.97,1.56,15.73-.75,2.76-.22,16.37-8.52,18.1-3.7.77-13.39.14-15.24-4.95-2.45-6.72.73-19.74.73-19.74l14.96,1.12Z"/><polygon class="cls-22" points="1040.2 420.54 1072.16 427.59 1069.25 449.08 1038.16 442.33 1040.2 420.54"/><line class="cls-2" x1="345.26" y1="647.27" x2="1128.52" y2="647.27"/><path class="cls-9" d="m926.46,364.8l6.13,19.44,22.5-4.51c-1.31-17.22-11.33-35.44-11.33-35.44"/><path class="cls-2" d="m854.07,468.22s4.95,12.88,5.38,19.64c.44,6.75-4.07,12.57-5.38,18.25-2.54,10.94-7.62,13.78-10.49,13.34"/><path class="cls-2" d="m949.05,520.97s-6.74,13.29-1,18.95c5.74,5.66,11.58-4.5,11.38-13.14-.2-8.64-8.2-11.41-10.38-5.81Z"/><path class="cls-2" d="m970.24,571.06s-3.13,7.25-2.93,14.3c.2,7.06,2.42,12.5,0,19.48-2.42,6.97-2.42,15.5-2.42,15.5"/><path class="cls-2" d="m916.34,394.7s-1.99,21.49,9.42,40.83c3.75,6.36,1.98,29.32,25.24,27.54"/><path class="cls-2" d="m887.77,429.36s-5.01,1.42-5.88,9.26c-.87,7.84,2.61,11.98,0,16.99-2.61,5.01-10.88,13.51-4.57,15.69,6.31,2.18,12.59-8.28,14.46-15.69,1.87-7.41,7.59-29.07-4.01-26.26Z"/><path class="cls-2" d="m874.63,576.67s-2.32,1.89-2.03,8.28-.43,21.77,4.72,25.12c5.15,3.35,5.88-6.24,5.59-15.53s-3.78-20.04-8.28-17.86Z"/><path class="cls-2" d="m844.16,540.27s15.92.22,20.88,3.13c6.1,3.58,3.05,9-.73,10.02-3.78,1.02-18.05-.55-18.05-.55"/><path class="cls-20" d="m819.27,327.3s4.95-4.02,6.96-1.33c2.29,3.06-.76,5.05-2.83,6.62"/><path class="cls-20" d="m512.87,420.75s20.28,2.8,29.7,6.88c9.42,4.08,11.93,7.65,9.73,10.36-1.4,1.72-13.03-1.26-13.03-1.26,0,0,4.24,3.45,2.83,5.02-1.41,1.57-21.11-4.54-27.35-5.96l-1.88-15.05Z"/><path class="cls-18" d="m416.85,434.48s27.62-3.87,51.48-10.31c23.86-6.43,44.1-6.95,44.1-6.95l2.83,22.64s-11.78-.52-36.73,8.32c-7.34,2.6-14.49,4.27-14.49,4.27,0,0-24.1-10.65-47.19-17.98Z"/><path class="cls-7" d="m423.67,433.63s6.61-.31,23.68,2.89c17.06,3.2,28.19,8.39,39.36,8.95,0,0-17.01,6.02-22.67,7-5.66.97-21.92,6.27-21.92,6.27l-18.45-25.11Z"/><path class="cls-19" d="m355.15,622.52s-3.05,5.55,6.14,10.41c9.19,4.87,31.29,3.24,58.74,1.68,27.44-1.56,90.33-14.39,103.93-17.6,13.6-3.21,13.32-16.53,3.56-21.88-14.73-8.07-131.07,9.26-131.07,9.26,0,0-35.59,2.32-41.29,18.12Z"/><path class="cls-2" d="m354.72,624s7.32,7.56,31.05,7.57c35,.02,88.47-7.96,100.59-10.31,27.94-5.43,33.52-5.43,47.72-14.46"/><circle class="cls-22" cx="398.96" cy="641.62" r="5.65"/><circle class="cls-22" cx="504.35" cy="627.16" r="5.65"/><path class="cls-5" d="m483.58,490.02s1.06,11.25-3.16,17.03c-8.95,12.24-69.21,42.85-69.21,42.85,0,0,52.89,24.01,52.42,24.01s-39.71,28.72-39.71,28.72c0,0-64.98-27.31-76.28-33.12-11.3-5.81-15.07-18.99-8.79-27.62,6.28-8.63,67.17-47.87,67.17-47.87l77.55-4Z"/><path class="cls-10" d="m495.01,610.16l-81.61,15.54s3.77-16.32,14.91-19.78,13.34-5.49,13.34-5.49l-6.54-5.99,21.37-15.52,38.53,31.24Z"/><line class="cls-2" x1="404.76" y1="594.53" x2="438.06" y2="562.12"/><path class="cls-2" d="m446.2,586.4s-39.23-14.84-53.2-20.02c-13.97-5.18-27.47-8.95-20.72-19.3,6.75-10.36,47.48-29.36,53.79-33.52,12.52-8.25,24.82-14.88,27.47-21.99"/><path class="cls-7" d="m411.2,549.89l-12.58-6.13s27.56-1.44,39.44-8.23l-26.86,14.36Z"/><path class="cls-5" d="m483.58,490.02s45.34,23.15,57.74,28.33c12.4,5.18,27.21,5.22,35.69,2.55,8.48-2.67,54.4-21.86,54.4-21.86l23.23,31.23s-52.61,32.3-79.73,34.21c-25.69,1.81-83.4-19.65-100.76-28.41-30.42-15.35-47.4-44.37-47.4-44.37l56.84-1.69Z"/><path class="cls-2" d="m453.54,491.57s17.96,20.31,47.23,32.39c34.7,14.32,60.93,22.31,73.5,20.38,18.98-2.93,68.56-29.93,68.56-29.93"/><line class="cls-2" x1="615.01" y1="505.84" x2="637.87" y2="540.35"/><path class="cls-10" d="m634.25,502.87l29.8-13.72,65.45,18.52s-12.56,12.87-25.58,11.61c-13.03-1.26-29.04-6.12-31.7-5.81s-24.06,8.08-24.06,8.08l-13.9-18.69Z"/><path class="cls-23" d="m647.52,496.76l22.7,17.21s15.98,3.62,27.01,4.43c11.03.81,22.38.42,32.26-10.73l-65.45-18.52-16.53,7.61Z"/><polygon class="cls-8" points="656.36 492.69 725.08 511.89 729.49 507.67 664.05 489.15 656.36 492.69"/><polygon class="cls-7" points="691.59 517.81 692.93 511.89 696.38 511.89 694.96 518.2 691.59 517.81"/><polygon class="cls-7" points="700.3 518.82 701.24 511.89 705.01 512.85 703.91 519.29 700.3 518.82"/><path class="cls-7" d="m709.41,518.97s.94-6.59.94-6.12,3.92-.02,3.92-.02v5.37l-4.87.77Z"/><path class="cls-23" d="m441.65,600.43l24.95-13.3,28.41,23.03-81.61,15.54s2.95-14.92,11.5-18.2c8.55-3.28,16.75-7.07,16.75-7.07Z"/><polygon class="cls-7" points="425.85 607.5 430.99 612.05 434.6 610.95 429.26 605.92 425.85 607.5"/><polygon class="cls-7" points="432.76 604.33 438.39 609.23 441.65 607.66 438.06 602.31 432.76 604.33"/><polygon class="cls-7" points="441.65 600.43 445.23 606.04 448.92 604.2 446.36 597.92 441.65 600.43"/><path class="cls-8" d="m416.35,617.76s36.84-6.05,45.7-7.91c13.14-2.75,26.31-5.08,26.31-5.08l6.65,5.39-81.61,15.54,2.95-7.94Z"/><path class="cls-20" d="m379.97,445.52l-3.14-6.59s-9.42,2.35-12.4-3.45c-2.98-5.81-2.83-18.83,7.77-21.5,10.59-2.67,8.87,10.2,8.87,10.2l8,9.57s-1.73,12.56-9.1,11.77Z"/><path class="cls-18" d="m379.97,445.52s10.2,20.4,13.81,25.11c3.61,4.71,12.24,23.39,12.24,23.39l91.19-4.71s-20.6-26.35-34.84-38.3c-19.46-16.32-55.87-23.54-73.3-17.26,0,0-1.57,12.56-9.1,11.77Z"/><path class="cls-5" d="m364.27,420.48l16.79,3.7s1.88-7.01-3.77-10.57c-5.65-3.56-13.19,3.33-13.03,6.87Z"/><polyline class="cls-20" points="363.1 426 360.35 432.97 364.27 432.97"/><path class="cls-20" d="m358.9,485.02s-13.46-11.57-12.36-16.27c1.1-4.71,7.38-2.67,7.38-2.67,0,0-4.79-6.23-.16-9.73,5.14-3.89,17.57,14.22,17.57,14.22l-12.43,14.46Z"/><circle class="cls-7" cx="367.19" cy="426.5" r=".82"/><path class="cls-2" d="m364.8,436.09s2.91,1.75,5.15-.62"/><path class="cls-7" d="m438.63,491.88s-12.7-15.93-19.58-30.5l-4.33,31.81,23.91-1.3Z"/><path class="cls-18" d="m389.07,457.61l-3.61,21.82s-12.73-11.61-12.64-10.91-17.65,20.8-17.65,20.8c0,0,21.35,18.68,38.77,24.8,17.42,6.12,28.09-2.67,28.88-17.11s-3.77-35.63-3.77-35.63"/><circle class="cls-2" cx="366.63" cy="426" r="5.03"/><line class="cls-2" x1="371.66" y1="426" x2="381.09" y2="424.18"/><path class="cls-5" d="m372.82,422.36s-16.54-6.56-19.05-3.26c-2.51,3.3,7.85,3.92,11.77,4.24,3.92.31,7.28-.98,7.28-.98Z"/><path class="cls-7" d="m376.83,438.93s3.86-.59,6.04-3.46l-3.35,9.11-2.69-5.65Z"/><path class="cls-17" d="m658.81,643.45l-9.47-41.48,10.13-.05s5.44,44.8,2.83,45.46c-2.61.65-3.49-3.92-3.49-3.92Z"/><path class="cls-24" d="m585.95,544.84s-2.74-15.86-4.1-14.98,0,12.06,0,12.06l4.1,2.92Z"/><path class="cls-27" d="m564.37,608.65c4.42-4.84,6.49-11.39,5.8-17.91-.93-8.82-2.21-20.14-2.96-24.06-1.31-6.75-2.61-12.42-7.62-13.07s-11.33-.65-10.89-6.1c.44-5.45,19.17-5.88,28.32-6.32,9.15-.44,12.2,8.06,12.85,12.85s-1.09,11.98,5.66,13.29c6.75,1.31,53.67,1.04,60.57.06,7.95-1.13,10.88-18.58,13.06-30.12s3.49-20.7,5.45-21.35c1.96-.65,1.51,25.14-.01,33.42-1.52,8.28-3.01,26.83-2.58,31.63.44,4.79,17.36,59.17,17.57,63.53.22,4.36-2.18,2.83-3.05,1.96s-19.27-43.15-22.61-43.83c-10.78-2.2-40.47.39-58.82,1.55-5.1.32-8.6,1.31-7.82,6.35,1.97,12.63,5.87,35.71.79,36.91-3.19.75-9.11-19.66-12.55-32.21-1.36-4.97-5.84-9.51-9.71-6.1-4.72,4.15-11.43,11.94-12.42,15.22-1.67,5.52-1.64,22.72-4.69,22.5-3.05-.22-2.91-22.66-.99-27.99,1.35-3.75,4.03-7.33,6.65-10.21Z"/><path class="cls-24" d="m590.94,563.83l-22.75,9.56,1.17,5.92,27.8-11.76s-3.53.48-6.21-3.72Z"/><circle class="cls-24" cx="569.67" cy="582.2" r="5.23"/><path class="cls-24" d="m572.21,541.41s-1.52-12.85,0-14.16c1.52-1.31,4.79,13.94,4.79,13.94l-4.79.22Z"/><path class="cls-24" d="m560.88,542.29s1.32,14.36,7.3,14.36c7.62,0,4.02-15.25,4.02-15.25l-11.33.89Z"/><path class="cls-24" d="m602.82,567.9s-4.46,27.49,9.26,23.93c12.25-3.18,18.4-22.94,18.4-22.94l-27.67-.99Z"/><path class="cls-24" d="m644.54,592.79s-17.02-1.37-11.8-8.51c5.22-7.14,25.94-6.95,28.2-1.65,2.14,5-2.95,10.16-16.4,10.16Z"/><circle class="cls-7" cx="567.42" cy="546.63" r="1.2"/><path class="cls-20" d="m624.2,352.02s-19.53,7.42-14.08,13.45c4.29,4.76,14.04-2.73,14.04-2.73l.04-10.72Z"/><path class="cls-7" d="m552.86,552.6s4.48-4.1,1.29-9.04c0,0-6.29,1.07-6.29,4.14,0,4.14,5.55,5.18,4.99,4.91Z"/><polyline class="cls-2" points="923.88 308.67 926.85 307.54 925.76 310.96"/><line class="cls-2" x1="991.91" y1="379.96" x2="994.59" y2="393.76"/><line class="cls-2" x1="843.38" y1="605.13" x2="845.98" y2="598.22"/><path class="cls-2" d="m827.9,569.87s7.67.99,8.55,4.76"/><path class="cls-2" d="m826.16,523.96s6.62,3.97,10.29,0"/><path class="cls-2" d="m832.5,484.57s6.4-2.09,8.72,2.93"/><polyline class="cls-2" points="822.51 448.2 827.9 454.51 832.17 446.35 836.44 450.43 842.49 443.34"/><polyline class="cls-2" points="832.5 434.54 841.22 429.92 843.58 436.88 847.95 433.4"/><polyline class="cls-2" points="798.6 387.83 801.47 394.89 807.69 389.67 810.27 396.09 816.92 392.41"/><polyline class="cls-2" points="797.71 411.87 803.18 409.85 804.9 416.18 811.13 411.87 812.27 418.08"/><polyline class="cls-2" points="827.47 419.3 832.5 415.19 836.86 419.3 840.14 415.45"/><polyline class="cls-2" points="781.12 428.32 789.18 426.49 790.09 436.62 797.71 433.4 797.71 438.62"/><polyline class="cls-2" points="816.92 373.57 822.51 379.15 825.3 372.12 828.73 378.29 831.3 372.25"/><polyline class="cls-2" points="822.51 404.67 828.52 404.67 828.73 409.85 837.75 408.07"/><polyline class="cls-2" points="773.24 467.2 781.12 467.2 781.12 472.85 786.92 470.43 789.18 474.86"/><polyline class="cls-2" points="796.18 371.43 797.71 376.79 804.99 375.63 804.04 381.55 810.55 380.15"/><path class="cls-2" d="m824.11,388.72s-.96,5.84,4.62,7.36"/><path class="cls-2" d="m789.18,403.84s6.87-4.35,10.44.83"/><path class="cls-2" d="m818.48,441.79s6.22,1.77,8.99-3.17"/><path class="cls-2" d="m818.17,469.11s3.48,2.32,2.41,9.32"/><path class="cls-2" d="m784.5,444.85s1.93,6.5,7.73,3.36"/><path class="cls-2" d="m803.01,486.05s.6,4.83-3.05,7.47"/><path class="cls-2" d="m776.13,478.53s-2.58,5.08,0,8.24"/><path class="cls-2" d="m760.24,557.09s2.49-9.2,8.65-10.05"/><path class="cls-2" d="m803.18,548.93s2.58,1.9,2.15,8.17"/><path class="cls-2" d="m801.51,518.06c.39.21.92,7.67,3.87,8.88"/><path class="cls-2" d="m789.18,598.92s3.27-7,9.71-6.36"/><path class="cls-2" d="m819.5,515.91s-2.15,9.73,2.15,13.78"/><path class="cls-2" d="m831.3,559.24s3.23-6.04,7.95-5.47"/><path class="cls-2" d="m815.21,460.69s6.61-3.49,10.95,2.86"/><path class="cls-2" d="m794.4,417.24s-2.17,6.13,3.31,9.24"/><line class="cls-2" x1="799.73" y1="354.82" x2="796.18" y2="358.97"/><polyline class="cls-2" points="820.79 328.28 823.94 328.01 823.94 330.32"/><path class="cls-16" d="m965.25,316l26.52,7.59-.42,6.35-17.58,4.89-4.16,1.98s-4.2-1.37-5.81-6.61c-.83-4.31-.14-10.31-.14-10.31,0,0,.44-4.93,1.58-3.89Z"/><path class="cls-25" d="m968.37,316.89s-.9,1.99,0,3.7c1.17,2.22,3.38,4.07,4.78,4.66v4.2l18.62-5.87-23.4-6.7Z"/><path class="cls-21" d="m973.15,335.22v-5.66l18.62-5.87-.42,6.35-18.2,5.19Z"/><ellipse class="cls-30" cx="978.23" cy="323.54" rx="3.02" ry=".68"/><path class="cls-33" d="m855.35,210.03c-3.37,0-5.98-1.04-7.83-3.11-1.85-2.08-2.77-5.01-2.77-8.81s.94-6.91,2.82-9.03c1.88-2.13,4.55-3.19,8.02-3.19,1.12,0,2.24.12,3.36.36,1.12.24,2,.52,2.64.85l-1.08,3c-.78-.31-1.63-.57-2.55-.78-.92-.21-1.74-.31-2.44-.31-4.73,0-7.1,3.02-7.1,9.06,0,2.86.58,5.06,1.73,6.59,1.15,1.53,2.87,2.3,5.13,2.3,1.94,0,3.93-.42,5.97-1.25v3.12c-1.56.81-3.52,1.21-5.89,1.21Z"/><path class="cls-33" d="m886,197.94c0,3.8-.96,6.76-2.87,8.9-1.91,2.13-4.56,3.2-7.93,3.2-2.08,0-3.93-.49-5.55-1.47-1.62-.98-2.86-2.38-3.74-4.21-.88-1.83-1.32-3.97-1.32-6.42,0-3.8.95-6.76,2.85-8.88,1.9-2.12,4.53-3.18,7.91-3.18s5.85,1.08,7.77,3.25c1.92,2.17,2.88,5.1,2.88,8.8Zm-17.75,0c0,2.98.6,5.24,1.79,6.8,1.19,1.56,2.94,2.34,5.25,2.34s4.06-.78,5.26-2.33c1.2-1.55,1.8-3.82,1.8-6.81s-.6-5.21-1.8-6.75c-1.2-1.54-2.97-2.31-5.3-2.31s-4.05.76-5.23,2.27c-1.18,1.52-1.76,3.78-1.76,6.78Z"/><path class="cls-33" d="m907.26,209.61v-15.07c0-1.9-.43-3.32-1.3-4.25-.86-.94-2.22-1.4-4.06-1.4-2.44,0-4.22.66-5.36,1.98-1.13,1.32-1.7,3.49-1.7,6.53v12.22h-3.53v-23.3h2.87l.57,3.19h.17c.72-1.15,1.74-2.04,3.04-2.67,1.3-.63,2.76-.95,4.36-.95,2.81,0,4.92.68,6.33,2.03,1.42,1.35,2.13,3.52,2.13,6.49v15.2h-3.53Z"/><path class="cls-33" d="m927.67,189.05h-5.93v20.56h-3.53v-20.56h-4.17v-1.59l4.17-1.28v-1.3c0-5.73,2.5-8.59,7.5-8.59,1.23,0,2.68.25,4.34.74l-.91,2.83c-1.36-.44-2.52-.66-3.49-.66-1.33,0-2.32.44-2.95,1.33-.64.89-.96,2.31-.96,4.26v1.51h5.93v2.74Z"/><path class="cls-33" d="m937.79,197.5c0-8.35,3.66-15.01,9.61-19.8l2.4,2.09c-5.66,4.95-8.24,10.51-8.24,17.71s2.58,12.76,8.24,17.71l-2.4,2.09c-5.95-4.78-9.61-11.45-9.61-19.8Z"/><path class="cls-33" d="m954.69,207.07c9.02-7.88,14.21-12.71,14.21-17.16,0-3.05-1.85-5.07-5.63-5.07-2.51,0-4.65,1.45-6.38,3.18l-2.44-2.41c2.61-2.62,5.37-4.26,9.36-4.26,5.64,0,9.24,3.32,9.24,8.35s-5.11,10.2-12.08,16.48c1.7-.14,3.54-.24,5.14-.24h8.44v3.68h-19.86v-2.53Z"/><path class="cls-33" d="m979.86,195.64c0-9.34,3.9-14.3,10.14-14.3s10.14,4.96,10.14,14.3-3.9,14.49-10.14,14.49-10.14-5.22-10.14-14.49Zm16.32,0c0-7.76-2.6-10.85-6.18-10.85s-6.18,3.09-6.18,10.85,2.6,11.04,6.18,11.04,6.18-3.28,6.18-11.04Zm-9.02-.25c0-1.84,1.3-2.99,2.85-2.99s2.85,1.15,2.85,2.99-1.3,3.02-2.85,3.02-2.85-1.15-2.85-3.02Z"/><path class="cls-33" d="m1005.19,207.07c9.02-7.88,14.21-12.71,14.21-17.16,0-3.05-1.85-5.07-5.63-5.07-2.51,0-4.65,1.45-6.38,3.18l-2.44-2.41c2.62-2.62,5.37-4.26,9.37-4.26,5.64,0,9.24,3.32,9.24,8.35s-5.11,10.2-12.08,16.48c1.7-.14,3.54-.24,5.14-.24h8.44v3.68h-19.87v-2.53Z"/><path class="cls-33" d="m1029.75,206.21l2.12-2.79c1.83,1.71,4.36,3.14,7.65,3.14,3.58,0,6.24-1.76,6.24-4.59,0-3.08-2.55-5.11-9.61-5.11v-3.21c6.27,0,8.67-2.07,8.67-4.8,0-2.47-2.12-4.01-5.25-4.01-2.5,0-4.74,1.1-6.58,2.69l-2.26-2.69c2.41-2.05,5.44-3.5,9.01-3.5,5.44,0,9.45,2.61,9.45,7.19,0,3.22-2.35,5.33-5.76,6.5v.17c3.64.82,6.7,3.21,6.7,6.97,0,4.98-4.68,7.96-10.29,7.96-4.77,0-8.02-1.8-10.09-3.92Z"/><path class="cls-33" d="m1052.82,215.21c5.66-4.95,8.24-10.51,8.24-17.71s-2.58-12.76-8.24-17.71l2.4-2.09c5.95,4.78,9.61,11.45,9.61,19.8s-3.66,15.01-9.61,19.8l-2.4-2.09Z"/><path class="cls-33" d="m923.43,98.13c15.48,0,26.39,10.54,26.39,25.18s-10.91,25.08-26.39,25.08-26.2-10.54-26.2-25.08,10.72-25.18,26.2-25.18m0,37.67c7.37,0,12.4-4.66,12.4-12.5s-5.6-12.59-12.4-12.59-12.22,4.57-12.22,12.59c0,7.09,4.94,12.5,12.22,12.5"/><path class="cls-33" d="m1009.3,78.3c4.38,0,7.55,3.14,7.55,7.29,0,4.35-3.17,7.49-7.55,7.49-4.76,0-7.65-3.14-7.65-7.49s3.17-7.29,7.65-7.29m-6.81,20.74h13.52v48.49h-13.52v-48.49Z"/><path class="cls-33" d="m1022.12,99.05h9.23v-11.28h13.52v11.28h14.61v12.59h-14.61v15.76c0,5.88,1.31,8.11,4.94,8.11,3.17,0,5.69-1.12,8.3-3.17l6.89,8.54c-3.36,3.54-9.87,7.22-16.49,7.22-10.16,0-17.16-5.5-17.16-16.69v-19.77h-9.23v-12.59Z"/><path class="cls-33" d="m995.49,104.98c-3.31-3.18-10.19-7.29-19.95-7.29-13.9,0-22.08,5.75-22.08,15.18,0,14.63,23.3,14.99,28.81,18.22,1,.56,1.59,1.33,1.23,2.45-1.03,3.25-14.1,4.83-23.73-4.49l-7.86,9.37c3.5,4.63,11.22,10.07,23.74,10.07,11.63,0,21.69-4.71,21.69-15.46,0-9.63-8.97-13.51-16.95-15.78-2.27-.63-4.47-1.14-6.37-1.65-3.14-.81-7.36-1.71-6.68-4.06,1.22-4.27,15.25-1.59,20.15,2.89l8.01-9.46Z"/><path class="cls-33" d="m844.58,99.16h13.54v2.52c2.52-2.34,7.1-3.55,10.84-3.55,14.76,0,23.91,10.18,23.91,24.57s-9.53,25.78-24.29,25.78c-4.67,0-8.97-.75-10.46-2.43v20.36h-13.54v-67.26Zm13.54,17.09v15.51c1.49,2.24,4.76,4.11,8.59,4.11,7.57,0,12.14-4.76,12.14-12.14,0-8.59-4.3-12.98-11.4-12.98-4.48,0-7.57,2.24-9.34,5.51"/><path class="cls-35" d="m73.51,566.83h9.3v2.17h-6.71v4.12h5.7v2.17h-5.7v6.06h-2.58v-14.53Z"/><path class="cls-35" d="m86.07,566.83h4.86c3.01,0,5.35,1.07,5.35,4.31s-2.34,4.54-5.35,4.54h-2.26v5.67h-2.6v-14.53Zm4.59,6.79c1.99,0,3.07-.83,3.07-2.47s-1.08-2.25-3.07-2.25h-1.99v4.72h1.99Zm1.65-.17l4.53,7.91h-2.9l-3.51-6.36,1.87-1.55Z"/><path class="cls-35" d="m98.49,574.03c0-4.78,2.34-7.46,5.71-7.46s5.71,2.69,5.71,7.46-2.34,7.6-5.71,7.6-5.71-2.73-5.71-7.6Zm8.77,0c0-3.33-1.21-5.21-3.05-5.21s-3.05,1.88-3.05,5.21,1.21,5.35,3.05,5.35,3.05-1.93,3.05-5.35Z"/><path class="cls-35" d="m112.31,566.83h2.86l1.73,5.67.6,2.18h.09l.58-2.18,1.74-5.67h2.86v14.53h-2.28v-5.86c0-1.53.25-4.55.38-5.95h-.07l-.97,3.37-1.6,4.59h-1.46l-1.59-4.59-.94-3.37h-.06c.15,1.41.38,4.43.38,5.95v5.86h-2.24v-14.53Z"/><path class="cls-32" d="m231.21,561.24c6.46,0,11.02,4.4,11.02,10.51s-4.55,10.47-11.02,10.47-10.94-4.4-10.94-10.47,4.48-10.51,10.94-10.51m0,15.73c3.07,0,5.18-1.95,5.18-5.22s-2.34-5.25-5.18-5.25-5.1,1.91-5.1,5.25c0,2.96,2.06,5.22,5.1,5.22"/><path class="cls-32" d="m267.06,552.96c1.83,0,3.15,1.31,3.15,3.04,0,1.82-1.32,3.13-3.15,3.13-1.99,0-3.19-1.31-3.19-3.13s1.32-3.04,3.19-3.04m-2.84,8.66h5.64v20.24h-5.64v-20.24Z"/><path class="cls-32" d="m272.41,561.62h3.85v-4.71h5.64v4.71h6.1v5.25h-6.1v6.58c0,2.45.55,3.39,2.06,3.39,1.32,0,2.37-.47,3.46-1.32l2.87,3.56c-1.4,1.48-4.12,3.01-6.88,3.01-4.24,0-7.16-2.3-7.16-6.97v-8.25h-3.85v-5.25Z"/><path class="cls-32" d="m291.54,563.73h-.45v-1.74h-.57v-.37h1.6v.37h-.57v1.74Z"/><path class="cls-32" d="m293.28,563.73l-.51-1.66h-.01c.02.34.03.56.03.68v.98h-.4v-2.11h.61l.5,1.62h0l.53-1.62h.61v2.11h-.42v-1s0-.1,0-.16c0-.06,0-.23.02-.49h-.01l-.55,1.66h-.41Z"/><path class="cls-32" d="m261.29,564.1c-1.38-1.33-4.25-3.04-8.33-3.04-5.8,0-9.22,2.4-9.22,6.33,0,6.11,9.73,6.26,12.02,7.6.42.23.66.55.51,1.02-.43,1.36-5.88,2.02-9.91-1.87l-3.28,3.91c1.46,1.93,4.68,4.2,9.91,4.2,4.86,0,9.05-1.97,9.05-6.45,0-4.02-3.75-5.64-7.08-6.59-.95-.26-1.86-.48-2.66-.69-1.31-.34-3.07-.71-2.79-1.69.51-1.78,6.36-.66,8.41,1.21l3.34-3.95Z"/><path class="cls-32" d="m198.3,561.67h5.65v1.05c1.05-.97,2.96-1.48,4.52-1.48,6.16,0,9.98,4.25,9.98,10.26s-3.98,10.76-10.14,10.76c-1.95,0-3.74-.31-4.37-1.01v8.5h-5.65v-28.07Zm5.65,7.14v6.47c.62.94,1.99,1.72,3.59,1.72,3.16,0,5.07-1.99,5.07-5.07,0-3.59-1.79-5.42-4.76-5.42-1.87,0-3.16.94-3.9,2.3"/><polygon id="fullLogo-8" class="cls-29" points="160.34 567.67 162.01 566.93 169.57 563.56 171.22 562.82 189.48 554.68 189.48 564.5 182.09 567.67 180.42 566.93 188.14 563.61 188.14 556.75 172.87 563.56 171.22 564.29 163.69 567.65 162.02 568.39 156.69 570.77 156.69 572.53 161.94 574.86 163.61 575.61 171.33 579.05 172.97 579.78 188.14 586.54 188.14 579.61 180.51 576.33 182.18 575.59 189.48 578.72 189.48 588.61 171.34 580.52 169.7 579.79 161.93 576.33 160.26 575.59 155.36 573.4 155.36 569.89 160.34 567.67"/><polygon class="cls-29" points="172.92 571.61 180.41 568.39 178.74 567.65 169.51 571.61 178.82 575.61 180.49 574.86 172.92 571.61"/><polygon id="fullLogo-9" class="cls-34" points="161.94 574.86 163.61 575.61 171.22 572.34 169.51 571.61 161.94 574.86"/><polygon id="fullLogo-10" class="cls-34" points="163.69 567.65 162.02 568.39 169.51 571.61 171.22 570.88 163.69 567.65"/><polygon id="fullLogo-11" class="cls-34" points="182.09 567.67 180.42 566.93 172.87 563.56 171.22 562.82 152.96 554.68 152.96 564.5 160.34 567.67 162.01 566.93 154.29 563.61 154.29 556.75 169.57 563.56 171.22 564.29 178.74 567.65 180.41 568.39 185.74 570.77 185.74 572.53 180.5 574.86 178.83 575.61 171.1 579.05 169.46 579.78 154.29 586.54 154.29 579.61 161.93 576.33 160.26 575.59 152.96 578.72 152.96 588.61 171.09 580.52 172.73 579.79 180.51 576.33 182.18 575.59 187.07 573.4 187.07 569.89 182.09 567.67"/></svg>